<svg xmlns="http://www.w3.org/2000/svg" xmlns:xlink="http://www.w3.org/1999/xlink" width="1080" zoomAndPan="magnify" viewBox="0 0 810 809.999993" height="1080" preserveAspectRatio="xMidYMid meet" version="1.0"><defs><clipPath id="ecf4594857"><path d="M 101.402344 419 L 342 419 L 342 718 L 101.402344 718 Z M 101.402344 419 " clip-rule="nonzero"/></clipPath><clipPath id="74f975c4b0"><path d="M 478 70.980469 L 729 70.980469 L 729 322 L 478 322 Z M 478 70.980469 " clip-rule="nonzero"/></clipPath></defs><g clip-path="url(#ecf4594857)"><path fill="#000000" d="M 313.953125 419.390625 L 129.152344 419.390625 C 113.894531 419.390625 101.546875 431.742188 101.546875 446.996094 L 101.546875 690.378906 C 101.546875 705.632812 113.894531 717.984375 129.152344 717.984375 L 313.953125 717.984375 C 329.207031 717.984375 341.558594 705.632812 341.558594 690.378906 L 341.558594 446.996094 C 341.558594 431.742188 329.164062 419.390625 313.953125 419.390625 Z M 196.148438 676.878906 L 185.425781 676.878906 L 185.425781 687.601562 C 185.425781 694.738281 179.65625 700.550781 172.476562 700.550781 C 165.300781 700.550781 159.53125 694.78125 159.53125 687.601562 L 159.53125 676.878906 L 148.804688 676.878906 C 141.671875 676.878906 135.859375 671.109375 135.859375 663.929688 C 135.859375 656.753906 141.628906 650.984375 148.804688 650.984375 L 159.53125 650.984375 L 159.53125 640.257812 C 159.53125 633.125 165.300781 627.3125 172.476562 627.3125 C 179.65625 627.3125 185.425781 633.082031 185.425781 640.257812 L 185.425781 650.984375 L 196.148438 650.984375 C 203.285156 650.984375 209.097656 656.753906 209.097656 663.929688 C 209.097656 671.109375 203.285156 676.878906 196.148438 676.878906 Z M 146.625 561.082031 C 141.585938 556.039062 141.585938 547.835938 146.625 542.792969 C 151.667969 537.75 159.871094 537.75 164.914062 542.792969 L 172.519531 550.398438 L 180.125 542.792969 C 185.167969 537.75 193.371094 537.75 198.414062 542.792969 C 203.457031 547.835938 203.457031 556.039062 198.414062 561.082031 L 190.808594 568.6875 L 198.414062 576.292969 C 203.457031 581.335938 203.457031 589.539062 198.414062 594.582031 C 195.894531 597.101562 192.558594 598.382812 189.269531 598.382812 C 185.980469 598.382812 182.648438 597.101562 180.125 594.582031 L 172.519531 586.976562 L 164.914062 594.582031 C 162.394531 597.101562 159.0625 598.382812 155.769531 598.382812 C 152.480469 598.382812 149.148438 597.101562 146.625 594.582031 C 141.585938 589.539062 141.585938 581.335938 146.625 576.292969 L 154.234375 568.6875 Z M 295.367188 676.878906 L 248.023438 676.878906 C 240.886719 676.878906 235.074219 671.109375 235.074219 663.929688 C 235.074219 656.753906 240.84375 650.984375 248.023438 650.984375 L 295.324219 650.984375 C 302.460938 650.984375 308.269531 656.753906 308.269531 663.929688 C 308.269531 671.109375 302.503906 676.878906 295.367188 676.878906 Z M 295.367188 599.066406 L 248.023438 599.066406 C 240.886719 599.066406 235.074219 593.300781 235.074219 586.121094 C 235.074219 578.941406 240.84375 573.175781 248.023438 573.175781 L 295.324219 573.175781 C 302.460938 573.175781 308.269531 578.941406 308.269531 586.121094 C 308.269531 593.300781 302.503906 599.066406 295.367188 599.066406 Z M 295.367188 562.832031 L 248.023438 562.832031 C 240.886719 562.832031 235.074219 557.066406 235.074219 549.886719 C 235.074219 542.707031 240.84375 536.941406 248.023438 536.941406 L 295.324219 536.941406 C 302.460938 536.941406 308.269531 542.707031 308.269531 549.886719 C 308.269531 557.066406 302.503906 562.832031 295.367188 562.832031 Z M 313.953125 501.644531 L 129.152344 501.644531 L 129.152344 447.550781 L 313.953125 447.550781 Z M 313.953125 501.644531 " fill-opacity="1" fill-rule="nonzero"/></g><g clip-path="url(#74f975c4b0)"><path fill="#000000" d="M 603.527344 321.628906 C 570.027344 321.628906 538.582031 308.597656 514.910156 284.925781 C 491.238281 261.253906 478.203125 229.761719 478.203125 196.304688 C 478.203125 162.847656 491.238281 131.355469 514.910156 107.683594 C 538.582031 84.011719 570.070312 70.980469 603.527344 70.980469 C 637.027344 70.980469 668.476562 84.011719 692.148438 107.683594 C 715.820312 131.355469 728.851562 162.847656 728.851562 196.304688 C 728.851562 229.761719 715.820312 261.253906 692.148438 284.925781 C 668.519531 308.597656 637.027344 321.628906 603.527344 321.628906 Z M 603.527344 96.316406 C 548.410156 96.316406 503.542969 141.183594 503.542969 196.304688 C 503.542969 251.425781 548.410156 296.289062 603.527344 296.289062 C 658.648438 296.289062 703.515625 251.425781 703.515625 196.304688 C 703.515625 141.183594 658.691406 96.316406 603.527344 96.316406 Z M 603.527344 96.316406 " fill-opacity="1" fill-rule="nonzero"/></g><path fill="#000000" d="M 598.359375 277.789062 L 598.359375 258.816406 C 586.050781 258.433594 573.746094 254.929688 566.695312 250.226562 L 571.953125 231.855469 C 579.558594 236.339844 590.496094 240.441406 602.417969 240.441406 C 614.722656 240.441406 623.140625 234.375 623.140625 225.019531 C 623.140625 216.214844 616.304688 210.574219 601.863281 205.277344 C 581.351562 197.84375 568.0625 188.484375 568.0625 170.324219 C 568.0625 153.53125 579.773438 140.628906 599.511719 137.125 L 599.511719 117.980469 L 615.535156 117.980469 L 615.535156 136.140625 C 627.839844 136.527344 636.257812 139.472656 642.496094 142.59375 L 637.242188 160.582031 C 632.542969 158.445312 623.953125 153.960938 610.664062 153.960938 C 596.992188 153.960938 592.121094 161.007812 592.121094 167.632812 C 592.121094 175.621094 599.171875 180.152344 615.75 186.773438 C 637.625 194.980469 647.410156 205.535156 647.410156 222.925781 C 647.410156 239.546875 635.875 254.203125 614.382812 257.707031 L 614.382812 277.832031 L 598.359375 277.832031 Z M 598.359375 277.789062 " fill-opacity="1" fill-rule="nonzero"/><path fill="#000000" d="M 247.039062 274.328125 C 241.570312 274.328125 237.167969 278.769531 237.167969 284.199219 L 237.167969 346.753906 L 256.953125 346.753906 L 256.953125 284.199219 C 256.910156 278.769531 252.507812 274.328125 247.039062 274.328125 Z M 247.039062 274.328125 " fill-opacity="1" fill-rule="nonzero"/><path fill="#000000" d="M 299.980469 251.722656 C 294.511719 251.722656 290.109375 256.167969 290.109375 261.59375 L 290.109375 346.753906 L 309.894531 346.753906 L 309.894531 261.636719 C 309.894531 256.167969 305.449219 251.722656 299.980469 251.722656 Z M 299.980469 251.722656 " fill-opacity="1" fill-rule="nonzero"/><path fill="#000000" d="M 352.964844 226.34375 C 347.496094 226.34375 343.09375 230.785156 343.09375 236.210938 L 343.09375 346.753906 L 362.878906 346.753906 L 362.878906 236.210938 C 362.835938 230.785156 358.390625 226.34375 352.964844 226.34375 Z M 352.964844 226.34375 " fill-opacity="1" fill-rule="nonzero"/><path fill="#000000" d="M 405.90625 194.253906 C 400.4375 194.253906 396.035156 198.695312 396.035156 204.125 L 396.035156 346.753906 L 415.820312 346.753906 L 415.820312 204.164062 C 415.777344 198.695312 411.375 194.253906 405.90625 194.253906 Z M 405.90625 194.253906 " fill-opacity="1" fill-rule="nonzero"/><path fill="#000000" d="M 568.578125 689.269531 L 374.203125 689.269531 L 374.203125 654.273438 L 568.578125 654.273438 C 584.085938 654.273438 596.734375 641.667969 596.734375 626.117188 L 596.734375 348.375 L 631.730469 348.375 L 631.730469 626.117188 C 631.6875 660.941406 603.402344 689.269531 568.578125 689.269531 Z M 568.578125 689.269531 " fill-opacity="1" fill-rule="nonzero"/><path fill="#000000" d="M 173.117188 391.234375 L 138.125 391.234375 L 138.125 156.308594 C 138.125 121.484375 166.453125 93.199219 201.234375 93.199219 L 465.472656 93.199219 L 465.472656 128.195312 L 201.277344 128.195312 C 185.765625 128.195312 173.117188 140.796875 173.117188 156.351562 Z M 173.117188 391.234375 " fill-opacity="1" fill-rule="nonzero"/><path fill="#000000" d="M 542.9375 447.039062 L 396.035156 447.039062 C 391.421875 447.039062 387.703125 443.320312 387.703125 438.707031 C 387.703125 434.089844 391.421875 430.375 396.035156 430.375 L 542.9375 430.375 C 547.554688 430.375 551.269531 434.089844 551.269531 438.707031 C 551.269531 443.320312 547.511719 447.039062 542.9375 447.039062 Z M 542.9375 447.039062 " fill-opacity="1" fill-rule="nonzero"/><path fill="#000000" d="M 542.9375 491.519531 L 396.035156 491.519531 C 391.421875 491.519531 387.703125 487.800781 387.703125 483.1875 C 387.703125 478.570312 391.421875 474.855469 396.035156 474.855469 L 542.9375 474.855469 C 547.554688 474.855469 551.269531 478.570312 551.269531 483.1875 C 551.269531 487.800781 547.511719 491.519531 542.9375 491.519531 Z M 542.9375 491.519531 " fill-opacity="1" fill-rule="nonzero"/><path fill="#000000" d="M 542.9375 536.042969 L 396.035156 536.042969 C 391.421875 536.042969 387.703125 532.324219 387.703125 527.710938 C 387.703125 523.097656 391.421875 519.378906 396.035156 519.378906 L 542.9375 519.378906 C 547.554688 519.378906 551.269531 523.097656 551.269531 527.710938 C 551.269531 532.324219 547.511719 536.042969 542.9375 536.042969 Z M 542.9375 536.042969 " fill-opacity="1" fill-rule="nonzero"/><path fill="#000000" d="M 542.9375 580.523438 L 396.035156 580.523438 C 391.421875 580.523438 387.703125 576.804688 387.703125 572.191406 C 387.703125 567.578125 391.421875 563.859375 396.035156 563.859375 L 542.9375 563.859375 C 547.554688 563.859375 551.269531 567.578125 551.269531 572.191406 C 551.269531 576.804688 547.511719 580.523438 542.9375 580.523438 Z M 542.9375 580.523438 " fill-opacity="1" fill-rule="nonzero"/></svg>