<svg xmlns="http://www.w3.org/2000/svg" xmlns:xlink="http://www.w3.org/1999/xlink" width="1080" zoomAndPan="magnify" viewBox="0 0 810 809.999993" height="1080" preserveAspectRatio="xMidYMid meet" version="1.0"><defs><clipPath id="ed1f11eefa"><path d="M 173.746094 267 L 622 267 L 622 729 L 173.746094 729 Z M 173.746094 267 " clip-rule="nonzero"/></clipPath></defs><path fill="#000000" d="M 532.917969 234.503906 C 525.964844 245.496094 518.972656 256.449219 511.941406 267.363281 C 502.320312 261.179688 491.046875 257.703125 479.285156 257.703125 C 473.140625 257.703125 466.996094 258.671875 461.097656 260.574219 C 431.46875 270.03125 414.011719 298.28125 418.617188 329.28125 C 421.164062 346.539062 431.632812 361.210938 446.222656 370.304688 C 436.765625 384.976562 427.347656 399.566406 417.851562 414.117188 C 414.210938 419.695312 409.039062 420.34375 403.460938 416.785156 C 380.019531 401.789062 356.535156 386.796875 333.175781 371.640625 C 326.628906 367.394531 326.101562 362.789062 330.789062 355.554688 C 360.78125 308.628906 390.890625 261.746094 420.921875 214.902344 C 428.882812 202.492188 436.683594 190.042969 444.726562 177.71875 C 449.78125 169.996094 454.023438 169.1875 461.824219 174.199219 C 484.175781 188.425781 506.523438 202.734375 528.835938 217.082031 C 537.242188 222.460938 538.210938 226.175781 532.917969 234.503906 " fill-opacity="1" fill-rule="nonzero"/><path fill="#000000" d="M 472.9375 157.992188 C 482.921875 142.675781 493.550781 126.46875 504.101562 110.261719 C 508.546875 103.429688 512.789062 96.519531 517.316406 89.769531 C 522.167969 82.453125 525.925781 81.363281 533.039062 85.808594 C 548.84375 95.710938 564.445312 105.855469 580.085938 115.960938 C 586.027344 119.800781 587.117188 124.890625 583.359375 130.792969 C 568.484375 154.234375 553.492188 177.636719 538.738281 200.714844 C 516.871094 186.488281 495.449219 172.585938 472.9375 157.992188 " fill-opacity="1" fill-rule="nonzero"/><path fill="#000000" d="M 325.335938 389.222656 C 347.644531 403.488281 369.027344 417.148438 391.375 431.417969 C 383.980469 442.613281 376.460938 454.253906 368.660156 465.691406 C 365.347656 470.539062 360.417969 471.429688 355.527344 468.359375 C 339.078125 458.050781 322.707031 447.625 306.5 436.996094 C 301.40625 433.640625 300.234375 428.75 303.628906 423.332031 C 310.863281 411.855469 318.222656 400.375 325.335938 389.222656 " fill-opacity="1" fill-rule="nonzero"/><g clip-path="url(#ed1f11eefa)"><path fill="#000000" d="M 480.011719 344.722656 C 464.976562 344.964844 453.296875 334.089844 453.054688 319.621094 C 452.730469 304.75 463.359375 293.390625 478.152344 293.027344 C 493.308594 292.703125 503.980469 302.890625 504.300781 318.25 C 504.667969 332.597656 493.632812 344.519531 480.011719 344.722656 Z M 583.761719 694.046875 C 574.023438 685.441406 563.472656 677.761719 552.316406 670.890625 C 546.011719 666.96875 539.382812 663.414062 532.714844 660.097656 C 530.65625 659.085938 528.59375 658.035156 526.410156 657.027344 C 539.628906 645.546875 553.367188 635.324219 564.242188 622.753906 C 621.554688 556.710938 636.144531 482.179688 604.941406 399.648438 C 590.511719 361.695312 566.667969 330.859375 533.765625 306.890625 C 530.453125 304.507812 527.582031 300.585938 525.722656 296.828125 C 514.609375 273.667969 488.378906 261.988281 463.964844 269.667969 C 438.828125 277.667969 424.15625 301.515625 428.074219 327.867188 C 431.753906 352.402344 454.425781 370.546875 480.699219 370.425781 C 485.386719 370.304688 491.691406 370.425781 494.765625 373.175781 C 534.453125 408.703125 552.683594 452.714844 541.445312 505.703125 C 525.523438 581.121094 458.347656 625.824219 382.324219 613.09375 C 360.417969 609.332031 340.613281 600.359375 323.757812 583.992188 C 330.75 583.992188 337.621094 584.195312 344.613281 583.871094 C 358.839844 583.425781 367.207031 575.625 367.207031 563.257812 C 367.085938 550.285156 358.476562 542.484375 343.925781 542.484375 C 323.191406 542.363281 302.417969 542.363281 281.683594 542.363281 C 253.230469 542.363281 224.816406 542.242188 196.402344 542.484375 C 183.429688 542.605469 173.445312 551.980469 173.445312 563.460938 C 173.445312 575.058594 182.175781 583.183594 195.59375 583.871094 C 202.585938 584.195312 209.699219 583.546875 216.570312 584.316406 C 219.765625 584.679688 223.765625 586.941406 225.382812 589.488281 C 240.539062 614.953125 260.585938 635.566406 284.675781 652.417969 C 286.167969 653.550781 287.625 654.601562 289.363281 655.976562 C 286.855469 657.105469 284.3125 658.402344 281.886719 659.53125 C 271.578125 664.664062 261.71875 670.40625 252.21875 676.832031 C 247.613281 680.023438 243.042969 683.378906 238.679688 686.8125 C 236.292969 688.753906 233.75 691.058594 231.242188 693.242188 C 229.425781 694.816406 226.878906 696.109375 226.554688 698.617188 C 226.191406 701.726562 226.636719 705.246094 226.554688 708.476562 C 226.554688 715.226562 226.433594 722.015625 226.433594 728.886719 L 589.460938 728.886719 L 589.460938 699.988281 C 589.382812 699.789062 589.382812 699.546875 589.257812 699.425781 C 587.964844 697.121094 585.703125 695.867188 583.761719 694.046875 " fill-opacity="1" fill-rule="nonzero"/></g></svg>