<svg xmlns="http://www.w3.org/2000/svg" xmlns:xlink="http://www.w3.org/1999/xlink" width="1080" zoomAndPan="magnify" viewBox="0 0 810 809.999993" height="1080" preserveAspectRatio="xMidYMid meet" version="1.0"><path fill="#000000" d="M 654.472656 439.925781 C 637.296875 425.824219 617.167969 414.789062 598.0625 403.644531 C 588.167969 397.960938 578.160156 392.273438 568.039062 386.929688 C 579.980469 372.941406 591.011719 358.382812 601.246094 342.917969 C 623.992188 308.34375 650.148438 259.667969 619.898438 221.34375 C 605.910156 203.488281 583.960938 199.507812 563.035156 206.332031 C 540.519531 213.722656 519.25 227.03125 498.78125 238.628906 C 488.546875 244.429688 478.421875 250.570312 468.300781 256.824219 C 468.300781 256.824219 468.300781 256.824219 468.1875 256.710938 C 461.136719 237.378906 452.835938 218.386719 443.054688 199.847656 C 424.175781 164.59375 395.519531 122.058594 349.457031 128.429688 C 320.117188 132.523438 309.882812 155.039062 306.242188 180.402344 C 302.71875 179.945312 299.078125 180.058594 295.667969 180.96875 C 284.292969 183.925781 279.0625 194.730469 277.8125 205.761719 C 276.675781 216.453125 284.519531 225.097656 293.277344 229.984375 C 296.691406 231.917969 300.441406 233.511719 304.308594 234.648438 C 304.308594 252.957031 304.765625 271.382812 305.789062 289.804688 C 292.140625 286.847656 278.609375 284.347656 264.960938 281.960938 C 241.761719 277.980469 216.628906 272.40625 192.859375 274.113281 C 172.617188 275.589844 151.234375 284.234375 141 303 C 129.96875 323.355469 137.246094 346.214844 149.984375 363.839844 C 174.09375 397.050781 212.078125 421.386719 246.765625 442.3125 C 240.851562 448.910156 235.050781 455.617188 229.476562 462.328125 C 226.75 465.511719 224.019531 468.8125 221.289062 472.109375 C 220.492188 471.652344 219.8125 471.3125 219.015625 470.972656 C 210.144531 467.21875 199.339844 466.308594 190.46875 470.402344 C 180.234375 474.953125 174.433594 487.917969 178.527344 498.492188 C 180.804688 504.292969 185.011719 509.410156 189.558594 513.960938 C 188.421875 515.78125 187.285156 517.597656 186.261719 519.417969 C 175.570312 538.523438 170.910156 563.089844 182.625 582.992188 C 193.199219 600.734375 213.554688 607.101562 233.230469 606.417969 C 253.246094 605.738281 272.921875 599.597656 291.457031 592.316406 C 312.382812 584.128906 332.855469 574.460938 352.644531 563.886719 C 354.460938 562.863281 356.28125 561.953125 358.101562 560.929688 C 362.765625 574.460938 367.769531 587.882812 373 601.074219 C 381.871094 623.476562 390.058594 648.382812 406.320312 666.582031 C 419.855469 681.707031 441.691406 691.488281 461.933594 685.230469 C 479.789062 679.773438 491.273438 664.078125 498.324219 647.589844 C 512.542969 614.722656 515.382812 575.941406 516.179688 539.777344 C 530.738281 542.050781 545.40625 543.757812 560.191406 544.4375 C 563.375 554.675781 571.453125 563.429688 581.574219 567.183594 C 596.015625 572.527344 613.871094 565.25 619.671875 550.695312 C 619.785156 550.695312 619.785156 550.695312 619.785156 550.578125 C 622.285156 547.167969 623.652344 543.414062 623.878906 539.546875 C 649.238281 532.839844 671.1875 518.394531 676.421875 489.621094 C 679.71875 469.492188 669.597656 452.207031 654.472656 439.925781 Z M 368.90625 533.066406 C 364.8125 520.441406 360.945312 507.707031 357.304688 494.96875 C 373.796875 501.109375 390.398438 506.910156 407.003906 512.253906 C 394.265625 519.078125 381.53125 526.128906 368.90625 533.066406 Z M 323.414062 313.347656 C 339.109375 316.988281 354.804688 321.082031 370.269531 325.402344 C 356.167969 336.546875 342.292969 348.148438 328.761719 360.089844 C 326.484375 344.507812 324.78125 328.929688 323.414062 313.347656 Z M 479.789062 332.792969 C 481.039062 337.230469 482.175781 341.664062 483.199219 346.214844 C 458.40625 335.636719 433.273438 326.199219 407.800781 317.667969 C 425.542969 304.136719 443.738281 291.285156 462.503906 279.230469 C 469.210938 296.855469 474.898438 314.824219 479.789062 332.792969 Z M 488.089844 366.457031 C 492.183594 384.425781 495.824219 402.394531 499.347656 420.476562 C 499.464844 427.753906 499.347656 435.035156 499.121094 442.425781 C 499.121094 442.425781 499.121094 442.425781 499.121094 442.539062 C 480.015625 460.851562 460 478.136719 439.757812 495.308594 C 433.160156 498.949219 426.449219 502.359375 419.742188 505.773438 C 397.679688 499.402344 375.84375 492.011719 354.234375 484.390625 C 345.023438 450.613281 337.632812 416.496094 331.945312 382.039062 C 350.824219 364.410156 370.269531 347.578125 390.398438 331.542969 C 423.609375 341.324219 456.246094 352.925781 488.089844 366.457031 Z M 332.285156 473.246094 C 313.519531 461.875 295.210938 449.363281 276.332031 438.21875 C 276.21875 438.105469 276.105469 438.105469 275.992188 437.992188 C 289.296875 423.660156 302.945312 409.671875 316.933594 396.140625 C 321.027344 422.183594 326.144531 447.886719 332.285156 473.246094 Z M 498.78125 456.753906 C 498.210938 471.3125 497.644531 485.757812 497.644531 500.199219 C 497.644531 507.820312 497.644531 515.4375 497.414062 523.058594 C 476.375 519.761719 455.566406 515.210938 435.207031 509.867188 C 456.929688 492.808594 478.195312 475.292969 498.78125 456.753906 Z M 499.234375 371.234375 C 514.929688 378.058594 530.28125 385.335938 545.523438 393.183594 C 534.261719 406.601562 522.4375 419.453125 510.039062 431.851562 C 506.855469 411.492188 503.328125 391.25 499.234375 371.234375 Z M 526.53125 241.132812 C 544.382812 231.351562 568.378906 214.519531 589.761719 219.070312 C 608.414062 223.164062 617.964844 244.089844 618.078125 261.601562 C 618.191406 283.890625 606.707031 304.476562 595.675781 323.015625 C 583.847656 342.917969 570.429688 362.136719 555.871094 380.445312 C 535.855469 369.984375 515.5 360.203125 494.914062 351.21875 C 493.777344 346.101562 492.527344 340.867188 491.273438 335.75 C 486.15625 314.257812 480.355469 292.992188 473.417969 272.292969 C 490.820312 261.261719 508.449219 251.027344 526.53125 241.132812 Z M 320.800781 275.476562 C 320.230469 262.171875 320.003906 248.976562 319.890625 235.785156 C 322.621094 234.988281 325.234375 233.738281 327.625 231.804688 C 336.722656 227.824219 344.910156 219.183594 342.066406 208.492188 C 340.816406 203.828125 338.085938 199.621094 334.902344 196.097656 C 333.308594 194.390625 331.605469 192.796875 329.785156 191.433594 C 329.214844 190.976562 328.535156 190.523438 327.851562 189.953125 L 327.394531 189.5 C 327.167969 189.273438 326.828125 189.042969 326.601562 188.929688 C 325.578125 188.136719 324.554688 187.453125 323.414062 186.769531 C 322.621094 186.203125 321.824219 185.746094 320.914062 185.292969 C 321.824219 172.667969 324.667969 160.042969 333.765625 151.742188 C 347.640625 139.117188 369.929688 142.191406 384.714844 151.289062 C 395.0625 157.542969 403.363281 166.414062 410.300781 176.195312 C 410.414062 176.308594 410.414062 176.421875 410.53125 176.421875 C 403.023438 172.214844 395.175781 168.347656 387.214844 165.046875 C 385.28125 164.253906 383.917969 167.550781 385.851562 168.347656 C 395.289062 172.554688 404.503906 177.558594 413.144531 183.246094 C 414.625 184.15625 415.988281 185.292969 417.464844 186.316406 C 419.742188 189.839844 421.902344 193.480469 423.949219 197.121094 C 431.570312 210.085938 438.621094 223.390625 444.988281 237.152344 C 444.988281 237.152344 444.988281 237.265625 445.101562 237.265625 C 443.394531 236.011719 441.804688 234.761719 440.097656 233.511719 C 426.679688 224.074219 412.460938 216.339844 397.109375 210.652344 C 396.3125 210.3125 395.746094 211.675781 396.542969 212.132812 C 410.414062 219.410156 424.0625 227.597656 436.800781 236.921875 C 441.347656 240.222656 445.671875 243.746094 449.878906 247.386719 C 452.378906 252.84375 454.65625 258.417969 456.929688 263.992188 C 433.617188 278.773438 410.757812 294.695312 388.695312 311.414062 C 371.066406 305.957031 353.210938 301.066406 335.355469 296.628906 C 331.035156 295.492188 326.601562 294.46875 322.277344 293.445312 C 321.480469 287.417969 321.140625 281.390625 320.800781 275.476562 Z M 241.761719 417.066406 C 241.648438 417.066406 241.648438 416.953125 241.53125 416.953125 C 240.851562 416.15625 240.054688 415.472656 239.371094 414.675781 C 236.871094 411.949219 234.367188 409.21875 232.09375 406.375 C 227.203125 400.347656 222.65625 394.09375 218.445312 387.496094 C 210.484375 374.875 203.890625 361.339844 197.292969 348.035156 C 197.066406 347.578125 196.496094 347.921875 196.613281 348.375 C 199.339844 363.726562 205.480469 377.828125 213.671875 391.136719 C 216.398438 395.570312 219.355469 399.777344 222.3125 403.988281 C 211.507812 396.480469 201.046875 388.40625 191.152344 379.878906 C 188.652344 377.714844 186.261719 375.554688 183.761719 373.28125 C 181.714844 367.9375 179.894531 362.589844 178.1875 357.132812 C 174.664062 345.757812 172.273438 333.816406 170.113281 322.105469 C 169.886719 320.851562 167.953125 321.195312 167.953125 322.445312 C 167.382812 334.839844 169.089844 346.78125 172.046875 358.835938 C 172.386719 360.203125 172.84375 361.453125 173.183594 362.703125 C 167.15625 355.996094 161.925781 348.828125 158.171875 340.753906 C 149.300781 321.195312 158.398438 303.113281 178.300781 296.175781 C 199.113281 289.011719 223.90625 294.921875 245.058594 298.109375 C 265.871094 301.292969 286.570312 305.160156 307.039062 309.707031 C 308.632812 331.089844 310.792969 352.582031 313.75 373.847656 C 301.125 385.335938 288.957031 397.164062 277.128906 409.332031 C 271.101562 415.472656 265.1875 421.726562 259.5 428.097656 C 253.472656 424.457031 247.5625 420.820312 241.761719 417.066406 Z M 266.554688 580.601562 C 251.65625 585.265625 234.824219 589.359375 219.242188 586.289062 C 198.089844 582.082031 190.8125 561.839844 196.496094 542.503906 C 198.316406 536.589844 200.820312 530.90625 204.003906 525.445312 C 207.984375 527.378906 212.304688 528.628906 216.96875 528.402344 C 234.253906 527.605469 239.601562 508.386719 236.527344 493.945312 C 236.527344 493.714844 236.527344 493.488281 236.414062 493.375 C 235.960938 490.761719 235.277344 488.257812 234.253906 485.871094 C 243.695312 474.269531 253.246094 463.125 263.140625 451.980469 C 270.53125 456.300781 277.925781 460.28125 285.542969 464.035156 C 285.542969 464.945312 286 465.855469 287.023438 466.308594 C 303.058594 473.359375 319.320312 480.070312 335.699219 486.550781 C 339.335938 500.996094 343.429688 515.4375 347.753906 529.652344 C 349.003906 533.976562 350.367188 538.183594 351.847656 542.390625 C 324.554688 557.402344 296.234375 571.503906 266.554688 580.601562 Z M 433.273438 663.738281 C 413.488281 653.273438 405.183594 629.734375 397.109375 610.285156 C 389.035156 590.726562 381.644531 570.9375 374.820312 551.035156 C 381.53125 547.167969 388.125 543.074219 394.722656 538.753906 C 395.519531 539.207031 396.542969 539.320312 397.335938 538.636719 C 406.550781 531.816406 415.875 524.878906 424.972656 517.941406 C 425.425781 518.054688 425.769531 518.167969 426.222656 518.394531 C 449.652344 525.445312 473.304688 531.703125 497.1875 536.363281 C 497.074219 541.027344 496.960938 545.691406 496.621094 550.351562 C 496.621094 550.351562 496.621094 550.464844 496.621094 550.464844 C 494.117188 556.378906 491.160156 562.292969 487.75 567.753906 C 485.929688 570.710938 483.882812 573.4375 481.722656 576.167969 C 481.722656 576.054688 481.609375 575.941406 481.496094 575.941406 C 481.152344 575.941406 481.152344 576.394531 481.378906 576.507812 C 475.46875 583.902344 468.757812 590.609375 462.617188 597.777344 C 462.273438 598.117188 462.617188 598.914062 463.183594 598.6875 C 475.808594 593.566406 485.359375 582.765625 492.980469 571.847656 C 493.890625 570.480469 494.6875 569.117188 495.484375 567.753906 C 495.484375 567.753906 495.484375 567.867188 495.484375 567.867188 C 495.597656 567.980469 495.484375 567.980469 495.484375 567.980469 C 494.574219 579.351562 493.09375 590.726562 491.046875 601.984375 C 488.316406 607.785156 485.019531 613.46875 481.265625 618.585938 C 473.417969 629.390625 463.070312 638.261719 452.949219 646.90625 C 452.496094 647.246094 452.949219 648.042969 453.519531 647.816406 C 466.9375 643.492188 477.628906 634.167969 486.382812 623.25 C 478.765625 649.40625 463.070312 679.546875 433.273438 663.738281 Z M 645.941406 511.800781 C 638.4375 518.621094 629.335938 522.832031 619.558594 525.445312 C 618.304688 523.511719 616.601562 521.695312 614.78125 520.101562 C 606.363281 512.9375 594.765625 508.730469 583.621094 509.523438 C 578.273438 509.980469 572.929688 511.230469 568.378906 514.1875 C 562.921875 517.828125 559.738281 523.058594 558.714844 529.3125 C 544.5 528.746094 530.28125 527.605469 516.179688 525.902344 L 516.179688 525.445312 C 516.292969 510.320312 516.066406 495.308594 515.15625 480.183594 C 515.953125 479.613281 516.523438 478.933594 516.40625 477.796875 C 515.042969 466.765625 513.566406 455.617188 511.972656 444.585938 C 527.324219 430.371094 541.996094 415.816406 555.984375 400.460938 C 556.894531 401.257812 557.917969 402.054688 558.828125 402.851562 C 564.058594 407.738281 568.949219 413.085938 573.613281 418.542969 C 582.9375 429.234375 590.898438 441.402344 597.949219 453.800781 C 598.632812 454.9375 600.566406 454.140625 600.109375 452.890625 C 597.722656 445.953125 594.992188 439.128906 591.238281 432.757812 C 587.488281 426.277344 583.164062 420.136719 578.617188 414.335938 C 576.796875 411.949219 574.75 409.671875 572.703125 407.398438 C 572.703125 407.398438 572.816406 407.398438 572.816406 407.398438 C 583.390625 413.085938 593.628906 419.113281 603.863281 425.253906 C 608.640625 430.371094 613.1875 435.832031 617.625 441.402344 C 626.835938 453.117188 635.023438 465.855469 642.300781 478.820312 C 642.871094 479.726562 644.464844 479.160156 644.007812 478.136719 C 638.4375 463.921875 631.269531 450.957031 622.285156 438.671875 C 621.148438 437.082031 619.898438 435.714844 618.761719 434.125 C 618.761719 434.125 618.875 434.238281 618.875 434.238281 C 631.726562 441.742188 645.144531 450.046875 654.128906 461.417969 C 667.09375 477.910156 660.386719 498.605469 645.941406 511.800781 Z M 645.941406 511.800781 " fill-opacity="1" fill-rule="nonzero"/><path fill="#000000" d="M 420.652344 447.089844 C 423.722656 447.773438 426.90625 448 429.976562 447.542969 C 433.617188 446.976562 437.484375 444.132812 439.757812 441.402344 C 444.761719 435.714844 446.921875 428.894531 447.148438 421.386719 C 447.605469 407.058594 440.554688 392.386719 429.066406 383.859375 C 416.898438 374.875 398.703125 374.875 386.648438 384.085938 C 375.160156 392.957031 370.042969 408.308594 373.339844 422.296875 C 377.890625 442.085938 401.546875 456.984375 420.652344 447.089844 Z M 391.765625 395.796875 C 393.699219 393.867188 394.835938 393.183594 397.679688 391.589844 C 398.472656 391.136719 398.929688 391.023438 400.523438 390.566406 C 401.203125 390.339844 401.886719 390.226562 402.683594 390 C 403.023438 389.886719 403.25 389.886719 403.59375 389.769531 C 403.820312 389.769531 403.933594 389.65625 404.046875 389.65625 C 404.046875 389.65625 404.160156 389.65625 404.160156 389.65625 C 407.230469 389.316406 410.414062 389.429688 413.03125 390 C 414.28125 390.226562 415.535156 390.679688 416.785156 391.023438 C 417.695312 391.363281 416.671875 390.910156 417.808594 391.476562 C 418.488281 391.816406 419.171875 392.160156 419.855469 392.613281 C 422.355469 394.09375 423.039062 394.660156 425.3125 396.9375 C 425.769531 397.390625 426.222656 397.960938 426.679688 398.527344 C 427.472656 399.4375 426.792969 398.640625 427.359375 399.324219 C 428.15625 400.460938 428.953125 401.597656 429.523438 402.851562 C 429.863281 403.417969 430.203125 404.101562 430.429688 404.78125 C 431 406.035156 430.546875 404.78125 430.886719 405.691406 C 431.339844 406.945312 431.796875 408.308594 432.25 409.671875 C 432.59375 411.039062 432.933594 412.402344 433.160156 413.765625 C 433.160156 413.996094 433.160156 413.996094 433.273438 414.109375 C 433.273438 414.222656 433.273438 414.222656 433.273438 414.335938 C 433.386719 415.132812 433.386719 415.929688 433.503906 416.722656 C 433.617188 418.316406 433.503906 419.792969 433.386719 421.386719 C 433.386719 421.726562 433.273438 421.957031 433.273438 422.296875 C 433.273438 422.296875 433.273438 422.410156 433.273438 422.410156 C 433.160156 423.09375 433.046875 423.660156 432.820312 424.34375 C 432.59375 425.027344 432.476562 425.824219 432.25 426.503906 C 432.136719 426.730469 431.910156 427.527344 431.683594 427.984375 C 431.453125 428.4375 431 429.460938 431.113281 429.460938 C 431.113281 429.574219 431 429.917969 430.886719 430.144531 C 430.773438 430.484375 430.316406 431.394531 430.203125 431.621094 C 429.523438 432.875 428.726562 434.011719 427.929688 435.148438 C 427.816406 435.375 427.132812 436.285156 427.132812 436.398438 C 426.679688 436.96875 426.222656 437.421875 425.769531 437.878906 C 423.722656 440.265625 422.355469 442.765625 420.082031 444.929688 C 411.4375 444.816406 402.683594 440.378906 395.972656 435.261719 C 393.8125 433.667969 390.855469 430.828125 389.71875 429.234375 C 388.921875 428.097656 388.125 426.960938 387.441406 425.824219 C 387.101562 425.140625 386.761719 424.570312 386.417969 423.890625 C 386.417969 423.890625 386.304688 423.660156 386.191406 423.433594 C 386.078125 423.207031 385.851562 422.410156 385.851562 422.410156 C 382.667969 412.972656 384.828125 402.621094 391.765625 395.796875 Z M 391.765625 395.796875 " fill-opacity="1" fill-rule="nonzero"/><path fill="#000000" d="M 634 317.101562 C 631.5 321.308594 628.65625 325.402344 625.585938 329.15625 C 622.742188 332.679688 619.328125 335.863281 616.714844 339.617188 C 614.554688 342.800781 618.761719 346.78125 621.945312 344.847656 C 629.90625 339.84375 636.160156 329.953125 640.710938 321.875 C 645.714844 313.121094 649.46875 303.453125 651.855469 293.671875 C 656.632812 274 655.835938 253.1875 649.238281 233.964844 C 647.988281 230.554688 642.644531 231.917969 643.667969 235.445312 C 649.351562 253.640625 649.695312 273.203125 644.691406 291.625 C 642.1875 300.609375 638.664062 309.140625 634 317.101562 Z M 634 317.101562 " fill-opacity="1" fill-rule="nonzero"/><path fill="#000000" d="M 610.574219 353.152344 C 610.003906 353.378906 609.4375 353.492188 608.867188 353.71875 C 607.730469 354.175781 607.160156 354.972656 606.480469 355.996094 C 605.683594 357.132812 604.886719 358.269531 604.203125 359.40625 C 602.726562 361.792969 601.132812 364.070312 599.429688 366.230469 C 597.609375 368.503906 595.5625 370.4375 593.742188 372.597656 C 591.808594 374.757812 589.761719 376.921875 587.601562 378.855469 C 586.578125 379.761719 587.941406 381.242188 589.078125 380.785156 C 591.808594 379.535156 594.425781 378.058594 596.925781 376.464844 C 599.542969 374.875 601.816406 372.597656 603.976562 370.4375 C 606.25 368.164062 608.296875 365.773438 610.117188 363.273438 C 611.027344 362.136719 611.710938 360.886719 612.390625 359.632812 C 612.960938 358.722656 613.417969 357.8125 613.300781 356.675781 C 613.300781 355.878906 612.960938 355.199219 612.847656 354.402344 C 612.507812 353.492188 611.484375 352.925781 610.574219 353.152344 Z M 610.574219 353.152344 " fill-opacity="1" fill-rule="nonzero"/><path fill="#000000" d="M 419.742188 146.511719 C 422.8125 148.671875 425.65625 151.058594 428.382812 153.5625 C 433.730469 158.453125 438.847656 163.796875 443.167969 169.710938 C 451.8125 181.539062 456.816406 195.1875 463.070312 208.265625 C 463.296875 208.71875 463.980469 208.492188 463.980469 208.035156 C 464.777344 192.796875 457.5 178.011719 448.96875 165.730469 C 444.648438 159.363281 439.644531 153.335938 433.84375 148.21875 C 431.113281 145.714844 428.269531 143.441406 425.3125 141.28125 C 422.46875 139.117188 418.605469 135.707031 414.964844 135.140625 C 412.460938 134.796875 409.164062 137.414062 411.210938 140.027344 C 413.371094 142.871094 416.898438 144.464844 419.742188 146.511719 Z M 419.742188 146.511719 " fill-opacity="1" fill-rule="nonzero"/><path fill="#000000" d="M 383.007812 122.515625 C 384.828125 122.742188 386.535156 123.199219 388.238281 123.765625 C 390.058594 124.449219 391.878906 124.789062 393.699219 125.472656 C 394.496094 125.8125 394.609375 125.8125 395.632812 126.382812 C 396.425781 126.835938 397.335938 127.292969 398.132812 127.746094 C 398.472656 127.972656 398.929688 128.085938 399.269531 128.316406 C 399.5 128.429688 399.613281 128.542969 399.382812 128.316406 C 399.953125 128.542969 400.523438 128.882812 401.089844 129.109375 C 402.226562 129.453125 403.25 129.109375 404.273438 128.769531 C 404.957031 128.542969 405.296875 127.972656 405.410156 127.292969 C 405.527344 126.269531 405.527344 125.128906 404.957031 124.222656 C 404.273438 123.199219 402.910156 122.058594 401.886719 121.492188 C 399.953125 120.46875 397.792969 119.671875 395.632812 119.21875 C 393.699219 118.761719 391.421875 118.195312 389.375 118.421875 C 387.214844 118.648438 385.167969 119.101562 383.121094 119.785156 C 381.757812 120.125 381.414062 122.289062 383.007812 122.515625 Z M 383.007812 122.515625 " fill-opacity="1" fill-rule="nonzero"/><path fill="#000000" d="M 296.460938 599.253906 C 289.070312 600.621094 282.589844 604.144531 275.535156 606.53125 C 268.144531 609.035156 260.640625 610.742188 252.90625 611.992188 C 245.171875 613.242188 237.4375 614.039062 229.59375 614.835938 C 222.085938 615.515625 214.582031 615.972656 207.414062 618.359375 C 206.960938 618.472656 206.960938 619.15625 207.414062 619.269531 C 214.921875 621.316406 222.65625 621.316406 230.386719 621.089844 C 238.578125 620.863281 246.765625 620.292969 254.839844 619.042969 C 262.800781 617.90625 270.648438 616.085938 278.265625 613.582031 C 285.773438 611.082031 293.050781 608.464844 298.167969 602.097656 C 299.304688 600.847656 298.28125 598.914062 296.460938 599.253906 Z M 296.460938 599.253906 " fill-opacity="1" fill-rule="nonzero"/><path fill="#000000" d="M 326.828125 587.769531 C 324.4375 589.472656 321.9375 591.066406 319.320312 592.316406 C 318.753906 592.660156 318.070312 592.886719 317.5 593.226562 C 317.160156 593.339844 316.820312 593.566406 316.476562 593.683594 C 316.476562 593.683594 316.363281 593.683594 316.363281 593.683594 C 316.25 593.683594 315.796875 593.910156 315.910156 593.910156 C 315.113281 594.25 314.203125 594.476562 313.40625 594.933594 C 312.726562 595.273438 312.15625 595.730469 311.589844 596.070312 C 310.449219 596.753906 308.632812 598.457031 308.859375 600.050781 C 309.085938 601.757812 311.816406 602.324219 313.292969 602.210938 C 314.089844 602.097656 314.773438 601.984375 315.570312 601.871094 C 316.59375 601.644531 317.5 601.300781 318.410156 600.847656 C 319.777344 600.164062 321.027344 599.480469 322.277344 598.800781 C 325.234375 597.09375 328.078125 595.046875 330.808594 592.773438 C 331.945312 591.75 331.945312 589.816406 331.035156 588.679688 C 330.011719 587.539062 328.078125 586.859375 326.828125 587.769531 Z M 326.828125 587.769531 " fill-opacity="1" fill-rule="nonzero"/><path fill="#000000" d="M 527.324219 583.675781 C 528.691406 598.800781 527.097656 614.152344 522.890625 628.710938 C 520.84375 636.101562 518 643.265625 514.476562 650.089844 C 511.632812 655.664062 505.605469 662.03125 505.605469 668.398438 C 505.605469 669.308594 506.515625 669.992188 507.308594 669.652344 C 513.90625 667.605469 517.660156 658.390625 520.503906 652.707031 C 524.027344 645.542969 526.984375 638.035156 529.03125 630.300781 C 533.238281 614.835938 533.808594 598.800781 531.417969 582.992188 C 530.964844 580.832031 527.097656 581.398438 527.324219 583.675781 Z M 527.324219 583.675781 " fill-opacity="1" fill-rule="nonzero"/><path fill="#000000" d="M 497.644531 675.449219 C 496.960938 675.449219 496.164062 675.449219 495.484375 675.449219 C 494.6875 675.449219 494.003906 675.679688 493.207031 675.90625 C 492.296875 676.132812 491.386719 676.359375 490.59375 676.816406 C 489.910156 677.15625 489.226562 677.496094 488.546875 677.839844 C 487.179688 678.523438 485.929688 679.203125 484.566406 679.886719 C 484.222656 680 483.882812 680.226562 483.65625 680.339844 C 483.085938 680.683594 482.632812 681.136719 482.175781 681.707031 C 481.722656 682.273438 481.378906 682.84375 480.925781 683.296875 C 480.128906 684.320312 481.152344 685.800781 482.402344 685.800781 C 483.085938 685.800781 483.882812 685.800781 484.566406 685.800781 C 485.589844 685.800781 486.382812 685.34375 487.40625 684.890625 C 488.773438 684.207031 490.136719 683.527344 491.617188 682.84375 C 492.296875 682.5 492.980469 682.273438 493.664062 681.820312 C 494.34375 681.476562 494.914062 680.910156 495.484375 680.453125 C 496.277344 679.886719 496.960938 679.316406 497.53125 678.636719 C 497.984375 678.066406 498.324219 677.496094 498.78125 677.042969 C 499.121094 676.472656 498.4375 675.449219 497.644531 675.449219 Z M 497.644531 675.449219 " fill-opacity="1" fill-rule="nonzero"/><path fill="#000000" d="M 593.398438 242.15625 C 594.195312 244.996094 595.449219 247.726562 596.242188 250.570312 C 597.722656 256.144531 598.632812 261.941406 598.519531 267.855469 C 598.519531 269.449219 599.429688 270.8125 600.679688 271.609375 C 602.15625 272.519531 603.636719 272.40625 605.113281 271.609375 C 606.480469 270.925781 607.273438 269.335938 607.273438 267.855469 C 607.273438 261.148438 606.25 254.4375 603.863281 248.183594 C 602.613281 244.996094 601.359375 241.699219 599.199219 239.085938 C 598.289062 237.832031 597.265625 236.695312 596.128906 235.558594 C 594.992188 234.421875 593.96875 233.738281 592.375 233.285156 C 591.808594 233.058594 591.238281 233.625 591.238281 234.082031 C 591.238281 235.671875 591.46875 236.808594 592.035156 238.289062 C 592.605469 239.539062 593.058594 240.902344 593.398438 242.15625 Z M 593.398438 242.15625 " fill-opacity="1" fill-rule="nonzero"/><path fill="#000000" d="M 418.832031 406.261719 C 418.945312 407.285156 419.171875 408.082031 419.398438 408.992188 C 419.515625 409.332031 419.628906 409.785156 419.628906 410.128906 C 419.628906 410.355469 419.742188 410.46875 419.742188 410.695312 C 419.742188 410.808594 419.742188 410.808594 419.742188 410.808594 C 419.855469 412.402344 419.96875 413.996094 419.96875 415.585938 C 419.96875 416.042969 419.96875 416.382812 419.855469 416.722656 C 419.855469 416.953125 419.855469 417.066406 419.855469 417.292969 C 419.742188 418.089844 419.515625 418.886719 419.285156 419.679688 C 418.832031 421.5 419.96875 423.773438 421.789062 424.230469 C 423.609375 424.683594 425.882812 423.660156 426.335938 421.726562 C 426.335938 421.613281 426.335938 421.5 426.449219 421.386719 C 426.449219 421.386719 426.449219 421.273438 426.449219 421.273438 C 427.359375 417.40625 427.476562 413.425781 426.222656 409.671875 C 425.542969 407.738281 424.859375 405.578125 423.378906 404.214844 C 422.128906 402.964844 420.652344 401.941406 419.171875 400.917969 C 418.261719 400.347656 417.464844 401.484375 417.808594 402.28125 C 418.492188 403.53125 418.71875 404.898438 418.832031 406.261719 Z M 425.085938 417.519531 C 424.972656 417.519531 424.972656 417.40625 424.859375 417.40625 C 425.3125 417.519531 425.3125 417.632812 425.085938 417.519531 Z M 424.0625 416.953125 C 423.949219 416.953125 423.835938 416.953125 423.722656 416.953125 C 423.378906 416.839844 423.378906 416.722656 424.0625 416.953125 Z M 424.0625 416.953125 " fill-opacity="1" fill-rule="nonzero"/></svg>