<svg xmlns="http://www.w3.org/2000/svg" xmlns:xlink="http://www.w3.org/1999/xlink" width="1080" zoomAndPan="magnify" viewBox="0 0 810 809.999993" height="1080" preserveAspectRatio="xMidYMid meet" version="1.0"><defs><clipPath id="497d961ef0"><path d="M 179.472656 66.496094 L 630.222656 66.496094 L 630.222656 743.746094 L 179.472656 743.746094 Z M 179.472656 66.496094 " clip-rule="nonzero"/></clipPath></defs><g clip-path="url(#497d961ef0)"><path fill="#000000" d="M 467.203125 217.113281 C 446.167969 172.746094 401.089844 141.910156 348.503906 141.910156 L 179.472656 141.910156 L 179.472656 66.707031 L 630.222656 66.707031 L 630.222656 141.910156 L 507.769531 141.910156 C 525.796875 163.71875 539.320312 189.289062 547.210938 217.113281 L 630.222656 217.113281 L 630.222656 292.316406 L 554.347656 292.316406 C 544.957031 397.601562 456.308594 480.324219 348.503906 480.324219 L 321.082031 480.324219 L 573.878906 743.535156 L 469.832031 743.535156 L 217.035156 480.324219 L 217.035156 405.121094 L 348.503906 405.121094 C 414.613281 405.121094 469.453125 356.242188 478.46875 292.316406 L 179.472656 292.316406 L 179.472656 217.113281 Z M 467.203125 217.113281 " fill-opacity="1" fill-rule="nonzero"/></g></svg>