<svg xmlns="http://www.w3.org/2000/svg" xmlns:xlink="http://www.w3.org/1999/xlink" width="1080" zoomAndPan="magnify" viewBox="0 0 810 809.999993" height="1080" preserveAspectRatio="xMidYMid meet" version="1.0"><defs><clipPath id="96a4400b66"><path d="M 466 270 L 765.972656 270 L 765.972656 631 L 466 631 Z M 466 270 " clip-rule="nonzero"/></clipPath></defs><path fill="#000000" d="M 343.441406 552.714844 L 260.984375 308.308594 C 253.046875 283.5625 238.476562 255.1875 195.953125 255.1875 C 152.453125 255.1875 137.71875 285.574219 130.46875 308.246094 L 49.019531 552.59375 C 43.542969 568.441406 45.554688 585.289062 54.378906 597.699219 C 62.34375 608.894531 75.160156 615.316406 89.550781 615.316406 C 112.417969 615.316406 127.933594 602.292969 135.675781 576.453125 L 146.195312 540.289062 L 245.261719 540.289062 L 256.410156 576.976562 C 264.8125 602.425781 280.117188 615.316406 301.875 615.316406 C 316.429688 615.316406 328.914062 609.3125 337.03125 598.40625 C 346.019531 586.324219 348.46875 569.429688 343.441406 552.714844 Z M 170.398438 465.261719 L 195.96875 383.875 L 221.972656 465.261719 Z M 170.398438 465.261719 " fill-opacity="1" fill-rule="nonzero"/><g clip-path="url(#96a4400b66)"><path fill="#000000" d="M 642.796875 630.320312 C 540.429688 630.320312 466.125 554.484375 466.125 450.015625 C 466.125 345.820312 540.429688 270.191406 642.796875 270.191406 C 680.308594 270.191406 712.316406 278.882812 739.417969 297.546875 C 757.46875 310.015625 766.230469 324.210938 766.230469 340.945312 C 766.230469 363.601562 749.378906 380.664062 727.023438 380.664062 C 711.804688 380.664062 700.597656 373.804688 691.59375 368.285156 C 677.804688 359.503906 664.058594 354.492188 643.757812 354.492188 C 591.34375 354.492188 556.140625 392.890625 556.140625 450.015625 C 556.140625 507.429688 591.359375 546.007812 643.757812 546.007812 C 665.875 546.007812 677.609375 541.339844 691.535156 532.742188 C 700.253906 527.085938 711.445312 519.835938 726.542969 519.835938 C 748.792969 519.835938 766.230469 537.5 766.230469 560.050781 C 766.230469 576.976562 757.242188 591.203125 738.742188 603.550781 C 713.773438 621.003906 680.503906 630.320312 642.796875 630.320312 Z M 642.796875 630.320312 " fill-opacity="1" fill-rule="nonzero"/></g><path fill="#000000" d="M 396.199219 540.289062 L 316.503906 540.289062 C 290.171875 540.289062 271.054688 521.546875 271.054688 495.722656 L 271.054688 224.230469 C 271.054688 198.691406 290.171875 180.160156 316.503906 180.160156 L 388.082031 180.160156 C 498.65625 180.160156 521.867188 237.902344 521.867188 286.324219 C 521.867188 311.308594 512.476562 333.574219 494.980469 350.96875 C 524.601562 369.035156 541.152344 396.734375 541.152344 429.609375 C 541.152344 503.0625 492.382812 540.289062 396.199219 540.289062 Z M 361.972656 457.683594 L 400.777344 457.683594 C 445.507812 457.683594 449.214844 443.460938 449.214844 427.597656 C 449.214844 418.894531 449.214844 398.519531 400.265625 398.519531 L 361.972656 398.519531 Z M 361.085938 315.210938 L 391.261719 315.210938 C 425.804688 315.210938 431.445312 300.820312 431.445312 285.199219 C 431.445312 269.878906 427.171875 255.1875 386.191406 255.1875 L 361.085938 255.1875 Z M 361.085938 315.210938 " fill-opacity="1" fill-rule="nonzero"/></svg>