<svg xmlns="http://www.w3.org/2000/svg" xmlns:xlink="http://www.w3.org/1999/xlink" width="1080" zoomAndPan="magnify" viewBox="0 0 810 809.999993" height="1080" preserveAspectRatio="xMidYMid meet" version="1.0"><defs><clipPath id="38bf0719bc"><path d="M 112.464844 163.292969 L 697 163.292969 L 697 647.042969 L 112.464844 647.042969 Z M 112.464844 163.292969 " clip-rule="nonzero"/></clipPath></defs><g clip-path="url(#38bf0719bc)"><path fill="#000000" d="M 671.269531 163.597656 L 137.648438 163.597656 C 123.664062 163.597656 112.3125 174.957031 112.3125 188.953125 C 112.3125 203.046875 123.664062 214.304688 137.648438 214.304688 L 375.273438 214.304688 L 375.273438 289.25 C 350.449219 264.707031 316.296875 249.496094 278.703125 249.496094 C 202.804688 249.496094 141.195312 311.257812 141.195312 387.117188 C 141.195312 462.976562 202.804688 524.738281 278.703125 524.738281 C 316.296875 524.738281 350.449219 509.523438 375.273438 484.980469 L 375.273438 622.398438 C 375.273438 636.394531 386.523438 647.753906 400.609375 647.753906 C 414.59375 647.753906 425.941406 636.394531 425.941406 622.398438 L 425.941406 426.058594 C 435.164062 422.207031 441.445312 413.179688 441.445312 402.734375 C 441.445312 354.867188 480.457031 315.820312 528.277344 315.820312 C 576.210938 315.820312 615.121094 354.867188 615.121094 402.734375 C 615.121094 450.703125 576.210938 489.648438 528.277344 489.648438 C 514.292969 489.648438 502.945312 501.003906 502.945312 515 C 502.945312 528.996094 514.292969 540.355469 528.277344 540.355469 C 604.074219 540.355469 665.789062 478.59375 665.789062 402.734375 C 665.789062 326.875 604.085938 265.113281 528.289062 265.113281 C 487.652344 265.113281 451.070312 282.863281 425.941406 310.953125 L 425.941406 214.304688 L 671.269531 214.304688 C 685.253906 214.304688 696.605469 203.046875 696.605469 188.953125 C 696.605469 174.957031 685.253906 163.597656 671.269531 163.597656 Z M 278.703125 474.027344 C 230.78125 474.027344 191.859375 435.085938 191.859375 387.117188 C 191.859375 339.25 230.78125 300.203125 278.703125 300.203125 C 326.53125 300.203125 365.457031 339.25 365.457031 387.117188 C 365.445312 435.085938 326.53125 474.027344 278.703125 474.027344 Z M 278.703125 474.027344 " fill-opacity="1" fill-rule="nonzero"/></g></svg>