<svg xmlns="http://www.w3.org/2000/svg" xmlns:xlink="http://www.w3.org/1999/xlink" width="1080" zoomAndPan="magnify" viewBox="0 0 810 809.999993" height="1080" preserveAspectRatio="xMidYMid meet" version="1.0"><path fill="#000000" d="M 146.015625 478.6875 C 146.046875 478.691406 145.660156 479.777344 145.640625 479.835938 C 145.339844 480.585938 145.054688 481.339844 144.78125 482.101562 C 143.957031 484.402344 142.554688 487.785156 144.425781 489.949219 C 146.035156 491.808594 148.457031 492.707031 150.40625 494.128906 C 153.511719 496.398438 156.347656 499.410156 159.210938 501.9375 C 160.636719 503.195312 158.96875 505.367188 160.757812 506.878906 C 163.179688 508.921875 165.859375 510.921875 168.429688 512.789062 C 169.730469 513.734375 171.585938 514.703125 172.5 516.066406 C 174.804688 519.5 172.105469 523.875 171.824219 527.347656 C 171.714844 528.71875 173.972656 528.871094 174.25 530.257812 C 174.625 532.128906 173.558594 533.910156 174.097656 535.867188 C 175.410156 540.660156 182.503906 541.175781 186.457031 541.039062 C 187.136719 541.015625 187.824219 540.941406 188.476562 540.757812 C 193.679688 539.285156 189.628906 533.523438 189.734375 530.15625 C 189.808594 527.769531 191.238281 525.765625 190.203125 523.375 C 188.96875 520.535156 187.394531 517.582031 185.988281 514.804688 C 185.535156 513.90625 184.347656 512.945312 184.066406 512.015625 C 183.894531 511.433594 185.671875 511.054688 185.402344 510.515625 C 184.640625 508.996094 182.679688 507.683594 181.671875 506.242188 C 179.660156 503.371094 178.167969 500.207031 176.425781 497.179688 C 175.324219 495.265625 173.792969 493.421875 172.921875 491.394531 C 172.128906 489.554688 173.382812 487.601562 172.570312 485.703125 C 171.988281 484.347656 170.058594 484.316406 169.140625 483.234375 C 167.367188 481.148438 166.324219 476.792969 166.101562 474.148438 C 165.429688 466.011719 172.902344 460.800781 175.1875 453.570312 C 175.941406 451.175781 175.421875 446.578125 177.933594 445.144531 C 179.527344 444.234375 181.972656 446.1875 183.65625 446.257812 C 187.949219 446.441406 193.40625 443.171875 194.742188 438.992188 C 196.242188 434.285156 190.296875 431.125 189.328125 427.054688 C 188.765625 424.6875 192.46875 422.859375 191.039062 420.417969 C 189.945312 418.546875 187.128906 418.179688 185.492188 416.925781 C 183.179688 415.15625 181.78125 412.542969 178.957031 411.4375 C 170.40625 408.089844 161.359375 417.054688 154.597656 420.78125 C 149.113281 423.800781 142.570312 423.6875 137.023438 426.699219 C 128.085938 431.550781 121.492188 440.015625 116.707031 448.78125 C 114.875 452.136719 112.9375 455.511719 112.097656 459.277344 C 111.382812 462.492188 111.742188 465.648438 111.625 468.890625 " fill-opacity="1" fill-rule="nonzero"/><path fill="#000000" d="M 124.761719 442.648438 C 124.820312 442.894531 124.273438 442.785156 124.066406 442.921875 C 123.675781 443.179688 123.304688 443.472656 122.9375 443.761719 C 120.734375 445.472656 118.589844 447.257812 116.480469 449.082031 C 109.324219 455.285156 102.816406 461.496094 99.105469 470.394531 C 97.253906 474.832031 94.605469 480.441406 95.738281 485.371094 C 96.972656 490.726562 101.582031 495.054688 104.105469 499.867188 C 105.515625 502.546875 104.894531 505.644531 105.796875 508.457031 C 106.410156 510.371094 107.011719 512.292969 107.640625 514.203125 C 107.808594 514.707031 108.476562 515.734375 108.410156 516.261719 C 108.335938 516.867188 107.113281 517.328125 106.671875 517.550781 C 104.890625 518.449219 103.011719 519.15625 101.195312 519.984375 C 96.59375 522.089844 92.0625 524.390625 87.378906 526.3125 C 85.886719 526.925781 82.960938 527.691406 82.484375 529.539062 C 81.734375 532.421875 85.691406 535.945312 87.472656 537.753906 C 88.722656 539.027344 89.234375 541.378906 90.917969 542.113281 C 92.46875 542.792969 94.496094 542.253906 96.144531 542.449219 C 97.464844 542.601562 98.375 543.476562 99.617188 543.773438 C 102.101562 544.367188 106.289062 543.519531 108.726562 542.84375 C 109.753906 542.554688 110.980469 542.34375 111.542969 541.320312 C 113.289062 538.136719 106.4375 537.351562 104.785156 536.832031 C 103.714844 536.492188 101.8125 535.6875 103.21875 534.4375 C 104.558594 533.246094 106.816406 533.191406 108.464844 532.796875 C 114.59375 531.34375 121.480469 531.875 124.226562 525.078125 C 125.828125 521.117188 126.371094 515.703125 125.613281 511.484375 C 125.300781 509.726562 124.699219 508.03125 124.265625 506.304688 C 124.238281 506.207031 123.8125 504.753906 123.9375 504.714844 C 124.09375 504.660156 125.035156 505.546875 125.183594 505.644531 C 126.640625 506.605469 128.128906 507.503906 129.664062 508.332031 C 135.550781 511.511719 134.074219 516.351562 134.542969 522.0625 C 134.917969 526.652344 135.832031 531.246094 136.816406 535.738281 C 137.066406 536.882812 136.492188 539.597656 137.09375 540.480469 C 137.71875 541.394531 139.53125 541.527344 140.5 541.691406 C 144.199219 542.316406 147.488281 540.976562 151.105469 540.945312 C 153.984375 540.917969 157.238281 543.230469 159.988281 541.289062 C 162.304688 539.652344 161.328125 535.09375 159.015625 533.921875 C 157.054688 532.925781 154.648438 533.421875 152.601562 532.664062 C 151.523438 532.261719 150.554688 531.648438 150.375 530.425781 C 150.070312 528.335938 151.359375 526.296875 151.308594 524.191406 C 151.210938 520.328125 150.1875 516.542969 149.882812 512.695312 C 149.519531 508.105469 149.859375 502.789062 148.347656 498.363281 C 147.238281 495.117188 144.761719 492.222656 142.421875 489.777344 C 141.355469 488.664062 139.421875 487.417969 138.777344 485.992188 C 138.410156 485.179688 139.109375 484.320312 139.621094 483.761719 C 141.132812 482.117188 143.066406 480.828125 144.90625 479.585938 C 148.167969 477.386719 151.980469 475.914062 150.773438 471.289062 C 150.558594 470.472656 150.238281 469.6875 149.859375 468.9375 C 149.277344 467.796875 148.570312 466.71875 147.769531 465.71875 C 146.496094 464.132812 144.988281 462.78125 143.265625 461.699219 C 140.972656 460.257812 138.441406 459.28125 135.789062 458.757812 " fill-opacity="1" fill-rule="nonzero"/><path fill="#000000" d="M 243.199219 480.417969 C 243.253906 480.175781 242.765625 480.664062 242.570312 480.820312 C 242.144531 481.175781 241.738281 481.550781 241.34375 481.9375 C 240.292969 482.957031 239.273438 484.003906 238.199219 484.996094 C 234.839844 488.09375 231.328125 489.507812 228.511719 493.300781 C 226.589844 495.894531 224.15625 498.109375 223.148438 501.273438 C 222.367188 503.730469 222.675781 506.363281 222.25 508.890625 C 221.855469 511.234375 220.792969 513.539062 219.652344 515.605469 C 218.507812 517.675781 217.097656 519.8125 215.183594 521.242188 C 213.515625 522.484375 211.042969 523.304688 209.921875 525.136719 C 208.410156 527.609375 208.492188 531.996094 210.789062 534 C 213.066406 535.980469 216.261719 535.769531 218.710938 537.359375 C 221.261719 539.015625 222.441406 542.203125 224.933594 544.011719 C 227.179688 545.636719 229.554688 545.078125 232.132812 545.332031 C 234.980469 545.609375 237.214844 546.6875 240.160156 546.285156 C 242.640625 545.941406 249.3125 546.488281 249.882812 543.230469 C 250.449219 539.984375 246.902344 538.710938 244.574219 537.601562 C 241.082031 535.933594 235.863281 532.503906 233.945312 528.953125 C 229.984375 521.617188 239.730469 516.714844 243.484375 512.25 C 245.964844 509.296875 247.941406 505.949219 250.394531 502.976562 C 253.894531 498.734375 258.027344 495.117188 261.574219 490.945312 C 262.695312 489.621094 263.804688 486.753906 265.917969 486.878906 C 267.96875 486.996094 266.003906 491.550781 265.730469 492.367188 C 263.890625 497.851562 261.585938 503.621094 263.195312 509.460938 C 263.890625 511.984375 265.9375 513.796875 266.46875 516.386719 C 267.242188 520.164062 266.0625 524.058594 265.980469 527.847656 C 265.921875 530.425781 266.742188 532.976562 266.722656 535.578125 C 266.703125 538.035156 266.453125 540.53125 265.824219 542.917969 C 265.519531 544.082031 264.515625 545.8125 265.242188 547.007812 C 267.058594 549.988281 273.507812 547.492188 276.105469 547.402344 C 281.488281 547.214844 286.773438 548.121094 292.082031 548.121094 C 294.257812 548.121094 296.363281 547.371094 298.542969 547.371094 C 300.214844 547.371094 301.515625 548.273438 303.097656 548.515625 C 305.5625 548.894531 308.101562 548.03125 310.183594 546.746094 C 312.902344 545.074219 313.789062 542.773438 310.308594 540.984375 C 307.839844 539.71875 305.035156 539.300781 302.492188 538.230469 C 299.566406 537.003906 296.945312 535.191406 294.027344 533.972656 C 291.613281 532.96875 288.316406 532.785156 286.5 530.71875 C 285.117188 529.144531 284.898438 526.328125 284.582031 524.347656 C 283.585938 518.089844 284.914062 512.90625 285.484375 506.738281 C 285.949219 501.722656 285.707031 496.679688 286.109375 491.675781 C 286.378906 488.320312 287.433594 484.996094 287.070312 481.597656 C 286.742188 478.554688 283.617188 476.628906 282.410156 473.871094 C 279.722656 467.730469 278.152344 461.175781 276.753906 454.652344 C 276.246094 452.289062 275.925781 449.917969 275.851562 447.5 C 275.792969 445.730469 275.996094 443.792969 275.136719 442.171875 C 274.066406 440.136719 271.386719 439.195312 269.3125 438.636719 C 264.234375 437.273438 257.84375 437.457031 254.015625 441.523438 " fill-opacity="1" fill-rule="nonzero"/><path fill="#000000" d="M 273.597656 445.429688 C 273.640625 445.601562 273.945312 445.289062 274.117188 445.316406 C 274.738281 445.421875 275.371094 445.707031 275.925781 445.992188 C 276.996094 446.542969 277.550781 448.042969 278.027344 449.082031 C 279 451.207031 277.703125 452.699219 278.167969 454.78125 C 278.480469 456.164062 279.929688 457.273438 280.78125 458.320312 C 282.050781 459.875 283.171875 461.6875 284.332031 463.328125 C 284.699219 463.847656 284.773438 464.683594 285.289062 465.066406 C 288.964844 467.796875 295.109375 462.898438 295.691406 459.363281 C 296.863281 452.28125 291.484375 447.460938 287.429688 442.6875 C 285.535156 440.457031 284.113281 437.90625 282.300781 435.621094 C 280.757812 433.675781 278.433594 431.804688 277.78125 429.292969 C 277.542969 428.363281 278.660156 427.171875 279.152344 426.515625 C 280.800781 424.316406 282.554688 422.660156 283.703125 420.089844 C 284.773438 417.683594 284.609375 414.886719 285.785156 412.5625 C 287.191406 409.785156 288.925781 406.425781 290.652344 403.859375 C 291.59375 402.464844 293.042969 401.71875 293.742188 400.097656 C 295.332031 396.394531 295.476562 392.207031 297.425781 388.628906 C 299.605469 384.617188 305.515625 386.175781 308.933594 387.082031 C 314.476562 388.554688 320.539062 387.0625 323.058594 381.300781 C 324.019531 379.109375 323.234375 377.640625 323.160156 375.480469 C 323.113281 374.152344 324.082031 373.058594 324.179688 371.761719 C 324.265625 370.601562 323.652344 369.519531 323.730469 368.378906 C 323.8125 367.128906 325.1875 365.480469 324.871094 364.308594 C 324.464844 362.800781 321.207031 362.679688 320.945312 360.859375 C 320.875 360.355469 321.808594 360.042969 322.140625 359.882812 C 323.140625 359.410156 324.984375 358.789062 325.378906 357.628906 C 325.8125 356.347656 324.398438 354.890625 323.691406 354.007812 C 321.277344 351 318.074219 348.625 314.332031 347.582031 C 308.140625 345.855469 299.285156 346.175781 293.617188 349.53125 C 290.433594 351.417969 288.164062 354.511719 284.941406 356.332031 C 279.519531 359.394531 272.707031 358.652344 267.71875 362.824219 C 260.839844 368.570312 256.480469 377.398438 251.601562 384.746094 C 248.375 389.605469 243.703125 394.277344 241.289062 399.617188 C 240.644531 401.039062 242.085938 402.042969 241.757812 403.480469 C 241.164062 406.082031 239.230469 408.683594 237.996094 411.007812 C 233.792969 418.890625 229.425781 426.65625 226.566406 435.160156 C 225.421875 438.566406 223.878906 442.308594 224.183594 445.976562 C 224.683594 451.949219 232.628906 453.828125 234.710938 459.296875 C 235.726562 461.960938 235.0625 465.027344 235.574219 467.804688 C 236.257812 471.480469 238.761719 474.402344 240.34375 477.695312 C 242.0625 481.265625 241.945312 488.390625 247.558594 487.402344 C 248.277344 487.273438 248.972656 487.050781 249.625 486.734375 C 250.585938 486.269531 251.480469 485.609375 252.195312 484.820312 C 253.101562 483.828125 253.753906 482.628906 254.363281 481.445312 C 255.707031 478.84375 256.847656 476.140625 258.125 473.503906 " fill-opacity="1" fill-rule="nonzero"/><path fill="#000000" d="M 384.316406 469.917969 C 385.042969 469.839844 384.535156 471.402344 384.917969 472.023438 C 385.710938 473.316406 386.714844 474.492188 387.765625 475.578125 C 392.511719 480.496094 398.683594 483.769531 400.917969 490.664062 C 403.230469 497.796875 399.917969 503.566406 400.308594 510.746094 C 400.699219 517.898438 404.75 523.878906 406.160156 530.746094 C 406.753906 533.617188 404.519531 541.210938 406.730469 543.097656 C 412.722656 548.210938 421.03125 545.515625 427.953125 545.1875 C 432.367188 544.976562 440.28125 545.292969 443.871094 542.277344 C 445.789062 540.664062 444.148438 539.15625 442.382812 538.5625 C 434.648438 535.949219 425.082031 533.390625 422.691406 524.585938 C 420.800781 517.625 421.890625 510.914062 421.835938 503.859375 C 421.800781 499.375 420.78125 494.953125 420.972656 490.472656 C 421.175781 485.648438 422.9375 479.4375 421.394531 474.734375 C 420.148438 470.949219 416.21875 468.648438 413.839844 465.621094 C 408.828125 459.246094 405.324219 451.84375 401.921875 444.535156 C 400.59375 441.683594 398.476562 437.910156 398.652344 434.640625 C 398.800781 431.847656 402.011719 432.246094 403.769531 433.1875 C 407.09375 434.960938 408.53125 439.101562 410.054688 442.332031 C 410.933594 444.195312 412.03125 446.21875 411.457031 448.332031 C 410.910156 450.339844 408.960938 452.234375 409.09375 454.386719 C 409.199219 456.082031 411.21875 457.933594 412.070312 459.34375 C 415.097656 464.394531 416.320312 468.449219 422.914062 464.515625 C 423.867188 463.945312 424.976562 463.398438 425.761719 462.59375 C 430.527344 457.722656 426.253906 449.90625 424.136719 444.914062 C 420.769531 436.976562 417.851562 429.113281 413.695312 421.5 C 410.785156 416.171875 406.105469 409.179688 407.175781 402.703125 C 408.296875 395.890625 415.953125 392.585938 416.761719 385.359375 C 417.5 378.796875 416.066406 372.035156 415.066406 365.570312 C 414.785156 363.78125 413.003906 359.304688 413.597656 357.585938 C 413.960938 356.539062 416.417969 356.75 417.226562 356.773438 C 420.507812 356.871094 423.464844 356.789062 426.109375 354.539062 C 428.605469 352.414062 432.417969 346.898438 432.035156 343.410156 C 431.800781 341.25 430.152344 339.398438 429.820312 337.175781 C 428.980469 331.566406 428.578125 326.09375 423.914062 322.207031 C 414.089844 314.019531 396.554688 321.53125 388.335938 328.644531 C 385.734375 330.894531 383.128906 333.660156 381.835938 336.902344 C 380.171875 341.085938 383.542969 346.363281 384 350.78125 C 384.855469 359.09375 382.582031 367.183594 382.976562 375.457031 " fill-opacity="1" fill-rule="nonzero"/><path fill="#000000" d="M 386.597656 341.429688 C 387.277344 341.257812 385.328125 342.03125 384.738281 342.417969 C 383.496094 343.230469 382.332031 344.140625 381.203125 345.105469 C 377.792969 348.027344 374.644531 351.136719 372.058594 354.832031 C 365.164062 364.679688 364.296875 378.148438 361.089844 389.601562 C 358.847656 397.613281 358.050781 407.113281 360.0625 415.304688 C 360.617188 417.582031 362.964844 419.058594 363.351562 421.398438 C 364.042969 425.609375 359.148438 428.605469 359.550781 432.953125 C 360.144531 439.320312 364.105469 444.4375 365.375 450.523438 C 366.28125 454.871094 363.125 458.609375 362.671875 462.792969 C 362.097656 468.09375 364.589844 474.292969 363.453125 479.300781 C 362.335938 484.226562 355.929688 486.597656 353.320312 490.710938 C 350.742188 494.777344 349.539062 499.746094 347.714844 504.179688 C 345.65625 509.175781 342.890625 513.816406 339.976562 518.359375 C 338.386719 520.839844 330.582031 530.730469 334.515625 534.085938 C 336.699219 535.945312 339.988281 533.785156 342.320312 535.214844 C 345.023438 536.875 345.941406 540.117188 348.03125 542.273438 C 350.496094 544.820312 358.558594 546.023438 361.890625 544.863281 C 362.625 544.605469 367.101562 543.15625 367.195312 542.261719 C 367.546875 538.945312 362.746094 535.980469 360.625 534.164062 C 357.167969 531.199219 354.796875 523.011719 356.941406 518.867188 C 359.339844 514.222656 364.140625 510.082031 367.578125 506.214844 C 374.160156 498.8125 379.539062 491.519531 384.722656 483.125 C 387.058594 479.335938 390.070312 475.332031 391.335938 471.027344 C 393.90625 462.304688 392.058594 452.710938 390.976562 443.945312 C 389.53125 432.261719 388.429688 420.996094 390.445312 409.308594 " fill-opacity="1" fill-rule="nonzero"/><path fill="#000000" d="M 491.328125 392.648438 C 491.464844 392.410156 491.242188 393.1875 491.222656 393.457031 C 491.179688 394.035156 491.191406 394.617188 491.199219 395.191406 C 491.230469 397.058594 491.269531 398.925781 491.324219 400.789062 C 491.492188 406.414062 491.867188 412.371094 490.289062 417.847656 C 489.371094 421.035156 487.898438 424.078125 488.296875 427.480469 C 489.148438 434.757812 495.0625 439.863281 496.746094 446.660156 C 497.574219 450.007812 496.347656 453.714844 496.15625 457.082031 C 495.847656 462.367188 495.832031 467.722656 495.671875 473.019531 C 495.621094 474.765625 496.398438 478.066406 495.339844 479.625 C 494.550781 480.785156 492.25 481.222656 491.035156 481.777344 C 488.101562 483.125 485.292969 484.671875 482.988281 486.976562 C 479.996094 489.964844 478.671875 494.210938 476.691406 497.855469 C 474.289062 502.277344 470.8125 506.316406 466.804688 509.363281 C 462.355469 512.75 457.605469 514.03125 454.429688 518.859375 C 453.464844 520.324219 452.210938 522.257812 452.558594 524.109375 C 453.492188 529.085938 461.566406 528.417969 463.71875 532.675781 C 464.9375 535.089844 463.625 537.960938 464.859375 540.355469 C 465.484375 541.578125 467.183594 542.203125 468.382812 542.660156 C 471.660156 543.902344 475.554688 544.792969 478.980469 545.542969 C 483.003906 546.417969 489.480469 543.300781 487.542969 538.269531 C 486.640625 535.9375 483.738281 535.234375 481.882812 533.929688 C 478.097656 531.265625 476.027344 525.304688 478.683594 521.199219 C 481.128906 517.421875 485.230469 514.808594 488.710938 512.097656 C 492.335938 509.273438 495.707031 506.171875 499.5625 503.648438 C 503.546875 501.035156 507.484375 499.242188 510.667969 495.507812 C 516.148438 489.082031 521.675781 480.027344 523.238281 471.65625 C 524.546875 464.617188 522.652344 456.96875 521.457031 450.042969 C 518.648438 433.703125 513.855469 418.203125 509.789062 402.1875 " fill-opacity="1" fill-rule="nonzero"/><path fill="#000000" d="M 530.738281 413.042969 C 530.839844 412.824219 530.863281 414.308594 530.855469 414.472656 C 530.789062 415.363281 530.753906 416.253906 530.695312 417.140625 C 530.507812 419.832031 530.050781 422.46875 529.664062 425.132812 C 528.433594 433.585938 531.992188 439.265625 535.765625 446.707031 C 540.46875 455.980469 545.058594 466.515625 546.390625 476.945312 C 547.132812 482.75 544.78125 487.730469 544.550781 493.398438 C 544.363281 497.992188 545.945312 502.507812 545.882812 507.148438 C 545.792969 513.613281 543.835938 519.828125 543.339844 526.230469 C 542.878906 532.199219 547.796875 532.597656 552.398438 534.570312 C 554.851562 535.625 557.457031 537.386719 560.15625 537.6875 C 562.898438 537.992188 565.328125 537.1875 567.976562 538.339844 C 570.304688 539.355469 573.886719 542.824219 571.488281 545.453125 C 570.105469 546.96875 567.410156 547.625 565.492188 548.105469 C 560.558594 549.339844 556.78125 547.8125 551.964844 547.605469 C 550.089844 547.523438 548.460938 548.773438 546.667969 548.664062 C 544.664062 548.542969 542.996094 546.988281 540.894531 547.390625 C 537.894531 547.964844 533.632812 551.992188 530.597656 549.46875 C 524.835938 544.664062 529.050781 535.574219 528.484375 529.273438 C 527.929688 523.125 523.96875 518.316406 523.316406 512.289062 C 522.144531 501.464844 524.664062 490.699219 521.683594 480.011719 C 519.382812 471.773438 514.097656 464.902344 510.699219 457.125 C 502.519531 438.410156 498.65625 413.792969 509.902344 395.316406 " fill-opacity="1" fill-rule="nonzero"/><path fill="#000000" d="M 528.515625 414.453125 C 528.746094 414.324219 528.027344 414.824219 528.039062 415.089844 C 528.054688 415.445312 528.5625 415.855469 528.796875 416.050781 C 530.417969 417.386719 532.015625 418.644531 533.496094 420.152344 C 535 421.679688 536.449219 423.246094 537.863281 424.855469 C 539.523438 426.753906 541.164062 428.59375 542.503906 430.738281 C 544.480469 433.902344 545.859375 437.589844 549.65625 438.996094 C 550.464844 439.296875 553.789062 440.8125 554.578125 440.160156 C 555.40625 439.476562 554.953125 436.605469 554.96875 435.691406 C 555.050781 431.230469 556.34375 427.25 553.902344 423.140625 C 552.167969 420.226562 549.339844 418.148438 546.789062 416 C 539.921875 410.214844 528.609375 401.273438 529.457031 390.921875 C 529.570312 389.527344 530.4375 390.519531 531.3125 389.839844 C 531.710938 389.53125 531.828125 388.414062 531.945312 387.980469 C 532.945312 384.261719 532.90625 380.246094 533.609375 376.457031 C 534.417969 372.066406 536.121094 368.296875 535.332031 363.6875 C 534.351562 358.003906 530.695312 352.742188 527.90625 347.8125 C 526.773438 345.8125 524.417969 342.628906 524.652344 340.164062 C 524.785156 338.773438 527.886719 339.039062 528.796875 338.972656 C 532.078125 338.730469 536.34375 338.601562 538.308594 335.445312 C 540.230469 332.359375 537.738281 330.398438 537.046875 327.53125 C 536.617188 325.757812 537.148438 323.835938 537.007812 322.03125 C 537.003906 321.980469 539.78125 322.871094 540.015625 322.402344 C 540.261719 321.90625 539.542969 320.652344 539.347656 320.226562 C 538.464844 318.28125 536.609375 316.609375 536.257812 314.460938 C 535.792969 311.632812 537.027344 308.414062 537.691406 305.671875 C 537.976562 304.5 538.710938 303.726562 538.242188 302.433594 C 537.585938 300.621094 535.660156 299.242188 534.261719 298.035156 C 533.132812 297.0625 531.988281 296.078125 530.628906 295.4375 C 527.058594 293.75 524.109375 294.847656 520.441406 295.253906 C 517.253906 295.605469 514.105469 295.726562 511.199219 297.265625 C 508.625 298.625 506.929688 301.070312 505.1875 303.316406 C 503.539062 305.449219 501.566406 307.453125 500.394531 309.902344 C 498.230469 314.417969 497.550781 321.34375 497.175781 326.367188 C 496.933594 329.6875 499.46875 333 498.640625 336.121094 C 496.394531 344.574219 492.652344 352.582031 490.496094 361.074219 C 488.519531 368.851562 484.515625 377.617188 485.519531 385.742188 C 486.042969 389.984375 487.828125 393.988281 489.351562 397.949219 C 491.789062 404.28125 494.164062 410.671875 497.371094 416.667969 " fill-opacity="1" fill-rule="nonzero"/><path fill="#000000" d="M 494.519531 280.871094 C 494.496094 280.898438 493.730469 280.273438 493.699219 280.246094 C 493.09375 279.789062 492.457031 279.375 491.816406 278.972656 C 490.722656 278.292969 489.585938 277.691406 488.445312 277.09375 C 488.074219 276.898438 487.230469 276.652344 487.007812 276.25 C 486.480469 275.296875 486.988281 272.851562 487.046875 271.863281 C 487.230469 268.691406 487.535156 265.527344 487.765625 262.359375 C 487.84375 261.265625 487.65625 259.300781 488.222656 258.300781 C 488.414062 257.960938 489.042969 258.632812 489.160156 258.742188 C 490.125 259.652344 490.988281 260.683594 491.867188 261.671875 C 495.039062 265.238281 498.539062 269.125 500.695312 273.441406 C 500.808594 273.667969 500.351562 273.816406 500.203125 274.019531 C 499.699219 274.703125 499.261719 275.425781 498.851562 276.167969 C 497.492188 278.621094 496.0625 281.328125 495.378906 284.070312 " fill-opacity="1" fill-rule="nonzero"/><path fill="#000000" d="M 490.269531 272.816406 L 495.054688 271.136719 L 562.660156 463.859375 L 557.878906 465.535156 Z M 490.269531 272.816406 " fill-opacity="1" fill-rule="evenodd"/><path fill="#000000" d="M 628.152344 436.28125 C 628.292969 436.246094 628.230469 437.453125 628.179688 438.378906 C 628.046875 440.851562 627.835938 443.324219 627.644531 445.792969 C 627.160156 451.898438 626.457031 458.074219 625.148438 464.066406 C 624.015625 469.265625 622.183594 474.816406 618.890625 479.078125 C 615.558594 483.386719 611.152344 486.046875 608.589844 491.0625 C 604.304688 499.449219 603.996094 509.246094 599.335938 517.484375 C 596.582031 522.355469 593.582031 526.921875 591.457031 532.128906 C 590.179688 535.269531 589.015625 537.664062 591.519531 540.425781 C 595.324219 544.621094 601.5625 544.359375 606.476562 546.355469 C 610.015625 547.796875 613.195312 550.351562 617.183594 550.191406 C 619.546875 550.09375 625.449219 548.933594 625.867188 545.914062 C 626.183594 543.625 621.023438 542.40625 619.582031 541.816406 C 615.464844 540.132812 610.007812 535.632812 609.96875 530.648438 C 609.945312 528.167969 611.53125 525.910156 612.769531 523.886719 C 614.300781 521.375 615.65625 518.765625 617.234375 516.28125 C 622.003906 508.761719 627.480469 501.207031 633.121094 494.3125 C 637.101562 489.441406 641.378906 485.914062 644.28125 480.136719 C 646.492188 475.734375 648.488281 471.207031 650.597656 466.753906 C 651.203125 465.480469 652.144531 462.636719 653.84375 462.433594 C 656.402344 462.132812 658.664062 468.511719 659.660156 470.144531 C 662.410156 474.664062 666.367188 478.761719 668.4375 483.640625 C 669.859375 486.988281 670.089844 490.570312 670.359375 494.152344 C 671.230469 505.695312 677.621094 513.941406 682.714844 523.910156 C 684.699219 527.800781 686.277344 532.019531 687.214844 536.292969 C 687.996094 539.863281 688.871094 545.90625 691.769531 548.59375 C 693.378906 550.085938 696.46875 549.921875 698.320312 549.035156 C 700.917969 547.785156 702.441406 544.953125 705.144531 543.855469 C 706.894531 543.140625 708.933594 543.339844 710.765625 542.957031 C 714.492188 542.179688 719.488281 540.597656 722.683594 538.5 C 724.613281 537.234375 728.226562 532.152344 724.5625 530.695312 C 722.253906 529.773438 719.339844 530.675781 716.9375 530.632812 C 712.605469 530.5625 708.503906 529.140625 704.996094 526.605469 C 698.160156 521.667969 697.90625 510.394531 695.847656 502.894531 C 694.15625 496.726562 692.457031 490.542969 691.328125 484.242188 C 690.148438 477.667969 689.65625 471.296875 686.816406 465.160156 C 684.125 459.351562 681.511719 453.28125 677.8125 448.027344 C 673.894531 442.460938 668.308594 436.628906 666.378906 429.964844 C 665.339844 426.375 666.242188 422.53125 666.679688 418.917969 C 667.15625 414.957031 667.324219 410.9375 666.945312 406.960938 C 666.714844 404.523438 666.441406 401.050781 664.648438 399.160156 C 663.207031 397.640625 660.933594 397.273438 658.9375 397.21875 C 652.070312 397.03125 647.273438 402.441406 643.789062 407.765625 " fill-opacity="1" fill-rule="nonzero"/><path fill="#000000" d="M 665.308594 405.671875 C 664.976562 405.824219 666.035156 405.554688 666.402344 405.515625 C 667.1875 405.429688 667.964844 405.386719 668.757812 405.441406 C 671.164062 405.605469 673.464844 406.085938 675.746094 406.851562 C 678.285156 407.703125 680.996094 407.902344 683.496094 408.875 C 685.882812 409.804688 690.621094 414.136719 693.152344 410.972656 C 693.914062 410.023438 693.589844 408.574219 694.199219 407.503906 C 694.769531 406.503906 695.589844 405.753906 695.808594 404.574219 C 696.417969 401.234375 692.285156 399.621094 689.738281 398.992188 C 686.601562 398.214844 683.269531 398.527344 680.09375 397.96875 C 676.277344 397.296875 672.636719 394.984375 670.214844 391.976562 C 666.539062 387.417969 663.730469 379.328125 663.691406 373.460938 C 663.679688 371.34375 664.371094 369.296875 664.566406 367.195312 C 664.824219 364.417969 664.503906 361.394531 663.933594 358.671875 C 663.257812 355.460938 661.761719 352.28125 659.886719 349.597656 C 658.402344 347.480469 656.292969 345.503906 655.496094 342.980469 C 654.191406 338.84375 657.640625 333.449219 661.675781 332.222656 C 663.386719 331.703125 666.914062 331.789062 667.96875 330.097656 C 668.414062 329.390625 668.234375 328.332031 668.304688 327.539062 C 668.453125 325.800781 668.601562 323.996094 668.960938 322.285156 C 669.175781 321.246094 669.957031 320.636719 670.933594 320.308594 C 671.332031 320.171875 672.390625 320.085938 672.476562 319.554688 C 672.65625 318.464844 670.585938 316.140625 670.199219 315.074219 C 669.1875 312.289062 669.535156 309.121094 669.160156 306.214844 C 668.804688 303.441406 671.960938 301.828125 670.324219 298.816406 C 668.242188 294.996094 662.675781 293.082031 658.773438 292.058594 C 653.011719 290.546875 646.867188 290.976562 641.3125 293.109375 C 638.980469 294.003906 636.421875 295.332031 635.304688 297.699219 C 634.234375 299.960938 634.472656 302.660156 634.582031 305.085938 C 634.78125 309.5 634.742188 314.015625 636.421875 318.179688 C 637.523438 320.894531 641.027344 325.242188 640.191406 328.375 C 639.601562 330.570312 636.972656 332.796875 635.425781 334.285156 C 631.933594 337.648438 628.507812 340.460938 626.121094 344.804688 C 623.359375 349.828125 621.320312 355.464844 619.992188 361.03125 C 619.253906 364.132812 619.214844 367.378906 618.152344 370.390625 C 616.660156 374.609375 613.285156 378.089844 613.386719 382.734375 C 613.613281 392.882812 618.46875 402.386719 621.710938 411.789062 C 622.839844 415.058594 623.984375 418.730469 623.535156 422.230469 C 623.132812 425.394531 620.496094 427.484375 619.972656 430.496094 C 619.601562 432.617188 620.722656 434.695312 621.492188 436.597656 C 621.976562 437.792969 622.367188 439.339844 623.628906 439.960938 C 625.027344 440.640625 627.03125 439.707031 628.375 439.273438 C 630.128906 438.710938 632.085938 438.128906 633.257812 436.59375 C 634.390625 435.101562 634.460938 432.988281 634.566406 431.195312 C 634.765625 427.769531 634.789062 424.199219 634.417969 420.78125 C 633.816406 415.257812 630.285156 411.917969 628.046875 407.105469 C 623.417969 397.148438 621.851562 385.953125 626.394531 375.710938 C 628.566406 370.820312 632.183594 365.996094 637.753906 365.066406 " fill-opacity="1" fill-rule="nonzero"/><path fill="#000000" d="M 642.03125 370.503906 C 641.894531 370.386719 641.03125 370.800781 640.917969 370.847656 C 639.742188 371.316406 638.597656 371.890625 637.503906 372.515625 C 633.257812 374.929688 628.453125 378.671875 628.621094 384.054688 C 628.761719 388.453125 631.378906 391.898438 632.324219 396.058594 C 633.242188 400.070312 632.476562 404.347656 633.046875 408.421875 C 633.566406 412.132812 635.292969 415.480469 636.367188 419.03125 C 637.097656 421.4375 637.628906 424.222656 636.867188 426.691406 C 636.535156 427.773438 635.660156 429.257812 634.304688 428.90625 C 632.554688 428.449219 631.378906 425.996094 630.640625 424.554688 C 628.234375 419.867188 626.46875 414.742188 624.714844 409.78125 C 622.734375 404.179688 620.757812 398.453125 620.007812 392.535156 C 618.628906 381.621094 621.46875 370.109375 628.863281 361.796875 C 633.359375 356.742188 640.910156 351.933594 648.015625 353.273438 " fill-opacity="1" fill-rule="nonzero"/><path fill="#000000" d="M 627.863281 379.21875 C 627.742188 378.90625 629.585938 379.269531 629.734375 379.335938 C 630.957031 379.886719 631.71875 380.992188 632.21875 382.199219 C 633.636719 385.636719 634.003906 389.542969 634.488281 393.203125 C 634.972656 396.835938 635.113281 400.640625 633.460938 404.003906 C 632.878906 405.199219 632.066406 406.277344 631.210938 407.285156 C 630.855469 407.703125 630.09375 408.226562 629.976562 408.789062 C 629.800781 409.625 630.21875 410.714844 630.414062 411.507812 C 630.933594 413.613281 631.554688 415.699219 632.320312 417.730469 C 633.09375 419.789062 634.035156 421.835938 635.371094 423.597656 C 635.796875 424.160156 636.484375 425.132812 637.320312 424.902344 C 638.570312 424.550781 639.535156 422.78125 640.183594 421.789062 C 642.023438 418.957031 643.269531 415.789062 645.113281 412.964844 C 646.878906 410.257812 649.257812 408.089844 651.867188 406.21875 C 656.585938 402.832031 661.855469 400.007812 662.34375 393.546875 C 662.453125 392.089844 662.339844 390.625 662.054688 389.191406 C 660.324219 380.460938 653.152344 371.734375 644.980469 368.226562 C 639.972656 366.074219 633.746094 365.789062 629.035156 368.789062 " fill-opacity="1" fill-rule="nonzero"/></svg>