<svg xmlns="http://www.w3.org/2000/svg" xmlns:xlink="http://www.w3.org/1999/xlink" width="1080" zoomAndPan="magnify" viewBox="0 0 810 809.999993" height="1080" preserveAspectRatio="xMidYMid meet" version="1.0"><defs><clipPath id="2760f27a91"><path d="M 269.421875 318 L 458 318 L 458 667 L 269.421875 667 Z M 269.421875 318 " clip-rule="nonzero"/></clipPath><clipPath id="3602c407b5"><path d="M 550 252 L 580.605469 252 L 580.605469 283 L 550 283 Z M 550 252 " clip-rule="nonzero"/></clipPath><clipPath id="a345d635cb"><path d="M 346.148438 220 L 377 220 L 377 251 L 346.148438 251 Z M 346.148438 220 " clip-rule="nonzero"/></clipPath><clipPath id="e2b8c97139"><path d="M 464 343 L 482 343 L 482 360.933594 L 464 360.933594 Z M 464 343 " clip-rule="nonzero"/></clipPath><clipPath id="73e3dc1a37"><path d="M 463 342 L 483 342 L 483 360.933594 L 463 360.933594 Z M 463 342 " clip-rule="nonzero"/></clipPath><clipPath id="942c7cf1df"><path d="M 500 153.933594 L 520 153.933594 L 520 173 L 500 173 Z M 500 153.933594 " clip-rule="nonzero"/></clipPath></defs><g clip-path="url(#2760f27a91)"><path fill="#fbc439" d="M 437.628906 580.339844 C 422.074219 590.929688 385.640625 624.0625 379.003906 595.1875 C 392.757812 522.050781 418.089844 451.785156 434.363281 379.230469 C 442.703125 347.671875 438.039062 316.515625 411.277344 318.21875 C 405.082031 318.628906 397.695312 320.667969 389.046875 324.988281 C 346.761719 347.226562 307.707031 381.550781 269.40625 409.535156 C 274.242188 422.574219 279.691406 433.15625 291.199219 418.65625 C 305.496094 410.179688 353.539062 373.035156 348.738281 409.535156 C 333.414062 477.046875 314.621094 543.777344 300.355469 611.527344 C 291.742188 647.824219 320.035156 680.441406 354.625 659.46875 C 391.429688 640.808594 424.625 617.214844 457.683594 594.09375 C 453.15625 583.03125 450.875 569.824219 437.628906 580.339844 Z M 437.628906 580.339844 " fill-opacity="1" fill-rule="nonzero"/></g><path fill="#fbc439" d="M 561.050781 269.636719 C 559.089844 268.628906 556.179688 268.207031 551.679688 267.753906 C 556.179688 267.300781 559.089844 266.878906 561.050781 265.875 C 560.375 263.785156 558.613281 261.425781 555.75 257.921875 C 559.253906 260.789062 561.609375 262.546875 563.703125 263.222656 C 564.703125 261.265625 565.128906 258.355469 565.578125 253.855469 C 566.035156 258.355469 566.453125 261.265625 567.460938 263.222656 C 569.554688 262.546875 571.914062 260.789062 575.414062 257.925781 C 572.546875 261.425781 570.789062 263.785156 570.117188 265.875 C 572.074219 266.878906 574.984375 267.300781 579.488281 267.753906 C 574.984375 268.207031 572.074219 268.628906 570.121094 269.636719 C 570.792969 271.726562 572.550781 274.082031 575.417969 277.589844 C 571.914062 274.722656 569.554688 272.964844 567.460938 272.292969 C 566.453125 274.25 566.035156 277.15625 565.578125 281.664062 C 565.128906 277.15625 564.703125 274.25 563.703125 272.292969 C 561.609375 272.964844 559.253906 274.722656 555.75 277.589844 C 558.613281 274.082031 560.375 271.726562 561.050781 269.636719 " fill-opacity="1" fill-rule="nonzero"/><g clip-path="url(#3602c407b5)"><path stroke-linecap="butt" transform="matrix(-0.103692, 0, 0, -0.103692, 683.824601, 477.970844)" fill="none" stroke-linejoin="round" d="M 1184.028859 2009.171148 C 1202.940111 2018.890477 1231.005614 2022.959033 1274.403545 2027.328964 C 1231.005614 2031.698894 1202.940111 2035.76745 1184.028859 2045.449107 C 1190.546083 2065.603528 1207.536072 2088.357305 1235.149513 2122.148924 C 1201.357895 2094.497811 1178.64179 2077.545494 1158.449696 2071.02827 C 1148.805711 2089.90185 1144.699484 2117.967353 1140.367225 2161.365284 C 1135.959622 2117.967353 1131.928738 2089.90185 1122.209409 2071.02827 C 1102.017316 2077.545494 1079.263539 2094.497811 1045.509592 2122.111252 C 1073.160705 2088.357305 1090.113022 2065.603528 1096.592575 2045.449107 C 1077.718995 2035.76745 1049.653492 2031.698894 1006.217888 2027.328964 C 1049.653492 2022.959033 1077.718995 2018.890477 1096.554903 2009.171148 C 1090.075351 1989.016727 1073.123033 1966.300622 1045.471921 1932.471331 C 1079.263539 1960.122444 1102.017316 1977.074761 1122.209409 1983.554314 C 1131.928738 1964.680734 1135.959622 1936.652903 1140.367225 1893.179627 C 1144.699484 1936.652903 1148.805711 1964.680734 1158.449696 1983.554314 C 1178.64179 1977.074761 1201.357895 1960.122444 1235.149513 1932.471331 C 1207.536072 1966.300622 1190.546083 1989.016727 1184.028859 2009.171148 Z M 1184.028859 2009.171148 " stroke="#0a2f4d" stroke-width="20" stroke-opacity="1" stroke-miterlimit="10"/></g><path fill="#fbc439" d="M 356.636719 237.023438 C 354.675781 236.019531 351.769531 235.597656 347.265625 235.144531 C 351.769531 234.695312 354.675781 234.273438 356.636719 233.269531 C 355.964844 231.175781 354.203125 228.816406 351.339844 225.316406 C 354.839844 228.179688 357.199219 229.9375 359.289062 230.613281 C 360.292969 228.65625 360.71875 225.746094 361.164062 221.238281 C 361.621094 225.746094 362.039062 228.660156 363.050781 230.613281 C 365.140625 229.9375 367.5 228.179688 371 225.316406 C 368.136719 228.820312 366.378906 231.175781 365.703125 233.269531 C 367.664062 234.273438 370.570312 234.695312 375.074219 235.144531 C 370.570312 235.59375 367.664062 236.019531 365.707031 237.023438 C 366.378906 239.113281 368.140625 241.476562 371.003906 244.980469 C 367.5 242.113281 365.140625 240.355469 363.050781 239.683594 C 362.039062 241.632812 361.621094 244.550781 361.164062 249.050781 C 360.71875 244.550781 360.292969 241.632812 359.289062 239.683594 C 357.199219 240.355469 354.839844 242.117188 351.339844 244.980469 C 354.203125 241.476562 355.964844 239.113281 356.636719 237.023438 " fill-opacity="1" fill-rule="nonzero"/><g clip-path="url(#a345d635cb)"><path stroke-linecap="butt" transform="matrix(-0.103692, 0, 0, -0.103692, 683.824601, 477.970844)" fill="none" stroke-linejoin="round" d="M 3155.394982 2323.693139 C 3174.306234 2333.374795 3202.334065 2337.443352 3245.769668 2341.813282 C 3202.334065 2346.145541 3174.306234 2350.214097 3155.394982 2359.895754 C 3161.874535 2380.087847 3178.864524 2402.841624 3206.477965 2436.595571 C 3172.724018 2408.98213 3149.970241 2392.029813 3129.815819 2385.512589 C 3120.134163 2404.386168 3116.027935 2432.451671 3111.733348 2475.924947 C 3107.325745 2432.451671 3103.294861 2404.348497 3093.537861 2385.512589 C 3073.383439 2392.029813 3050.629662 2408.98213 3016.875715 2436.595571 C 3044.489156 2402.803952 3061.441474 2380.087847 3067.958698 2359.895754 C 3049.047446 2350.214097 3021.019615 2346.145541 2977.584011 2341.813282 C 3021.019615 2337.481023 3049.047446 2333.374795 3067.921026 2323.693139 C 3061.441474 2303.538717 3044.451485 2280.747269 3016.838044 2246.95565 C 3050.629662 2274.606763 3073.383439 2291.55908 3093.537861 2298.038632 C 3103.294861 2279.240396 3107.325745 2251.09955 3111.733348 2207.701618 C 3116.027935 2251.09955 3120.134163 2279.240396 3129.815819 2298.038632 C 3149.970241 2291.55908 3172.724018 2274.569091 3206.477965 2246.95565 C 3178.864524 2280.747269 3161.874535 2303.538717 3155.394982 2323.693139 Z M 3155.394982 2323.693139 " stroke="#0a2f4d" stroke-width="20" stroke-opacity="1" stroke-miterlimit="10"/></g><g clip-path="url(#e2b8c97139)"><path fill="#fbc439" d="M 470.644531 352.78125 C 469.457031 352.171875 467.6875 351.910156 464.949219 351.636719 C 467.6875 351.363281 469.457031 351.105469 470.644531 350.496094 C 470.238281 349.222656 469.167969 347.789062 467.425781 345.65625 C 469.554688 347.398438 470.988281 348.472656 472.261719 348.882812 C 472.871094 347.691406 473.132812 345.921875 473.402344 343.183594 C 473.679688 345.921875 473.933594 347.691406 474.546875 348.882812 C 475.816406 348.472656 477.25 347.398438 479.386719 345.65625 C 477.640625 347.789062 476.570312 349.222656 476.160156 350.496094 C 477.351562 351.105469 479.121094 351.363281 481.859375 351.636719 C 479.121094 351.910156 477.351562 352.171875 476.160156 352.78125 C 476.570312 354.054688 477.640625 355.488281 479.386719 357.617188 C 477.25 355.875 475.816406 354.804688 474.546875 354.394531 C 473.933594 355.585938 473.679688 357.355469 473.402344 360.09375 C 473.132812 357.355469 472.871094 355.585938 472.261719 354.394531 C 470.988281 354.804688 469.554688 355.875 467.425781 357.617188 C 469.167969 355.488281 470.238281 354.054688 470.644531 352.78125 " fill-opacity="1" fill-rule="nonzero"/></g><g clip-path="url(#73e3dc1a37)"><path stroke-linecap="butt" transform="matrix(-0.103692, 0, 0, -0.103692, 683.824601, 477.970844)" fill="none" stroke-linejoin="round" d="M 2055.905365 1207.326548 C 2067.357597 1213.203351 2084.42293 1215.727363 2110.830873 1218.36439 C 2084.42293 1221.001417 2067.357597 1223.487757 2055.905365 1229.36456 C 2059.823234 1241.645572 2070.145311 1255.471129 2086.946941 1276.03994 C 2066.415802 1259.23831 2052.590245 1248.878561 2040.309233 1244.92302 C 2034.43243 1256.412924 2031.908418 1273.478257 2029.309063 1299.8862 C 2026.634364 1273.478257 2024.185696 1256.412924 2018.271221 1244.92302 C 2006.027881 1248.878561 1992.202325 1259.23831 1971.595841 1276.03994 C 1988.435143 1255.471129 1998.75722 1241.645572 2002.712761 1229.36456 C 1991.222857 1223.487757 1974.157525 1221.001417 1947.749582 1218.36439 C 1974.157525 1215.727363 1991.222857 1213.203351 2002.712761 1207.326548 C 1998.75722 1195.045536 1988.435143 1181.21998 1971.595841 1160.68884 C 1992.202325 1177.49047 2006.027881 1187.812548 2018.271221 1191.768088 C 2024.185696 1180.278184 2026.634364 1163.212852 2029.309063 1136.804909 C 2031.908418 1163.212852 2034.43243 1180.278184 2040.309233 1191.768088 C 2052.590245 1187.812548 2066.415802 1177.49047 2086.946941 1160.68884 C 2070.145311 1181.21998 2059.823234 1195.045536 2055.905365 1207.326548 Z M 2055.905365 1207.326548 " stroke="#0a2f4d" stroke-width="20" stroke-opacity="1" stroke-miterlimit="10"/></g><path fill="#fbc439" d="M 507.253906 164.546875 C 506.066406 163.933594 504.292969 163.679688 501.554688 163.402344 C 504.292969 163.128906 506.066406 162.875 507.253906 162.261719 C 506.84375 160.988281 505.773438 159.550781 504.03125 157.425781 C 506.164062 159.167969 507.597656 160.238281 508.871094 160.648438 C 509.480469 159.457031 509.738281 157.683594 510.011719 154.949219 C 510.285156 157.683594 510.542969 159.457031 511.152344 160.648438 C 512.425781 160.238281 513.859375 159.167969 515.988281 157.425781 C 514.25 159.550781 513.179688 160.988281 512.769531 162.261719 C 513.960938 162.875 515.730469 163.128906 518.46875 163.402344 C 515.730469 163.679688 513.960938 163.933594 512.769531 164.546875 C 513.179688 165.816406 514.25 167.253906 515.992188 169.386719 C 513.859375 167.640625 512.425781 166.570312 511.152344 166.164062 C 510.542969 167.351562 510.285156 169.125 510.011719 171.859375 C 509.738281 169.125 509.480469 167.351562 508.871094 166.164062 C 507.597656 166.570312 506.164062 167.640625 504.03125 169.386719 C 505.773438 167.253906 506.84375 165.816406 507.253906 164.546875 " fill-opacity="1" fill-rule="nonzero"/><g clip-path="url(#942c7cf1df)"><path stroke-linecap="butt" transform="matrix(-0.103692, 0, 0, -0.103692, 683.824601, 477.970844)" fill="none" stroke-linejoin="round" d="M 1702.845107 3022.65601 C 1714.297339 3028.570485 1731.400343 3031.019153 1757.808286 3033.693852 C 1731.400343 3036.330879 1714.297339 3038.779547 1702.845107 3044.694022 C 1706.800648 3056.975034 1717.122725 3070.838262 1733.924355 3091.33173 C 1713.355544 3074.5301 1699.529987 3064.208023 1687.248975 3060.252482 C 1681.372172 3071.742386 1678.885832 3088.84539 1676.248805 3115.215661 C 1673.611778 3088.84539 1671.125438 3071.742386 1665.248635 3060.252482 C 1652.967623 3064.208023 1639.142066 3074.5301 1618.610927 3091.33173 C 1635.374885 3070.838262 1645.696962 3056.975034 1649.652503 3044.694022 C 1638.162599 3038.779547 1621.097267 3036.330879 1594.689324 3033.693852 C 1621.097267 3031.019153 1638.162599 3028.570485 1649.652503 3022.65601 C 1645.696962 3010.41267 1635.374885 2996.549442 1618.573255 2975.98063 C 1639.142066 2992.819932 1652.967623 3003.142009 1665.248635 3007.059878 C 1671.125438 2995.607646 1673.611778 2978.504642 1676.248805 2952.134371 C 1678.885832 2978.504642 1681.372172 2995.607646 1687.248975 3007.059878 C 1699.529987 3003.142009 1713.355544 2992.819932 1733.924355 2975.98063 C 1717.122725 2996.549442 1706.800648 3010.41267 1702.845107 3022.65601 Z M 1702.845107 3022.65601 " stroke="#0a2f4d" stroke-width="20" stroke-opacity="1" stroke-miterlimit="10"/></g><path fill="#fbc439" d="M 445.601562 172.5625 C 444.871094 172.1875 443.78125 172.027344 442.105469 171.859375 C 443.78125 171.691406 444.871094 171.53125 445.601562 171.160156 C 445.351562 170.378906 444.695312 169.5 443.625 168.191406 C 444.929688 169.261719 445.8125 169.917969 446.59375 170.167969 C 446.964844 169.4375 447.125 168.347656 447.292969 166.667969 C 447.460938 168.347656 447.617188 169.4375 447.996094 170.167969 C 448.777344 169.917969 449.660156 169.261719 450.964844 168.191406 C 449.894531 169.5 449.238281 170.378906 448.988281 171.160156 C 449.714844 171.53125 450.804688 171.691406 452.484375 171.859375 C 450.804688 172.027344 449.714844 172.1875 448.988281 172.5625 C 449.238281 173.34375 449.894531 174.222656 450.964844 175.53125 C 449.660156 174.460938 448.777344 173.804688 447.996094 173.554688 C 447.617188 174.285156 447.460938 175.367188 447.292969 177.054688 C 447.125 175.367188 446.964844 174.285156 446.59375 173.554688 C 445.8125 173.804688 444.929688 174.460938 443.625 175.53125 C 444.695312 174.222656 445.351562 173.34375 445.601562 172.5625 " fill-opacity="1" fill-rule="nonzero"/><path stroke-linecap="butt" transform="matrix(-0.103692, 0, 0, -0.103692, 683.824601, 477.970844)" fill="none" stroke-linejoin="round" d="M 2297.419376 2945.353444 C 2304.464006 2948.969938 2314.974443 2950.514483 2331.135652 2952.134371 C 2314.974443 2953.754259 2304.464006 2955.298803 2297.419376 2958.877626 C 2299.830373 2966.411989 2306.159238 2974.888147 2316.481315 2987.508206 C 2303.898929 2977.186128 2295.385098 2970.857263 2287.850735 2968.446267 C 2284.271913 2975.490897 2282.727368 2986.001333 2281.10748 3002.200214 C 2279.487592 2986.001333 2277.980719 2975.490897 2274.326553 2968.446267 C 2266.79219 2970.857263 2258.27836 2977.186128 2245.695973 2987.508206 C 2256.018051 2974.888147 2262.346916 2966.411989 2264.757912 2958.877626 C 2257.750954 2955.298803 2247.240518 2953.754259 2231.041637 2952.134371 C 2247.240518 2950.514483 2257.750954 2948.969938 2264.757912 2945.353444 C 2262.346916 2937.819081 2256.018051 2929.342922 2245.695973 2916.722864 C 2258.27836 2927.044941 2266.79219 2933.373806 2274.326553 2935.784803 C 2277.980719 2928.740173 2279.487592 2918.30508 2281.10748 2902.030856 C 2282.727368 2918.30508 2284.271913 2928.740173 2287.850735 2935.784803 C 2295.385098 2933.373806 2303.898929 2927.044941 2316.481315 2916.722864 C 2306.159238 2929.342922 2299.830373 2937.819081 2297.419376 2945.353444 Z M 2297.419376 2945.353444 " stroke="#0a2f4d" stroke-width="20" stroke-opacity="1" stroke-miterlimit="10"/><path fill="#fbc439" d="M 532.640625 299.570312 C 531.964844 299.222656 530.960938 299.082031 529.40625 298.925781 C 530.960938 298.769531 531.964844 298.625 532.640625 298.277344 C 532.40625 297.554688 531.804688 296.742188 530.8125 295.53125 C 532.023438 296.523438 532.835938 297.125 533.558594 297.359375 C 533.902344 296.683594 534.050781 295.679688 534.203125 294.128906 C 534.359375 295.679688 534.503906 296.683594 534.851562 297.359375 C 535.574219 297.125 536.386719 296.523438 537.597656 295.535156 C 536.609375 296.742188 536.003906 297.554688 535.769531 298.277344 C 536.445312 298.625 537.453125 298.769531 539.003906 298.925781 C 537.453125 299.082031 536.445312 299.222656 535.773438 299.570312 C 536.003906 300.296875 536.609375 301.109375 537.597656 302.316406 C 536.386719 301.328125 535.574219 300.722656 534.851562 300.492188 C 534.503906 301.164062 534.359375 302.167969 534.203125 303.722656 C 534.050781 302.167969 533.902344 301.164062 533.558594 300.492188 C 532.835938 300.722656 532.023438 301.328125 530.8125 302.316406 C 531.804688 301.109375 532.40625 300.296875 532.640625 299.570312 " fill-opacity="1" fill-rule="nonzero"/><path stroke-linecap="butt" transform="matrix(-0.103692, 0, 0, -0.103692, 683.824601, 477.970844)" fill="none" stroke-linejoin="round" d="M 1458.015976 1720.492024 C 1464.5332 1723.844815 1474.214857 1725.201001 1489.208239 1726.707873 C 1474.214857 1728.214746 1464.5332 1729.608603 1458.015976 1732.961395 C 1460.276285 1739.930681 1466.077744 1747.766418 1475.646386 1759.444681 C 1463.968123 1749.87604 1456.132385 1744.07458 1449.163099 1741.814271 C 1445.847979 1748.331495 1444.41645 1758.013152 1442.94725 1772.968863 C 1441.440377 1758.013152 1440.04652 1748.331495 1436.693728 1741.814271 C 1429.724442 1744.07458 1421.888704 1749.87604 1410.210442 1759.407009 C 1419.741411 1747.766418 1425.580542 1739.930681 1427.840851 1732.961395 C 1421.323627 1729.608603 1411.604299 1728.214746 1396.648588 1726.707873 C 1411.604299 1725.201001 1421.323627 1723.844815 1427.80318 1720.492024 C 1425.580542 1713.485066 1419.741411 1705.649328 1410.210442 1694.008737 C 1421.888704 1703.539706 1429.724442 1709.378838 1436.693728 1711.601475 C 1440.04652 1705.121923 1441.440377 1695.440266 1442.94725 1680.446883 C 1444.41645 1695.440266 1445.847979 1705.121923 1449.163099 1711.601475 C 1456.132385 1709.378838 1463.968123 1703.539706 1475.646386 1694.008737 C 1466.077744 1705.649328 1460.276285 1713.485066 1458.015976 1720.492024 Z M 1458.015976 1720.492024 " stroke="#0a2f4d" stroke-width="20" stroke-opacity="1" stroke-miterlimit="10"/><path fill="#fbc439" d="M 403.554688 193.621094 C 405.992188 196.160156 410.023438 196.246094 412.5625 193.800781 C 415.101562 191.367188 415.183594 187.339844 412.742188 184.796875 C 410.308594 182.257812 406.277344 182.175781 403.738281 184.613281 C 401.199219 187.050781 401.121094 191.085938 403.554688 193.621094 " fill-opacity="1" fill-rule="nonzero"/><path stroke-linecap="butt" transform="matrix(-0.103692, 0, 0, -0.103692, 683.824601, 477.970844)" fill="none" stroke-linejoin="round" d="M 2702.918802 2742.264685 C 2679.411589 2717.778004 2640.534275 2716.949224 2616.047595 2740.531781 C 2591.560915 2764.001322 2590.769806 2802.840965 2614.314691 2827.365317 C 2637.784233 2851.851997 2676.661547 2852.643105 2701.148227 2829.135892 C 2725.634907 2805.628679 2726.388343 2766.713693 2702.918802 2742.264685 Z M 2702.918802 2742.264685 " stroke="#0a2f4d" stroke-width="20" stroke-opacity="1" stroke-miterlimit="10"/><path fill="#fbc439" d="M 370.476562 299.839844 C 372.914062 302.375 376.945312 302.460938 379.484375 300.023438 C 382.019531 297.582031 382.105469 293.554688 379.667969 291.011719 C 377.234375 288.472656 373.199219 288.398438 370.660156 290.832031 C 368.125 293.269531 368.042969 297.300781 370.476562 299.839844 " fill-opacity="1" fill-rule="nonzero"/><path stroke-linecap="butt" transform="matrix(-0.103692, 0, 0, -0.103692, 683.824601, 477.970844)" fill="none" stroke-linejoin="round" d="M 3021.923739 1717.892668 C 2998.416526 1693.44366 2959.539212 1692.61488 2935.052531 1716.122093 C 2910.603523 1739.666978 2909.774743 1778.50662 2933.281956 1803.030972 C 2956.751497 1827.517652 2995.666483 1828.233417 3020.153163 1804.763876 C 3044.602172 1781.256663 3045.39328 1742.379349 3021.923739 1717.892668 Z M 3021.923739 1717.892668 " stroke="#0a2f4d" stroke-width="20" stroke-opacity="1" stroke-miterlimit="10"/><path fill="#fbc439" d="M 448.96875 332.339844 C 452.75 336.277344 459.007812 336.410156 462.949219 332.625 C 466.886719 328.839844 467.015625 322.582031 463.234375 318.640625 C 459.449219 314.703125 453.191406 314.574219 449.25 318.359375 C 445.3125 322.140625 445.179688 328.398438 448.96875 332.339844 " fill-opacity="1" fill-rule="nonzero"/><path stroke-linecap="butt" transform="matrix(-0.103692, 0, 0, -0.103692, 683.824601, 477.970844)" fill="none" stroke-linejoin="round" d="M 2264.946271 1404.46316 C 2228.479953 1366.48997 2168.129704 1365.209128 2130.118842 1401.713118 C 2092.145652 1438.217107 2090.902482 1498.567356 2127.3688 1536.578219 C 2163.872789 1574.551409 2224.223038 1575.794579 2262.2339 1539.290589 C 2300.207091 1502.824272 2301.487933 1442.474023 2264.946271 1404.46316 Z M 2264.946271 1404.46316 " stroke="#0a2f4d" stroke-width="20" stroke-opacity="1" stroke-miterlimit="10"/><path fill="#fbc439" d="M 538.167969 228.183594 C 539.734375 229.820312 542.332031 229.867188 543.964844 228.300781 C 545.597656 226.730469 545.652344 224.132812 544.085938 222.5 C 542.515625 220.863281 539.917969 220.8125 538.285156 222.382812 C 536.648438 223.949219 536.59375 226.550781 538.167969 228.183594 " fill-opacity="1" fill-rule="nonzero"/><path stroke-linecap="butt" transform="matrix(-0.103692, 0, 0, -0.103692, 683.824601, 477.970844)" fill="none" stroke-linejoin="round" d="M 1404.710356 2408.944458 C 1389.603958 2393.159967 1364.552201 2392.707905 1348.805382 2407.814304 C 1333.058563 2422.958374 1332.531157 2448.010131 1347.637555 2463.75695 C 1362.781625 2479.541441 1387.833383 2480.031175 1403.580202 2464.887105 C 1419.364693 2449.780706 1419.892098 2424.691277 1404.710356 2408.944458 Z M 1404.710356 2408.944458 " stroke="#0a2f4d" stroke-width="20" stroke-opacity="1" stroke-miterlimit="10"/><path stroke-linecap="round" transform="matrix(-0.103692, 0, 0, -0.103692, 683.824601, 477.970844)" fill="none" stroke-linejoin="round" d="M 2199.321968 2566.03593 C 2199.321968 2566.03593 2459.10681 2752.812793 2558.334373 2782.00845 " stroke="#0a2f4d" stroke-width="20" stroke-opacity="1" stroke-miterlimit="10"/><path stroke-linecap="round" transform="matrix(-0.103692, 0, 0, -0.103692, 683.824601, 477.970844)" fill="none" stroke-linejoin="round" d="M 1494.708325 1826.726544 C 1494.708325 1826.726544 1667.245241 2079.655116 1869.580564 2270.274504 " stroke="#0a2f4d" stroke-width="20" stroke-opacity="1" stroke-miterlimit="10"/><path fill="#fbc439" d="M 415.023438 248.328125 C 415.023438 249.273438 415.054688 250.203125 415.113281 251.136719 C 415.144531 251.945312 415.207031 252.75 415.292969 253.546875 C 416.78125 268.363281 424.605469 281.3125 435.988281 289.675781 C 436.753906 290.234375 437.539062 290.78125 438.339844 291.300781 C 446.367188 296.53125 455.953125 299.566406 466.253906 299.566406 C 469.460938 299.566406 472.59375 299.277344 475.636719 298.710938 C 480.71875 297.765625 485.535156 296.082031 489.964844 293.757812 C 490.679688 293.382812 491.394531 292.992188 492.085938 292.585938 C 493.65625 291.664062 495.171875 290.667969 496.632812 289.589844 C 509.28125 280.257812 517.492188 265.253906 517.492188 248.328125 C 517.492188 245.171875 517.199219 242.082031 516.65625 239.082031 C 516.511719 238.285156 516.34375 237.496094 516.171875 236.707031 C 513.675781 225.984375 507.832031 216.558594 499.785156 209.59375 C 499.164062 209.074219 498.546875 208.554688 497.90625 208.042969 C 489.191406 201.195312 478.199219 197.105469 466.253906 197.105469 C 457.746094 197.105469 449.707031 199.183594 442.648438 202.851562 C 441.898438 203.253906 441.160156 203.648438 440.421875 204.085938 C 425.230469 212.972656 415.023438 229.457031 415.023438 248.328125 " fill-opacity="1" fill-rule="nonzero"/><path stroke-linecap="round" transform="matrix(-0.103692, 0, 0, -0.103692, 683.824601, 477.970844)" fill="none" stroke-linejoin="round" d="M 2592.314351 2214.670904 C 2592.314351 2205.554324 2592.012976 2196.588432 2591.447899 2187.584868 C 2591.146525 2179.786802 2590.543776 2172.026408 2589.714996 2164.341358 C 2575.362034 2021.45216 2499.905387 1896.570091 2390.129715 1815.914733 C 2382.746039 1810.527663 2375.174004 1805.253609 2367.451282 1800.243258 C 2290.035701 1749.800696 2197.589064 1720.529695 2098.248486 1720.529695 C 2067.319925 1720.529695 2037.107129 1723.31741 2007.760784 1728.779823 C 1958.749752 1737.896402 1912.300403 1754.132955 1869.580564 1776.547686 C 1862.686622 1780.16418 1855.792679 1783.931361 1849.124768 1787.84923 C 1833.980698 1796.739779 1819.364033 1806.346092 1805.274774 1816.743513 C 1683.293435 1906.741481 1604.107278 2051.438926 1604.107278 2214.670904 C 1604.107278 2245.109731 1606.932664 2274.908137 1612.169046 2303.840092 C 1613.562903 2311.525142 1615.182792 2319.134849 1616.840351 2326.744556 C 1640.912642 2430.15369 1697.269678 2521.055782 1774.873619 2588.22463 C 1780.863438 2593.234981 1786.815585 2598.245333 1792.993762 2603.180341 C 1877.039583 2669.219034 1983.048073 2708.661425 2098.248486 2708.661425 C 2180.297701 2708.661425 2257.826298 2688.620019 2325.899269 2653.246184 C 2333.132258 2649.365987 2340.252231 2645.561133 2347.372204 2641.34189 C 2493.877896 2555.638509 2592.314351 2396.663446 2592.314351 2214.670904 Z M 2592.314351 2214.670904 " stroke="#0a2f4d" stroke-width="20" stroke-opacity="1" stroke-miterlimit="10"/><path fill="#fbc439" d="M 464.40625 197.15625 C 465.023438 197.132812 465.636719 197.105469 466.253906 197.105469 C 478.199219 197.105469 489.191406 201.195312 497.90625 208.042969 C 498.546875 208.554688 499.164062 209.074219 499.785156 209.59375 C 507.832031 216.558594 513.675781 225.984375 516.171875 236.707031 C 516.34375 237.496094 516.511719 238.285156 516.65625 239.082031 C 517.199219 242.082031 517.492188 245.171875 517.492188 248.328125 C 517.492188 248.953125 517.464844 249.570312 517.441406 250.183594 C 499.765625 232.507812 482.085938 214.832031 464.40625 197.15625 " fill-opacity="1" fill-rule="nonzero"/><path stroke-linecap="butt" transform="matrix(-0.103692, 0, 0, -0.103692, 683.824601, 477.970844)" fill="none" stroke-linejoin="round" d="M 2116.067255 2708.171691 C 2110.115108 2708.397722 2104.200633 2708.661425 2098.248486 2708.661425 C 1983.048073 2708.661425 1877.039583 2669.219034 1792.993762 2603.180341 C 1786.815585 2598.245333 1780.863438 2593.234981 1774.873619 2588.22463 C 1697.269678 2521.055782 1640.912642 2430.15369 1616.840351 2326.744556 C 1615.182792 2319.134849 1613.562903 2311.525142 1612.169046 2303.840092 C 1606.932664 2274.908137 1604.107278 2245.109731 1604.107278 2214.670904 C 1604.107278 2208.643413 1604.37098 2202.691266 1604.597011 2196.776791 C 1775.061978 2367.241758 1945.564617 2537.706725 2116.067255 2708.171691 Z M 2116.067255 2708.171691 " stroke="#0a2f4d" stroke-width="20" stroke-opacity="1" stroke-miterlimit="10"/><path fill="#fbc439" d="M 469.136719 299.480469 C 468.183594 299.53125 467.222656 299.566406 466.253906 299.566406 C 455.953125 299.566406 446.367188 296.53125 438.339844 291.300781 C 437.539062 290.78125 436.753906 290.234375 435.988281 289.675781 C 424.605469 281.3125 416.78125 268.363281 415.292969 253.546875 C 415.207031 252.75 415.144531 251.945312 415.113281 251.136719 C 415.054688 250.203125 415.023438 249.273438 415.023438 248.328125 C 415.023438 247.367188 415.066406 246.410156 415.117188 245.457031 C 433.125 263.460938 451.128906 281.472656 469.136719 299.480469 " fill-opacity="1" fill-rule="nonzero"/><path stroke-linecap="butt" transform="matrix(-0.103692, 0, 0, -0.103692, 683.824601, 477.970844)" fill="none" stroke-linejoin="round" d="M 2070.446686 1721.358475 C 2079.638609 1720.868742 2088.905876 1720.529695 2098.248486 1720.529695 C 2197.589064 1720.529695 2290.035701 1749.800696 2367.451282 1800.243258 C 2375.174004 1805.253609 2382.746039 1810.527663 2390.129715 1815.914733 C 2499.905387 1896.570091 2575.362034 2021.45216 2589.714996 2164.341358 C 2590.543776 2172.026408 2591.146525 2179.786802 2591.447899 2187.584868 C 2592.012976 2196.588432 2592.314351 2205.554324 2592.314351 2214.670904 C 2592.314351 2223.93817 2591.899961 2233.167765 2591.410227 2242.359688 C 2417.743156 2068.730289 2244.113757 1895.025546 2070.446686 1721.358475 Z M 2070.446686 1721.358475 " stroke="#0a2f4d" stroke-width="20" stroke-opacity="1" stroke-miterlimit="10"/><path fill="#000000" d="M 435.988281 289.675781 C 436.753906 290.234375 437.539062 290.78125 438.339844 291.300781 C 438.277344 289.945312 438.570312 288.589844 439.390625 287.171875 C 441.546875 283.433594 445.152344 283.058594 449.34375 282.632812 C 453.570312 282.199219 458.359375 281.714844 461.144531 276.898438 C 463.917969 272.082031 461.921875 267.683594 460.167969 263.808594 C 458.433594 259.976562 456.941406 256.667969 459.097656 252.929688 C 461.246094 249.1875 464.859375 248.828125 469.039062 248.390625 C 473.273438 247.964844 478.066406 247.472656 480.835938 242.652344 C 483.609375 237.847656 481.625 233.453125 479.871094 229.574219 C 478.136719 225.742188 476.640625 222.4375 478.792969 218.695312 C 480.945312 214.957031 484.554688 214.582031 488.742188 214.160156 C 492.589844 213.769531 496.9375 213.320312 499.785156 209.59375 C 499.164062 209.074219 498.546875 208.554688 497.90625 208.042969 C 495.71875 211.023438 492.351562 211.359375 488.5 211.746094 C 484.265625 212.183594 479.472656 212.667969 476.695312 217.484375 C 473.925781 222.304688 475.910156 226.699219 477.667969 230.574219 C 479.398438 234.394531 480.902344 237.714844 478.746094 241.453125 C 476.589844 245.195312 472.980469 245.558594 468.792969 245.980469 C 464.558594 246.417969 459.765625 246.898438 456.992188 251.71875 C 454.21875 256.535156 456.207031 260.929688 457.964844 264.804688 C 459.691406 268.636719 461.191406 271.949219 459.039062 275.6875 C 456.882812 279.425781 453.277344 279.800781 449.089844 280.222656 C 444.863281 280.660156 440.054688 281.144531 437.285156 285.960938 C 436.5625 287.234375 436.160156 288.46875 435.988281 289.675781 " fill-opacity="1" fill-rule="nonzero"/><path fill="#000000" d="M 415.113281 251.136719 C 415.144531 251.945312 415.207031 252.75 415.292969 253.546875 C 416.222656 253.375 417.226562 253.265625 418.28125 253.171875 C 421.925781 252.796875 426.054688 252.371094 428.453125 248.195312 C 430.84375 244.03125 429.140625 240.253906 427.636719 236.914062 C 426.1875 233.707031 424.929688 230.9375 426.707031 227.839844 C 428.5 224.734375 431.527344 224.433594 435.023438 224.070312 C 438.667969 223.707031 442.792969 223.285156 445.191406 219.109375 C 447.597656 214.933594 445.878906 211.160156 444.382812 207.828125 C 443.59375 206.082031 442.855469 204.464844 442.648438 202.851562 C 441.898438 203.253906 441.160156 203.648438 440.421875 204.085938 C 440.785156 205.753906 441.5 207.332031 442.175781 208.820312 C 443.628906 212.027344 444.875 214.800781 443.097656 217.898438 C 441.316406 220.996094 438.289062 221.3125 434.78125 221.660156 C 431.136719 222.039062 427.023438 222.464844 424.613281 226.636719 C 422.214844 230.800781 423.921875 234.578125 425.425781 237.921875 C 426.875 241.125 428.136719 243.898438 426.359375 246.996094 C 424.5625 250.09375 421.542969 250.398438 418.042969 250.761719 C 417.082031 250.859375 416.089844 250.953125 415.113281 251.136719 " fill-opacity="1" fill-rule="nonzero"/><path fill="#000000" d="M 492.085938 292.585938 C 493.65625 291.664062 495.171875 290.667969 496.632812 289.589844 C 497.398438 286.375 496.054688 283.421875 494.84375 280.746094 C 493.394531 277.523438 492.144531 274.765625 493.921875 271.664062 C 495.707031 268.570312 498.730469 268.253906 502.238281 267.902344 C 505.882812 267.527344 510 267.101562 512.40625 262.925781 C 514.804688 258.761719 513.097656 254.984375 511.59375 251.648438 C 510.144531 248.4375 508.886719 245.664062 510.667969 242.566406 C 512.042969 240.183594 514.164062 239.460938 516.65625 239.082031 C 516.511719 238.285156 516.34375 237.496094 516.171875 236.707031 C 513.292969 237.15625 510.421875 238.148438 508.570312 241.359375 C 506.160156 245.53125 507.882812 249.308594 509.378906 252.648438 C 510.832031 255.859375 512.09375 258.628906 510.316406 261.730469 C 508.519531 264.828125 505.496094 265.132812 501.996094 265.492188 C 498.355469 265.855469 494.226562 266.28125 491.828125 270.457031 C 489.421875 274.632812 491.140625 278.410156 492.640625 281.738281 C 494.09375 284.945312 495.351562 287.714844 493.5625 290.820312 C 493.136719 291.554688 492.640625 292.136719 492.085938 292.585938 " fill-opacity="1" fill-rule="nonzero"/><path fill="#000000" d="M 475.636719 298.710938 C 480.71875 297.765625 485.535156 296.082031 489.964844 293.757812 C 488.574219 294.25 486.964844 294.398438 485.242188 294.582031 C 481.882812 294.929688 478.078125 295.320312 475.636719 298.710938 " fill-opacity="1" fill-rule="nonzero"/><path stroke-linecap="round" transform="matrix(-0.103692, 0, 0, -0.103692, 683.824601, 477.970844)" fill="none" stroke-linejoin="round" d="M 2007.760784 1842.285004 C 2007.760784 1842.285004 2811.639663 2542.717076 2719.984135 2725.538398 C 2675.041658 2783.967385 2440.609948 2628.307442 2440.609948 2628.307442 " stroke="#0a2f4d" stroke-width="20" stroke-opacity="1" stroke-miterlimit="10"/><path stroke-linecap="round" transform="matrix(-0.103692, 0, 0, -0.103692, 683.824601, 477.970844)" fill="none" stroke-linejoin="round" d="M 2631.606055 2391.76611 C 2789.714666 2578.203927 2901.863662 2753.114168 2859.068479 2838.591518 C 2837.783903 2866.204959 2782.933739 2855.845209 2722.658834 2832.111965 " stroke="#0a2f4d" stroke-width="20" stroke-opacity="1" stroke-miterlimit="10"/><path stroke-linecap="round" transform="matrix(-0.103692, 0, 0, -0.103692, 683.824601, 477.970844)" fill="none" stroke-linejoin="round" d="M 2098.210814 2032.942064 C 2098.210814 2032.942064 1726.729038 1706.063718 1632.77553 1702.183521 C 1538.822021 1698.303324 1682.766029 1842.285004 1682.766029 1842.285004 " stroke="#0a2f4d" stroke-width="20" stroke-opacity="1" stroke-miterlimit="10"/><path stroke-linecap="round" transform="matrix(-0.103692, 0, 0, -0.103692, 683.824601, 477.970844)" fill="none" stroke-linejoin="round" d="M 2229.798467 1973.495939 C 2229.798467 1973.495939 1661.669812 1473.590943 1517.989507 1467.676467 " stroke="#0a2f4d" stroke-width="20" stroke-opacity="1" stroke-miterlimit="10"/><path stroke-linecap="round" transform="matrix(-0.103692, 0, 0, -0.103692, 683.824601, 477.970844)" fill="none" stroke-linejoin="round" d="M 1600.942845 1842.285004 C 1600.942845 1842.285004 1434.923153 1616.555484 1517.989507 1581.520695 " stroke="#0a2f4d" stroke-width="20" stroke-opacity="1" stroke-miterlimit="10"/><path fill="#000000" d="M 407.351562 187.96875 C 407.351562 188.960938 408.160156 189.773438 409.152344 189.773438 C 410.144531 189.773438 410.949219 188.960938 410.949219 187.96875 C 410.949219 186.976562 410.144531 186.171875 409.152344 186.171875 C 408.160156 186.171875 407.351562 186.976562 407.351562 187.96875 " fill-opacity="1" fill-rule="nonzero"/><path fill="#000000" d="M 446.390625 270.28125 C 446.390625 271.277344 447.195312 272.082031 448.191406 272.082031 C 449.183594 272.082031 449.988281 271.277344 449.988281 270.28125 C 449.988281 269.285156 449.183594 268.484375 448.191406 268.484375 C 447.195312 268.484375 446.390625 269.285156 446.390625 270.28125 " fill-opacity="1" fill-rule="nonzero"/><path fill="#000000" d="M 513.890625 283.464844 C 513.890625 284.457031 514.699219 285.261719 515.695312 285.261719 C 516.6875 285.261719 517.492188 284.457031 517.492188 283.464844 C 517.492188 282.46875 516.6875 281.664062 515.695312 281.664062 C 514.699219 281.664062 513.890625 282.46875 513.890625 283.464844 " fill-opacity="1" fill-rule="nonzero"/><path stroke-linecap="round" transform="matrix(-0.103692, 0, 0, -0.103692, 683.824601, 477.970844)" fill="none" stroke-linejoin="round" d="M 1412.772125 1538.461809 C 1412.772125 1538.461809 1336.901088 1421.716852 1430.590894 1396.891125 " stroke="#0a2f4d" stroke-width="20" stroke-opacity="1" stroke-miterlimit="10"/><path stroke-linecap="round" transform="matrix(-0.103692, 0, 0, -0.103692, 683.824601, 477.970844)" fill="none" stroke-linejoin="round" d="M 1797.740411 2514.463214 C 1797.740411 2514.463214 1937.728879 2676.301335 2177.99972 2633.65684 " stroke="#0a2f4d" stroke-width="20" stroke-opacity="1" stroke-miterlimit="10"/><path fill="#000000" d="M 450.15625 206.09375 C 450.15625 207.167969 451.03125 208.042969 452.109375 208.042969 C 453.1875 208.042969 454.0625 207.167969 454.0625 206.09375 C 454.0625 205.015625 453.1875 204.144531 452.109375 204.144531 C 451.03125 204.144531 450.15625 205.015625 450.15625 206.09375 " fill-opacity="1" fill-rule="nonzero"/></svg>