<svg xmlns="http://www.w3.org/2000/svg" xmlns:xlink="http://www.w3.org/1999/xlink" width="1080" zoomAndPan="magnify" viewBox="0 0 810 809.999993" height="1080" preserveAspectRatio="xMidYMid meet" version="1.0"><defs><g/><clipPath id="6e84cb3d0f"><path d="M 508 269 L 536 269 L 536 297 L 508 297 Z M 508 269 " clip-rule="nonzero"/></clipPath><clipPath id="b30441df1c"><path d="M 289.710938 198.441406 L 522.488281 168.078125 L 549.265625 373.335938 L 316.488281 403.703125 Z M 289.710938 198.441406 " clip-rule="nonzero"/></clipPath><clipPath id="1254f6edca"><path d="M 522.199219 168.113281 L 289.421875 198.480469 L 316.195312 403.738281 L 548.972656 373.375 Z M 522.199219 168.113281 " clip-rule="nonzero"/></clipPath><clipPath id="8e5d7b7893"><path d="M 507 268 L 537 268 L 537 298 L 507 298 Z M 507 268 " clip-rule="nonzero"/></clipPath><clipPath id="3561b29011"><path d="M 289.710938 198.441406 L 522.488281 168.078125 L 549.265625 373.335938 L 316.488281 403.703125 Z M 289.710938 198.441406 " clip-rule="nonzero"/></clipPath><clipPath id="7222f60bd4"><path d="M 522.199219 168.113281 L 289.421875 198.480469 L 316.195312 403.738281 L 548.972656 373.375 Z M 522.199219 168.113281 " clip-rule="nonzero"/></clipPath><clipPath id="abc578bede"><path d="M 301 263 L 329 263 L 329 291 L 301 291 Z M 301 263 " clip-rule="nonzero"/></clipPath><clipPath id="cc7b6382b1"><path d="M 289.710938 198.441406 L 522.488281 168.078125 L 549.265625 373.335938 L 316.488281 403.703125 Z M 289.710938 198.441406 " clip-rule="nonzero"/></clipPath><clipPath id="ff7ba52b05"><path d="M 522.199219 168.113281 L 289.421875 198.480469 L 316.195312 403.738281 L 548.972656 373.375 Z M 522.199219 168.113281 " clip-rule="nonzero"/></clipPath><clipPath id="9fe8789107"><path d="M 300 262 L 330 262 L 330 292 L 300 292 Z M 300 262 " clip-rule="nonzero"/></clipPath><clipPath id="49ceeaf268"><path d="M 289.710938 198.441406 L 522.488281 168.078125 L 549.265625 373.335938 L 316.488281 403.703125 Z M 289.710938 198.441406 " clip-rule="nonzero"/></clipPath><clipPath id="e3b09394b9"><path d="M 522.199219 168.113281 L 289.421875 198.480469 L 316.195312 403.738281 L 548.972656 373.375 Z M 522.199219 168.113281 " clip-rule="nonzero"/></clipPath><clipPath id="b50e41d405"><path d="M 433 369 L 450 369 L 450 387 L 433 387 Z M 433 369 " clip-rule="nonzero"/></clipPath><clipPath id="dae3b2ec8b"><path d="M 289.710938 198.441406 L 522.488281 168.078125 L 549.265625 373.335938 L 316.488281 403.703125 Z M 289.710938 198.441406 " clip-rule="nonzero"/></clipPath><clipPath id="c0deb2ea63"><path d="M 522.199219 168.113281 L 289.421875 198.480469 L 316.195312 403.738281 L 548.972656 373.375 Z M 522.199219 168.113281 " clip-rule="nonzero"/></clipPath><clipPath id="a55031663b"><path d="M 432 368 L 451 368 L 451 388 L 432 388 Z M 432 368 " clip-rule="nonzero"/></clipPath><clipPath id="58416d437b"><path d="M 289.710938 198.441406 L 522.488281 168.078125 L 549.265625 373.335938 L 316.488281 403.703125 Z M 289.710938 198.441406 " clip-rule="nonzero"/></clipPath><clipPath id="d01ea2cf38"><path d="M 522.199219 168.113281 L 289.421875 198.480469 L 316.195312 403.738281 L 548.972656 373.375 Z M 522.199219 168.113281 " clip-rule="nonzero"/></clipPath><clipPath id="57809765cf"><path d="M 445 178 L 462 178 L 462 196 L 445 196 Z M 445 178 " clip-rule="nonzero"/></clipPath><clipPath id="5fddcfd34a"><path d="M 289.710938 198.441406 L 522.488281 168.078125 L 549.265625 373.335938 L 316.488281 403.703125 Z M 289.710938 198.441406 " clip-rule="nonzero"/></clipPath><clipPath id="ea3353f251"><path d="M 522.199219 168.113281 L 289.421875 198.480469 L 316.195312 403.738281 L 548.972656 373.375 Z M 522.199219 168.113281 " clip-rule="nonzero"/></clipPath><clipPath id="df5c72168d"><path d="M 444 177 L 463 177 L 463 197 L 444 197 Z M 444 177 " clip-rule="nonzero"/></clipPath><clipPath id="fe02ea9173"><path d="M 289.710938 198.441406 L 522.488281 168.078125 L 549.265625 373.335938 L 316.488281 403.703125 Z M 289.710938 198.441406 " clip-rule="nonzero"/></clipPath><clipPath id="aa6031a28d"><path d="M 522.199219 168.113281 L 289.421875 198.480469 L 316.195312 403.738281 L 548.972656 373.375 Z M 522.199219 168.113281 " clip-rule="nonzero"/></clipPath><clipPath id="4ec5e093af"><path d="M 387 197 L 398 197 L 398 209 L 387 209 Z M 387 197 " clip-rule="nonzero"/></clipPath><clipPath id="01bc629ec8"><path d="M 289.710938 198.441406 L 522.488281 168.078125 L 549.265625 373.335938 L 316.488281 403.703125 Z M 289.710938 198.441406 " clip-rule="nonzero"/></clipPath><clipPath id="1663f506b3"><path d="M 522.199219 168.113281 L 289.421875 198.480469 L 316.195312 403.738281 L 548.972656 373.375 Z M 522.199219 168.113281 " clip-rule="nonzero"/></clipPath><clipPath id="11fdcf69d4"><path d="M 386 196 L 399 196 L 399 210 L 386 210 Z M 386 196 " clip-rule="nonzero"/></clipPath><clipPath id="534cd1d34d"><path d="M 289.710938 198.441406 L 522.488281 168.078125 L 549.265625 373.335938 L 316.488281 403.703125 Z M 289.710938 198.441406 " clip-rule="nonzero"/></clipPath><clipPath id="02d50295de"><path d="M 522.199219 168.113281 L 289.421875 198.480469 L 316.195312 403.738281 L 548.972656 373.375 Z M 522.199219 168.113281 " clip-rule="nonzero"/></clipPath><clipPath id="545da243de"><path d="M 490 313 L 500 313 L 500 323 L 490 323 Z M 490 313 " clip-rule="nonzero"/></clipPath><clipPath id="30b93312fa"><path d="M 289.710938 198.441406 L 522.488281 168.078125 L 549.265625 373.335938 L 316.488281 403.703125 Z M 289.710938 198.441406 " clip-rule="nonzero"/></clipPath><clipPath id="7fe65c2fb4"><path d="M 522.199219 168.113281 L 289.421875 198.480469 L 316.195312 403.738281 L 548.972656 373.375 Z M 522.199219 168.113281 " clip-rule="nonzero"/></clipPath><clipPath id="5b82c585ee"><path d="M 489 312 L 501 312 L 501 324 L 489 324 Z M 489 312 " clip-rule="nonzero"/></clipPath><clipPath id="29f927f21f"><path d="M 289.710938 198.441406 L 522.488281 168.078125 L 549.265625 373.335938 L 316.488281 403.703125 Z M 289.710938 198.441406 " clip-rule="nonzero"/></clipPath><clipPath id="fffbca7dd7"><path d="M 522.199219 168.113281 L 289.421875 198.480469 L 316.195312 403.738281 L 548.972656 373.375 Z M 522.199219 168.113281 " clip-rule="nonzero"/></clipPath><clipPath id="023850fd37"><path d="M 349 219 L 363 219 L 363 232 L 349 232 Z M 349 219 " clip-rule="nonzero"/></clipPath><clipPath id="2c620dc226"><path d="M 289.710938 198.441406 L 522.488281 168.078125 L 549.265625 373.335938 L 316.488281 403.703125 Z M 289.710938 198.441406 " clip-rule="nonzero"/></clipPath><clipPath id="8511ed3d6d"><path d="M 522.199219 168.113281 L 289.421875 198.480469 L 316.195312 403.738281 L 548.972656 373.375 Z M 522.199219 168.113281 " clip-rule="nonzero"/></clipPath><clipPath id="21a9441b05"><path d="M 348 217 L 364 217 L 364 233 L 348 233 Z M 348 217 " clip-rule="nonzero"/></clipPath><clipPath id="69a1105a04"><path d="M 289.710938 198.441406 L 522.488281 168.078125 L 549.265625 373.335938 L 316.488281 403.703125 Z M 289.710938 198.441406 " clip-rule="nonzero"/></clipPath><clipPath id="cd393000ab"><path d="M 522.199219 168.113281 L 289.421875 198.480469 L 316.195312 403.738281 L 548.972656 373.375 Z M 522.199219 168.113281 " clip-rule="nonzero"/></clipPath><clipPath id="e771ca8779"><path d="M 330 328 L 344 328 L 344 342 L 330 342 Z M 330 328 " clip-rule="nonzero"/></clipPath><clipPath id="ced3d714e8"><path d="M 289.710938 198.441406 L 522.488281 168.078125 L 549.265625 373.335938 L 316.488281 403.703125 Z M 289.710938 198.441406 " clip-rule="nonzero"/></clipPath><clipPath id="a61ea35dc6"><path d="M 522.199219 168.113281 L 289.421875 198.480469 L 316.195312 403.738281 L 548.972656 373.375 Z M 522.199219 168.113281 " clip-rule="nonzero"/></clipPath><clipPath id="1ba814db18"><path d="M 329 327 L 345 327 L 345 343 L 329 343 Z M 329 327 " clip-rule="nonzero"/></clipPath><clipPath id="96257b417f"><path d="M 289.710938 198.441406 L 522.488281 168.078125 L 549.265625 373.335938 L 316.488281 403.703125 Z M 289.710938 198.441406 " clip-rule="nonzero"/></clipPath><clipPath id="bbde8f271b"><path d="M 522.199219 168.113281 L 289.421875 198.480469 L 316.195312 403.738281 L 548.972656 373.375 Z M 522.199219 168.113281 " clip-rule="nonzero"/></clipPath><clipPath id="829034ce4a"><path d="M 411 344 L 431 344 L 431 365 L 411 365 Z M 411 344 " clip-rule="nonzero"/></clipPath><clipPath id="d32b977c98"><path d="M 289.710938 198.441406 L 522.488281 168.078125 L 549.265625 373.335938 L 316.488281 403.703125 Z M 289.710938 198.441406 " clip-rule="nonzero"/></clipPath><clipPath id="4e4f6b161f"><path d="M 522.199219 168.113281 L 289.421875 198.480469 L 316.195312 403.738281 L 548.972656 373.375 Z M 522.199219 168.113281 " clip-rule="nonzero"/></clipPath><clipPath id="45004051e5"><path d="M 410 343 L 432 343 L 432 366 L 410 366 Z M 410 343 " clip-rule="nonzero"/></clipPath><clipPath id="bf25855135"><path d="M 289.710938 198.441406 L 522.488281 168.078125 L 549.265625 373.335938 L 316.488281 403.703125 Z M 289.710938 198.441406 " clip-rule="nonzero"/></clipPath><clipPath id="79d23538ed"><path d="M 522.199219 168.113281 L 289.421875 198.480469 L 316.195312 403.738281 L 548.972656 373.375 Z M 522.199219 168.113281 " clip-rule="nonzero"/></clipPath><clipPath id="28c1e6514d"><path d="M 488 239 L 497 239 L 497 249 L 488 249 Z M 488 239 " clip-rule="nonzero"/></clipPath><clipPath id="b292f04a6c"><path d="M 289.710938 198.441406 L 522.488281 168.078125 L 549.265625 373.335938 L 316.488281 403.703125 Z M 289.710938 198.441406 " clip-rule="nonzero"/></clipPath><clipPath id="546014267c"><path d="M 522.199219 168.113281 L 289.421875 198.480469 L 316.195312 403.738281 L 548.972656 373.375 Z M 522.199219 168.113281 " clip-rule="nonzero"/></clipPath><clipPath id="96c58a18c3"><path d="M 487 238 L 498 238 L 498 250 L 487 250 Z M 487 238 " clip-rule="nonzero"/></clipPath><clipPath id="a89fb907f0"><path d="M 289.710938 198.441406 L 522.488281 168.078125 L 549.265625 373.335938 L 316.488281 403.703125 Z M 289.710938 198.441406 " clip-rule="nonzero"/></clipPath><clipPath id="2f008c46d0"><path d="M 522.199219 168.113281 L 289.421875 198.480469 L 316.195312 403.738281 L 548.972656 373.375 Z M 522.199219 168.113281 " clip-rule="nonzero"/></clipPath><clipPath id="ddf6f5ccec"><path d="M 365 223 L 407 223 L 407 243 L 365 243 Z M 365 223 " clip-rule="nonzero"/></clipPath><clipPath id="238de9a1b2"><path d="M 289.710938 198.441406 L 522.488281 168.078125 L 549.265625 373.335938 L 316.488281 403.703125 Z M 289.710938 198.441406 " clip-rule="nonzero"/></clipPath><clipPath id="53af90582b"><path d="M 522.199219 168.113281 L 289.421875 198.480469 L 316.195312 403.738281 L 548.972656 373.375 Z M 522.199219 168.113281 " clip-rule="nonzero"/></clipPath><clipPath id="e3589fd823"><path d="M 442 266 L 490 266 L 490 310 L 442 310 Z M 442 266 " clip-rule="nonzero"/></clipPath><clipPath id="3323472b60"><path d="M 289.710938 198.441406 L 522.488281 168.078125 L 549.265625 373.335938 L 316.488281 403.703125 Z M 289.710938 198.441406 " clip-rule="nonzero"/></clipPath><clipPath id="cfc0f88146"><path d="M 522.199219 168.113281 L 289.421875 198.480469 L 316.195312 403.738281 L 548.972656 373.375 Z M 522.199219 168.113281 " clip-rule="nonzero"/></clipPath><clipPath id="c068d3714f"><path d="M 369 225 L 473 225 L 473 328 L 369 328 Z M 369 225 " clip-rule="nonzero"/></clipPath><clipPath id="cb28e37aa0"><path d="M 289.710938 198.441406 L 522.488281 168.078125 L 549.265625 373.335938 L 316.488281 403.703125 Z M 289.710938 198.441406 " clip-rule="nonzero"/></clipPath><clipPath id="1596ca689d"><path d="M 522.199219 168.113281 L 289.421875 198.480469 L 316.195312 403.738281 L 548.972656 373.375 Z M 522.199219 168.113281 " clip-rule="nonzero"/></clipPath><clipPath id="27d61353a5"><path d="M 368 224 L 474 224 L 474 329 L 368 329 Z M 368 224 " clip-rule="nonzero"/></clipPath><clipPath id="b413d05b7c"><path d="M 289.710938 198.441406 L 522.488281 168.078125 L 549.265625 373.335938 L 316.488281 403.703125 Z M 289.710938 198.441406 " clip-rule="nonzero"/></clipPath><clipPath id="d5df4df4d7"><path d="M 522.199219 168.113281 L 289.421875 198.480469 L 316.195312 403.738281 L 548.972656 373.375 Z M 522.199219 168.113281 " clip-rule="nonzero"/></clipPath><clipPath id="55960d454e"><path d="M 412 225 L 473 225 L 473 272 L 412 272 Z M 412 225 " clip-rule="nonzero"/></clipPath><clipPath id="39d605bd87"><path d="M 289.710938 198.441406 L 522.488281 168.078125 L 549.265625 373.335938 L 316.488281 403.703125 Z M 289.710938 198.441406 " clip-rule="nonzero"/></clipPath><clipPath id="e4314f71f9"><path d="M 522.199219 168.113281 L 289.421875 198.480469 L 316.195312 403.738281 L 548.972656 373.375 Z M 522.199219 168.113281 " clip-rule="nonzero"/></clipPath><clipPath id="b39bf78efc"><path d="M 411 224 L 474 224 L 474 273 L 411 273 Z M 411 224 " clip-rule="nonzero"/></clipPath><clipPath id="d3132b294f"><path d="M 289.710938 198.441406 L 522.488281 168.078125 L 549.265625 373.335938 L 316.488281 403.703125 Z M 289.710938 198.441406 " clip-rule="nonzero"/></clipPath><clipPath id="1c9fd56059"><path d="M 522.199219 168.113281 L 289.421875 198.480469 L 316.195312 403.738281 L 548.972656 373.375 Z M 522.199219 168.113281 " clip-rule="nonzero"/></clipPath><clipPath id="e91a1fd2df"><path d="M 369 280 L 431 280 L 431 328 L 369 328 Z M 369 280 " clip-rule="nonzero"/></clipPath><clipPath id="877d2f6df9"><path d="M 289.710938 198.441406 L 522.488281 168.078125 L 549.265625 373.335938 L 316.488281 403.703125 Z M 289.710938 198.441406 " clip-rule="nonzero"/></clipPath><clipPath id="10eb1193d0"><path d="M 522.199219 168.113281 L 289.421875 198.480469 L 316.195312 403.738281 L 548.972656 373.375 Z M 522.199219 168.113281 " clip-rule="nonzero"/></clipPath><clipPath id="67ac579977"><path d="M 368 279 L 432 279 L 432 329 L 368 329 Z M 368 279 " clip-rule="nonzero"/></clipPath><clipPath id="abcace9aa1"><path d="M 289.710938 198.441406 L 522.488281 168.078125 L 549.265625 373.335938 L 316.488281 403.703125 Z M 289.710938 198.441406 " clip-rule="nonzero"/></clipPath><clipPath id="70967db687"><path d="M 522.199219 168.113281 L 289.421875 198.480469 L 316.195312 403.738281 L 548.972656 373.375 Z M 522.199219 168.113281 " clip-rule="nonzero"/></clipPath><clipPath id="8f86b5a59f"><path d="M 396 232 L 450 232 L 450 323 L 396 323 Z M 396 232 " clip-rule="nonzero"/></clipPath><clipPath id="89b5f03214"><path d="M 289.710938 198.441406 L 522.488281 168.078125 L 549.265625 373.335938 L 316.488281 403.703125 Z M 289.710938 198.441406 " clip-rule="nonzero"/></clipPath><clipPath id="36a37bed07"><path d="M 522.199219 168.113281 L 289.421875 198.480469 L 316.195312 403.738281 L 548.972656 373.375 Z M 522.199219 168.113281 " clip-rule="nonzero"/></clipPath><clipPath id="b2f53fde7f"><path d="M 370 234 L 398 234 L 398 289 L 370 289 Z M 370 234 " clip-rule="nonzero"/></clipPath><clipPath id="f3e41bf07f"><path d="M 289.710938 198.441406 L 522.488281 168.078125 L 549.265625 373.335938 L 316.488281 403.703125 Z M 289.710938 198.441406 " clip-rule="nonzero"/></clipPath><clipPath id="33893b10ca"><path d="M 522.199219 168.113281 L 289.421875 198.480469 L 316.195312 403.738281 L 548.972656 373.375 Z M 522.199219 168.113281 " clip-rule="nonzero"/></clipPath><clipPath id="8d9d25e2da"><path d="M 448 258 L 470 258 L 470 318 L 448 318 Z M 448 258 " clip-rule="nonzero"/></clipPath><clipPath id="a4f6cb208f"><path d="M 289.710938 198.441406 L 522.488281 168.078125 L 549.265625 373.335938 L 316.488281 403.703125 Z M 289.710938 198.441406 " clip-rule="nonzero"/></clipPath><clipPath id="716e8cff6b"><path d="M 522.199219 168.113281 L 289.421875 198.480469 L 316.195312 403.738281 L 548.972656 373.375 Z M 522.199219 168.113281 " clip-rule="nonzero"/></clipPath><clipPath id="f02483444f"><path d="M 436 318 L 451 318 L 451 326 L 436 326 Z M 436 318 " clip-rule="nonzero"/></clipPath><clipPath id="e06fdf2b2d"><path d="M 289.710938 198.441406 L 522.488281 168.078125 L 549.265625 373.335938 L 316.488281 403.703125 Z M 289.710938 198.441406 " clip-rule="nonzero"/></clipPath><clipPath id="1563945d49"><path d="M 522.199219 168.113281 L 289.421875 198.480469 L 316.195312 403.738281 L 548.972656 373.375 Z M 522.199219 168.113281 " clip-rule="nonzero"/></clipPath><clipPath id="c83709e2e7"><path d="M 348 229 L 437 229 L 437 315 L 348 315 Z M 348 229 " clip-rule="nonzero"/></clipPath><clipPath id="4a611488c5"><path d="M 289.710938 198.441406 L 522.488281 168.078125 L 549.265625 373.335938 L 316.488281 403.703125 Z M 289.710938 198.441406 " clip-rule="nonzero"/></clipPath><clipPath id="ab72318697"><path d="M 522.199219 168.113281 L 289.421875 198.480469 L 316.195312 403.738281 L 548.972656 373.375 Z M 522.199219 168.113281 " clip-rule="nonzero"/></clipPath><clipPath id="0e103886a6"><path d="M 332 219 L 365 219 L 365 267 L 332 267 Z M 332 219 " clip-rule="nonzero"/></clipPath><clipPath id="d75289ef89"><path d="M 289.710938 198.441406 L 522.488281 168.078125 L 549.265625 373.335938 L 316.488281 403.703125 Z M 289.710938 198.441406 " clip-rule="nonzero"/></clipPath><clipPath id="ca3c83d396"><path d="M 522.199219 168.113281 L 289.421875 198.480469 L 316.195312 403.738281 L 548.972656 373.375 Z M 522.199219 168.113281 " clip-rule="nonzero"/></clipPath><clipPath id="41e460ebaa"><path d="M 422 294 L 480 294 L 480 325 L 422 325 Z M 422 294 " clip-rule="nonzero"/></clipPath><clipPath id="3649e8e0bb"><path d="M 289.710938 198.441406 L 522.488281 168.078125 L 549.265625 373.335938 L 316.488281 403.703125 Z M 289.710938 198.441406 " clip-rule="nonzero"/></clipPath><clipPath id="a2418eaad7"><path d="M 522.199219 168.113281 L 289.421875 198.480469 L 316.195312 403.738281 L 548.972656 373.375 Z M 522.199219 168.113281 " clip-rule="nonzero"/></clipPath><clipPath id="9acad33fdd"><path d="M 409 302 L 492 302 L 492 347 L 409 347 Z M 409 302 " clip-rule="nonzero"/></clipPath><clipPath id="e92ae7762d"><path d="M 289.710938 198.441406 L 522.488281 168.078125 L 549.265625 373.335938 L 316.488281 403.703125 Z M 289.710938 198.441406 " clip-rule="nonzero"/></clipPath><clipPath id="59aeb6c64d"><path d="M 522.199219 168.113281 L 289.421875 198.480469 L 316.195312 403.738281 L 548.972656 373.375 Z M 522.199219 168.113281 " clip-rule="nonzero"/></clipPath><clipPath id="1f8aa0e82b"><path d="M 476 307 L 493 307 L 493 335 L 476 335 Z M 476 307 " clip-rule="nonzero"/></clipPath><clipPath id="2dc085126f"><path d="M 289.710938 198.441406 L 522.488281 168.078125 L 549.265625 373.335938 L 316.488281 403.703125 Z M 289.710938 198.441406 " clip-rule="nonzero"/></clipPath><clipPath id="476cba369e"><path d="M 522.199219 168.113281 L 289.421875 198.480469 L 316.195312 403.738281 L 548.972656 373.375 Z M 522.199219 168.113281 " clip-rule="nonzero"/></clipPath><clipPath id="9cf3a7501f"><path d="M 354 222 L 359 222 L 359 226 L 354 226 Z M 354 222 " clip-rule="nonzero"/></clipPath><clipPath id="729e7d2cc8"><path d="M 289.710938 198.441406 L 522.488281 168.078125 L 549.265625 373.335938 L 316.488281 403.703125 Z M 289.710938 198.441406 " clip-rule="nonzero"/></clipPath><clipPath id="c0b67de461"><path d="M 522.199219 168.113281 L 289.421875 198.480469 L 316.195312 403.738281 L 548.972656 373.375 Z M 522.199219 168.113281 " clip-rule="nonzero"/></clipPath><clipPath id="0a8be400ff"><path d="M 404 298 L 408 298 L 408 303 L 404 303 Z M 404 298 " clip-rule="nonzero"/></clipPath><clipPath id="d65fed9a7a"><path d="M 289.710938 198.441406 L 522.488281 168.078125 L 549.265625 373.335938 L 316.488281 403.703125 Z M 289.710938 198.441406 " clip-rule="nonzero"/></clipPath><clipPath id="64549fa902"><path d="M 522.199219 168.113281 L 289.421875 198.480469 L 316.195312 403.738281 L 548.972656 373.375 Z M 522.199219 168.113281 " clip-rule="nonzero"/></clipPath><clipPath id="a78fe36ceb"><path d="M 472 303 L 477 303 L 477 307 L 472 307 Z M 472 303 " clip-rule="nonzero"/></clipPath><clipPath id="8efd198fa8"><path d="M 289.710938 198.441406 L 522.488281 168.078125 L 549.265625 373.335938 L 316.488281 403.703125 Z M 289.710938 198.441406 " clip-rule="nonzero"/></clipPath><clipPath id="081b57d21d"><path d="M 522.199219 168.113281 L 289.421875 198.480469 L 316.195312 403.738281 L 548.972656 373.375 Z M 522.199219 168.113281 " clip-rule="nonzero"/></clipPath><clipPath id="6b8cf9ef51"><path d="M 499 335 L 506 335 L 506 353 L 499 353 Z M 499 335 " clip-rule="nonzero"/></clipPath><clipPath id="270e324859"><path d="M 289.710938 198.441406 L 522.488281 168.078125 L 549.265625 373.335938 L 316.488281 403.703125 Z M 289.710938 198.441406 " clip-rule="nonzero"/></clipPath><clipPath id="4585445faf"><path d="M 522.199219 168.113281 L 289.421875 198.480469 L 316.195312 403.738281 L 548.972656 373.375 Z M 522.199219 168.113281 " clip-rule="nonzero"/></clipPath><clipPath id="3828617a51"><path d="M 406 231 L 449 231 L 449 243 L 406 243 Z M 406 231 " clip-rule="nonzero"/></clipPath><clipPath id="cb12486ab1"><path d="M 289.710938 198.441406 L 522.488281 168.078125 L 549.265625 373.335938 L 316.488281 403.703125 Z M 289.710938 198.441406 " clip-rule="nonzero"/></clipPath><clipPath id="be8fafae57"><path d="M 522.199219 168.113281 L 289.421875 198.480469 L 316.195312 403.738281 L 548.972656 373.375 Z M 522.199219 168.113281 " clip-rule="nonzero"/></clipPath><clipPath id="9251b83e46"><path d="M 399 234 L 404 234 L 404 239 L 399 239 Z M 399 234 " clip-rule="nonzero"/></clipPath><clipPath id="d4756b63fb"><path d="M 289.710938 198.441406 L 522.488281 168.078125 L 549.265625 373.335938 L 316.488281 403.703125 Z M 289.710938 198.441406 " clip-rule="nonzero"/></clipPath><clipPath id="0e549ee19f"><path d="M 522.199219 168.113281 L 289.421875 198.480469 L 316.195312 403.738281 L 548.972656 373.375 Z M 522.199219 168.113281 " clip-rule="nonzero"/></clipPath></defs><g fill="#00ffff" fill-opacity="1"><g transform="translate(263.29094, 526.907184)"><g><path d="M 248.6875 -89.328125 L 261.4375 -77.28125 C 260.945312 -77.070312 256.492188 -73.003906 248.078125 -65.078125 C 239.660156 -57.148438 230.710938 -48.925781 221.234375 -40.40625 C 211.765625 -31.894531 199.585938 -22.78125 184.703125 -13.0625 C 169.816406 -3.34375 155.359375 4.617188 141.328125 10.828125 C 127.304688 17.035156 112.054688 20.789062 95.578125 22.09375 C 79.109375 23.394531 63.976562 20.96875 50.1875 14.8125 C 34.820312 7.582031 25.726562 -3.664062 22.90625 -18.9375 C 20.082031 -34.207031 22.148438 -50.914062 29.109375 -69.0625 C 36.066406 -87.207031 44.113281 -104.789062 53.25 -121.8125 C 62.394531 -138.832031 71.289062 -154.53125 79.9375 -168.90625 C 88.582031 -183.28125 93.113281 -192.421875 93.53125 -196.328125 C 95.757812 -195.804688 98.722656 -195.082031 102.421875 -194.15625 C 106.117188 -193.226562 112.296875 -190.648438 120.953125 -186.421875 C 129.609375 -182.191406 136.523438 -177.460938 141.703125 -172.234375 C 146.890625 -167.015625 150.21875 -159.804688 151.6875 -150.609375 C 153.164062 -141.421875 150.640625 -131.445312 144.109375 -120.6875 C 108.148438 -60.925781 95.421875 -25.992188 105.921875 -15.890625 C 110.265625 -11.609375 118.269531 -10.71875 129.9375 -13.21875 C 144.257812 -16.25 161.332031 -24.144531 181.15625 -36.90625 C 200.988281 -49.664062 217.296875 -61.554688 230.078125 -72.578125 Z M 179.328125 -209.5625 C 168.484375 -205.101562 157.664062 -205.125 146.875 -209.625 C 136.082031 -214.125 128.453125 -221.800781 123.984375 -232.65625 C 119.523438 -243.507812 119.546875 -254.328125 124.046875 -265.109375 C 128.546875 -275.898438 136.21875 -283.523438 147.0625 -287.984375 C 157.914062 -292.453125 168.738281 -292.4375 179.53125 -287.9375 C 190.320312 -283.4375 197.945312 -275.757812 202.40625 -264.90625 C 206.875 -254.050781 206.859375 -243.226562 202.359375 -232.4375 C 197.859375 -221.65625 190.179688 -214.03125 179.328125 -209.5625 Z M 179.328125 -209.5625 "/></g></g></g><g clip-path="url(#6e84cb3d0f)"><g clip-path="url(#b30441df1c)"><g clip-path="url(#1254f6edca)"><path fill="#00ffff" d="M 517.777344 285.371094 C 515.703125 284.628906 512.757812 284.585938 508.238281 284.71875 C 512.640625 283.6875 515.476562 282.894531 517.289062 281.644531 C 516.347656 279.660156 514.296875 277.546875 511.003906 274.441406 C 514.847656 276.832031 517.414062 278.269531 519.578125 278.671875 C 520.316406 276.601562 520.359375 273.660156 520.226562 269.136719 C 521.257812 273.542969 522.050781 276.375 523.300781 278.183594 C 525.289062 277.242188 527.402344 275.195312 530.503906 271.902344 C 528.113281 275.742188 526.675781 278.3125 526.277344 280.472656 C 528.347656 281.214844 531.289062 281.257812 535.816406 281.125 C 531.40625 282.152344 528.574219 282.949219 526.769531 284.199219 C 527.707031 286.183594 529.753906 288.292969 533.050781 291.402344 C 529.207031 289.011719 526.636719 287.574219 524.472656 287.175781 C 523.730469 289.246094 523.6875 292.1875 523.820312 296.714844 C 522.792969 292.300781 521.996094 289.472656 520.75 287.664062 C 518.761719 288.601562 516.652344 290.648438 513.546875 293.945312 C 515.933594 290.097656 517.375 287.53125 517.777344 285.371094 " fill-opacity="1" fill-rule="nonzero"/></g></g></g><g clip-path="url(#8e5d7b7893)"><g clip-path="url(#3561b29011)"><g clip-path="url(#7222f60bd4)"><path stroke-linecap="butt" transform="matrix(-0.10282, 0.0134125, -0.0134125, -0.10282, 666.465786, 476.07662)" fill="none" stroke-linejoin="round" d="M 1184.007326 2009.191303 C 1202.917168 2018.876295 1231.029488 2022.961325 1274.415285 2027.32912 C 1231.029395 2031.699237 1202.920236 2035.744687 1184.028053 2045.437396 C 1190.555285 2065.588259 1207.530628 2088.355736 1235.147265 2122.16103 C 1201.371796 2094.504691 1178.622548 2077.556472 1158.429596 2071.009319 C 1148.786832 2089.886679 1144.706675 2117.961643 1140.334006 2161.384796 C 1135.968763 2117.96155 1131.91844 2089.889747 1122.220858 2071.034919 C 1102.032639 2077.557278 1079.270036 2094.495266 1045.502096 2122.116776 C 1073.153563 2088.378662 1090.106654 2065.592058 1096.611579 2045.431589 C 1077.739093 2035.75147 1049.664128 2031.671312 1006.203621 2027.293771 C 1049.659349 2022.970756 1077.736024 2018.883078 1096.553497 2009.180623 C 1090.063621 1989.034633 1073.12076 1966.309384 1045.47164 1932.461862 C 1079.247109 1960.118201 1102.033713 1977.071292 1122.231538 1983.58109 C 1131.911657 1964.708603 1135.991814 1936.633639 1140.369355 1893.173131 C 1144.687498 1936.666215 1148.780049 1964.705535 1158.440275 1983.555491 C 1178.623621 1977.070487 1201.34887 1960.127626 1235.159037 1932.473633 C 1207.53518 1966.291331 1190.549606 1989.035706 1184.007326 2009.191303 Z M 1184.007326 2009.191303 " stroke="#0a2f4d" stroke-width="20" stroke-opacity="1" stroke-miterlimit="10"/></g></g></g><g clip-path="url(#abc578bede)"><g clip-path="url(#cc7b6382b1)"><g clip-path="url(#ff7ba52b05)"><path fill="#00ffff" d="M 310.859375 279.476562 C 308.785156 278.734375 305.847656 278.691406 301.324219 278.824219 C 305.730469 277.796875 308.5625 277.003906 310.375 275.753906 C 309.4375 273.761719 307.386719 271.648438 304.09375 268.550781 C 307.933594 270.9375 310.503906 272.375 312.664062 272.773438 C 313.40625 270.707031 313.449219 267.761719 313.308594 263.238281 C 314.34375 267.644531 315.136719 270.484375 316.390625 272.289062 C 318.375 271.347656 320.488281 269.300781 323.589844 266.007812 C 321.203125 269.851562 319.765625 272.417969 319.363281 274.582031 C 321.4375 275.324219 324.375 275.363281 328.902344 275.226562 C 324.492188 276.257812 321.664062 277.054688 319.855469 278.304688 C 320.789062 280.289062 322.84375 282.402344 326.136719 285.507812 C 322.289062 283.117188 319.722656 281.679688 317.5625 281.28125 C 316.816406 283.347656 316.773438 286.292969 316.90625 290.816406 C 315.882812 286.410156 315.082031 283.574219 313.835938 281.769531 C 311.851562 282.703125 309.734375 284.757812 306.636719 288.050781 C 309.023438 284.207031 310.464844 281.636719 310.859375 279.476562 " fill-opacity="1" fill-rule="nonzero"/></g></g></g><g clip-path="url(#9fe8789107)"><g clip-path="url(#49ceeaf268)"><g clip-path="url(#e3b09394b9)"><path stroke-linecap="butt" transform="matrix(-0.10282, 0.0134125, -0.0134125, -0.10282, 666.465786, 476.07662)" fill="none" stroke-linejoin="round" d="M 3155.403552 2323.679745 C 3174.313394 2333.364737 3202.351003 2337.440022 3245.774155 2341.81269 C 3202.355783 2346.140578 3174.28398 2350.190901 3155.391796 2359.88361 C 3161.871927 2380.104311 3178.84727 2402.871788 3206.473653 2436.602371 C 3172.730667 2408.988261 3149.944063 2392.035169 3129.820949 2385.535117 C 3120.108348 2404.365375 3116.023317 2432.477695 3111.72536 2475.910593 C 3107.360116 2432.487348 3103.282183 2404.335961 3093.542374 2385.513615 C 3073.39151 2392.040847 3050.628906 2408.978835 3016.860967 2436.600345 C 3044.479951 2402.820003 3061.465525 2380.075628 3067.975323 2359.877803 C 3049.065481 2350.192811 3021.022999 2346.154882 2977.594974 2341.819569 C 3021.018219 2337.454325 3049.05754 2333.361774 3067.949723 2323.669066 C 3061.459847 2303.523075 3044.447148 2280.750725 3016.830511 2246.945431 C 3050.643335 2274.606643 3073.392584 2291.554862 3093.553053 2298.059787 C 3103.265654 2279.229528 3107.350685 2251.117208 3111.723353 2207.694056 C 3116.013886 2251.107556 3120.134047 2279.22646 3129.799146 2298.03906 C 3149.940264 2291.586538 3172.749969 2274.578713 3206.480552 2246.95233 C 3178.861569 2280.732672 3161.871122 2303.514403 3155.403552 2323.679745 Z M 3155.403552 2323.679745 " stroke="#0a2f4d" stroke-width="20" stroke-opacity="1" stroke-miterlimit="10"/></g></g></g><g clip-path="url(#b50e41d405)"><g clip-path="url(#dae3b2ec8b)"><g clip-path="url(#c0deb2ea63)"><path fill="#00ffff" d="M 438.882812 379.515625 C 437.628906 379.0625 435.839844 379.035156 433.089844 379.113281 C 435.769531 378.492188 437.492188 378.003906 438.589844 377.246094 C 438.023438 376.035156 436.773438 374.753906 434.769531 372.867188 C 437.109375 374.316406 438.667969 375.195312 439.980469 375.4375 C 440.433594 374.179688 440.464844 372.390625 440.378906 369.640625 C 441.003906 372.320312 441.488281 374.039062 442.246094 375.140625 C 443.457031 374.574219 444.738281 373.324219 446.628906 371.320312 C 445.175781 373.65625 444.300781 375.21875 444.058594 376.53125 C 445.320312 376.984375 447.105469 377.011719 449.859375 376.925781 C 447.179688 377.554688 445.457031 378.039062 444.355469 378.800781 C 444.925781 380.007812 446.171875 381.292969 448.175781 383.179688 C 445.835938 381.726562 444.273438 380.851562 442.960938 380.609375 C 442.507812 381.867188 442.484375 383.65625 442.566406 386.40625 C 441.941406 383.726562 441.457031 382.007812 440.695312 380.90625 C 439.488281 381.472656 438.203125 382.71875 436.316406 384.726562 C 437.769531 382.390625 438.648438 380.828125 438.882812 379.515625 " fill-opacity="1" fill-rule="nonzero"/></g></g></g><g clip-path="url(#a55031663b)"><g clip-path="url(#58416d437b)"><g clip-path="url(#d01ea2cf38)"><path stroke-linecap="butt" transform="matrix(-0.10282, 0.0134125, -0.0134125, -0.10282, 666.465786, 476.07662)" fill="none" stroke-linejoin="round" d="M 2055.91332 1207.307187 C 2067.339132 1213.204587 2084.413765 1215.697835 2110.809376 1218.381209 C 2084.408836 1220.977938 2067.326029 1223.498432 2055.883849 1229.376098 C 2059.789792 1241.662813 2070.145207 1255.474671 2086.95491 1276.017065 C 2066.38689 1259.239404 2052.578501 1248.890191 2040.329225 1244.936886 C 2034.426952 1256.400054 2031.933704 1273.474686 2029.287686 1299.87517 C 2026.653601 1273.469757 2024.16559 1256.429179 2018.292796 1244.949644 C 2006.006081 1248.855586 1992.194223 1259.211001 1971.614475 1276.015832 C 1988.424617 1255.49004 1998.741348 1241.639423 2002.694653 1229.390147 C 1991.19413 1223.483001 1974.156853 1220.994625 1947.714141 1218.38109 C 1974.124426 1215.70965 1991.202361 1213.226512 2002.686768 1207.316363 C 1998.738598 1195.06213 1988.425411 1181.217789 1971.615707 1160.675396 C 1992.178855 1177.490412 2006.029472 1187.807143 2018.278748 1191.760448 C 2024.181021 1180.29728 2026.636914 1163.217775 2029.282932 1136.81729 C 2031.917016 1163.222703 2034.405028 1180.263282 2040.315177 1191.74769 C 2052.564536 1187.836874 2066.408877 1177.523688 2086.956143 1160.676629 C 2070.146 1181.202421 2059.791914 1195.048165 2055.91332 1207.307187 Z M 2055.91332 1207.307187 " stroke="#0a2f4d" stroke-width="20" stroke-opacity="1" stroke-miterlimit="10"/></g></g></g><g clip-path="url(#57809765cf)"><g clip-path="url(#5fddcfd34a)"><g clip-path="url(#ea3353f251)"><path fill="#00ffff" d="M 450.835938 188.125 C 449.582031 187.671875 447.789062 187.648438 445.039062 187.730469 C 447.71875 187.101562 449.441406 186.617188 450.539062 185.859375 C 449.972656 184.652344 448.722656 183.363281 446.722656 181.480469 C 449.058594 182.929688 450.621094 183.804688 451.933594 184.050781 C 452.386719 182.792969 452.414062 181 452.332031 178.253906 C 452.957031 180.929688 453.441406 182.652344 454.199219 183.757812 C 455.40625 183.183594 456.691406 181.9375 458.578125 179.933594 C 457.125 182.265625 456.253906 183.832031 456.011719 185.144531 C 457.269531 185.597656 459.058594 185.621094 461.808594 185.539062 C 459.128906 186.167969 457.410156 186.648438 456.308594 187.410156 C 456.878906 188.617188 458.125 189.90625 460.128906 191.792969 C 457.789062 190.339844 456.226562 189.464844 454.914062 189.222656 C 454.460938 190.480469 454.4375 192.269531 454.519531 195.019531 C 453.894531 192.339844 453.410156 190.621094 452.648438 189.519531 C 451.441406 190.089844 450.15625 191.332031 448.269531 193.339844 C 449.722656 191.003906 450.59375 189.4375 450.835938 188.125 " fill-opacity="1" fill-rule="nonzero"/></g></g></g><g clip-path="url(#df5c72168d)"><g clip-path="url(#fe02ea9173)"><g clip-path="url(#aa6031a28d)"><path stroke-linecap="butt" transform="matrix(-0.10282, 0.0134125, -0.0134125, -0.10282, 666.465786, 476.07662)" fill="none" stroke-linejoin="round" d="M 1702.856298 3022.658188 C 1714.28211 3028.555589 1731.398971 3031.016355 1757.799455 3033.662372 C 1731.389169 3036.333812 1714.311235 3038.816951 1702.869056 3044.694617 C 1706.817226 3056.94885 1717.12554 3070.830546 1733.902761 3091.330711 C 1713.372096 3074.557924 1699.521479 3064.241193 1687.277076 3060.250532 C 1681.374803 3071.7137 1678.876682 3088.825688 1676.235537 3115.188817 C 1673.59658 3088.820759 1671.113441 3071.742825 1665.24552 3060.225935 C 1652.986415 3064.211461 1639.142074 3074.524647 1618.599681 3091.334351 C 1635.404951 3070.845914 1645.689199 3056.953069 1649.642504 3044.703793 C 1638.179337 3038.80152 1621.099831 3036.345627 1594.699347 3033.699609 C 1621.109633 3031.028169 1638.145339 3028.577513 1649.629747 3022.667364 C 1645.718931 3010.418005 1635.373262 2996.531436 1618.563558 2975.989042 C 1639.126706 2992.804058 1652.977323 3003.120789 1665.226599 3007.074094 C 1671.128872 2995.610926 1673.584765 2978.531421 1676.230783 2952.130937 C 1678.864867 2978.53635 1681.352879 2995.576928 1687.263028 3007.061336 C 1699.51726 3003.113165 1713.356728 2992.837334 1733.903994 2975.990275 C 1717.093851 2996.516067 1706.809603 3010.408912 1702.856298 3022.658188 Z M 1702.856298 3022.658188 " stroke="#0a2f4d" stroke-width="20" stroke-opacity="1" stroke-miterlimit="10"/></g></g></g><g clip-path="url(#4ec5e093af)"><g clip-path="url(#01bc629ec8)"><g clip-path="url(#1663f506b3)"><path fill="#00ffff" d="M 390.738281 204.046875 C 389.96875 203.773438 388.867188 203.753906 387.183594 203.804688 C 388.824219 203.417969 389.882812 203.121094 390.558594 202.65625 C 390.207031 201.914062 389.445312 201.128906 388.214844 199.96875 C 389.644531 200.859375 390.605469 201.398438 391.414062 201.546875 C 391.6875 200.773438 391.703125 199.671875 391.65625 197.984375 C 392.039062 199.628906 392.335938 200.691406 392.804688 201.363281 C 393.546875 201.015625 394.335938 200.25 395.492188 199.019531 C 394.601562 200.457031 394.0625 201.414062 393.914062 202.21875 C 394.6875 202.496094 395.789062 202.511719 397.472656 202.460938 C 395.832031 202.84375 394.773438 203.144531 394.097656 203.609375 C 394.445312 204.351562 395.210938 205.140625 396.441406 206.296875 C 395.007812 205.40625 394.050781 204.871094 393.242188 204.722656 C 392.960938 205.492188 392.945312 206.589844 393 208.28125 C 392.613281 206.632812 392.316406 205.578125 391.851562 204.902344 C 391.109375 205.253906 390.316406 206.019531 389.164062 207.246094 C 390.054688 205.8125 390.589844 204.855469 390.738281 204.046875 " fill-opacity="1" fill-rule="nonzero"/></g></g></g><g clip-path="url(#11fdcf69d4)"><g clip-path="url(#534cd1d34d)"><g clip-path="url(#02d50295de)"><path stroke-linecap="butt" transform="matrix(-0.10282, 0.0134125, -0.0134125, -0.10282, 666.465786, 476.07662)" fill="none" stroke-linejoin="round" d="M 2297.429794 2945.366505 C 2304.447696 2948.941328 2314.957536 2950.502246 2331.121031 2952.116821 C 2314.94938 2953.768406 2304.455749 2955.286871 2297.413408 2958.889154 C 2299.849549 2966.425223 2306.154398 2974.883849 2316.474094 2987.513328 C 2303.91305 2977.212852 2295.39609 2970.859098 2287.848704 2968.430917 C 2284.269008 2975.486174 2282.745445 2986.000886 2281.088642 3002.196864 C 2279.479286 2985.992731 2277.965693 2975.461744 2274.321182 2968.451886 C 2266.789986 2970.850671 2258.289131 2977.188003 2245.697008 2987.512572 C 2256.007229 2974.876817 2262.356111 2966.397212 2264.779419 2958.887182 C 2257.729035 2955.27013 2247.214322 2953.746568 2231.050827 2952.131993 C 2247.217605 2950.517763 2257.716109 2948.961943 2264.75845 2945.359659 C 2262.359665 2937.828463 2256.022333 2929.327609 2245.697764 2916.735486 C 2258.296164 2927.040834 2266.780641 2933.352361 2274.328027 2935.780542 C 2277.977561 2928.772386 2279.49625 2918.295028 2281.083216 2902.051949 C 2282.725055 2918.298311 2284.248393 2928.754587 2287.850677 2935.796928 C 2295.386745 2933.360787 2303.924955 2927.028329 2316.47485 2916.736242 C 2306.169502 2929.334642 2299.857975 2937.819119 2297.429794 2945.366505 Z M 2297.429794 2945.366505 " stroke="#0a2f4d" stroke-width="20" stroke-opacity="1" stroke-miterlimit="10"/></g></g></g><g clip-path="url(#545da243de)"><g clip-path="url(#30b93312fa)"><g clip-path="url(#7fe65c2fb4)"><path fill="#00ffff" d="M 493.476562 318.730469 C 492.761719 318.472656 491.746094 318.464844 490.183594 318.507812 C 491.707031 318.152344 492.683594 317.878906 493.308594 317.445312 C 492.984375 316.761719 492.28125 316.03125 491.136719 314.960938 C 492.46875 315.789062 493.351562 316.28125 494.097656 316.421875 C 494.351562 315.707031 494.371094 314.691406 494.324219 313.132812 C 494.675781 314.648438 494.949219 315.628906 495.382812 316.253906 C 496.070312 315.925781 496.796875 315.222656 497.871094 314.085938 C 497.046875 315.410156 496.550781 316.296875 496.410156 317.042969 C 497.125 317.300781 498.144531 317.3125 499.703125 317.265625 C 498.183594 317.625 497.203125 317.894531 496.582031 318.328125 C 496.90625 319.015625 497.613281 319.746094 498.75 320.8125 C 497.417969 319.992188 496.535156 319.492188 495.789062 319.359375 C 495.53125 320.070312 495.515625 321.085938 495.5625 322.648438 C 495.210938 321.125 494.933594 320.148438 494.503906 319.523438 C 493.820312 319.847656 493.089844 320.554688 492.015625 321.691406 C 492.84375 320.367188 493.335938 319.480469 493.476562 318.730469 " fill-opacity="1" fill-rule="nonzero"/></g></g></g><g clip-path="url(#5b82c585ee)"><g clip-path="url(#29f927f21f)"><g clip-path="url(#fffbca7dd7)"><path stroke-linecap="butt" transform="matrix(-0.10282, 0.0134125, -0.0134125, -0.10282, 666.465786, 476.07662)" fill="none" stroke-linejoin="round" d="M 1458.008912 1720.490701 C 1464.52333 1723.847883 1474.225971 1725.189532 1489.221706 1726.72776 C 1474.209697 1728.226687 1464.529765 1729.623351 1458.012027 1732.990138 C 1460.259772 1739.931767 1466.109866 1747.799198 1475.682465 1759.457429 C 1463.977339 1749.87646 1456.149012 1744.068426 1449.189565 1741.792921 C 1445.869739 1748.312213 1444.416023 1758.000235 1442.920024 1772.963487 C 1441.448706 1758.031062 1440.056916 1748.313775 1436.690129 1741.796036 C 1429.743627 1744.081137 1421.881068 1749.893876 1410.190355 1759.424246 C 1419.724223 1747.788958 1425.574485 1739.928148 1427.84999 1732.968702 C 1421.335571 1729.61152 1411.600448 1728.227643 1396.637196 1726.731643 C 1411.616722 1725.190487 1421.329136 1723.836053 1427.80952 1720.464392 C 1425.604002 1713.490281 1419.716553 1705.617976 1410.176437 1694.001974 C 1421.891309 1703.508232 1429.70989 1709.390977 1436.679082 1711.591771 C 1440.031391 1705.114708 1441.447751 1695.421813 1442.948623 1680.421205 C 1444.410196 1695.428341 1445.844214 1705.113146 1449.173646 1711.626012 C 1456.115275 1709.378266 1463.982707 1703.528172 1475.67342 1693.997801 C 1466.102196 1705.628217 1460.289289 1713.4939 1458.008912 1720.490701 Z M 1458.008912 1720.490701 " stroke="#0a2f4d" stroke-width="20" stroke-opacity="1" stroke-miterlimit="10"/></g></g></g><g clip-path="url(#023850fd37)"><g clip-path="url(#2c620dc226)"><g clip-path="url(#8511ed3d6d)"><path fill="#00ffff" d="M 351.769531 230.367188 C 354.515625 232.570312 358.523438 232.132812 360.726562 229.382812 C 362.929688 226.640625 362.488281 222.632812 359.742188 220.429688 C 357 218.226562 352.988281 218.667969 350.789062 221.410156 C 348.585938 224.15625 349.027344 228.167969 351.769531 230.367188 " fill-opacity="1" fill-rule="nonzero"/></g></g></g><g clip-path="url(#21a9441b05)"><g clip-path="url(#69a1105a04)"><g clip-path="url(#cd393000ab)"><path stroke-linecap="butt" transform="matrix(-0.10282, 0.0134125, -0.0134125, -0.10282, 666.465786, 476.07662)" fill="none" stroke-linejoin="round" d="M 2702.919797 2742.27773 C 2679.40728 2717.783716 2640.53495 2716.967978 2616.036062 2740.517851 C 2591.54692 2763.993012 2590.768538 2802.870215 2614.281055 2827.36423 C 2637.756217 2851.853372 2676.670775 2852.636626 2701.122561 2829.156592 C 2725.616576 2805.644075 2726.399831 2766.729517 2702.919797 2742.27773 Z M 2702.919797 2742.27773 " stroke="#0a2f4d" stroke-width="20" stroke-opacity="1" stroke-miterlimit="10"/></g></g></g><g clip-path="url(#e771ca8779)"><g clip-path="url(#ced3d714e8)"><g clip-path="url(#a61ea35dc6)"><path fill="#00ffff" d="M 332.710938 339.972656 C 335.457031 342.171875 339.464844 341.734375 341.667969 338.988281 C 343.863281 336.242188 343.429688 332.234375 340.679688 330.03125 C 337.9375 327.828125 333.929688 328.273438 331.726562 331.015625 C 329.527344 333.761719 329.96875 337.769531 332.710938 339.972656 " fill-opacity="1" fill-rule="nonzero"/></g></g></g><g clip-path="url(#1ba814db18)"><g clip-path="url(#96257b417f)"><g clip-path="url(#bbde8f271b)"><path stroke-linecap="butt" transform="matrix(-0.10282, 0.0134125, -0.0134125, -0.10282, 666.465786, 476.07662)" fill="none" stroke-linejoin="round" d="M 3021.903503 1717.899032 C 2998.386114 1693.442373 2959.513784 1692.626636 2935.057124 1716.144026 C 2910.600465 1739.661415 2909.747372 1778.528872 2933.297245 1803.02776 C 2956.772406 1827.516902 2995.654482 1828.257928 3020.143624 1804.782767 C 3044.600283 1781.265377 3045.378665 1742.388174 3021.903503 1717.899032 Z M 3021.903503 1717.899032 " stroke="#0a2f4d" stroke-width="20" stroke-opacity="1" stroke-miterlimit="10"/></g></g></g><g clip-path="url(#829034ce4a)"><g clip-path="url(#d32b977c98)"><g clip-path="url(#4e4f6b161f)"><path fill="#00ffff" d="M 414.746094 362.046875 C 419.003906 365.460938 425.226562 364.785156 428.644531 360.519531 C 432.058594 356.261719 431.378906 350.039062 427.117188 346.621094 C 422.859375 343.203125 416.636719 343.886719 413.214844 348.148438 C 409.800781 352.40625 410.480469 358.628906 414.746094 362.046875 " fill-opacity="1" fill-rule="nonzero"/></g></g></g><g clip-path="url(#45004051e5)"><g clip-path="url(#bf25855135)"><g clip-path="url(#79d23538ed)"><path stroke-linecap="butt" transform="matrix(-0.10282, 0.0134125, -0.0134125, -0.10282, 666.465786, 476.07662)" fill="none" stroke-linejoin="round" d="M 2264.977934 1404.474391 C 2228.482128 1366.509561 2168.132082 1365.209598 2130.125023 1401.737886 C 2092.165066 1438.196336 2090.902458 1498.551256 2127.393391 1536.553442 C 2163.846968 1574.550754 2224.206761 1575.776006 2262.246302 1539.289947 C 2300.206259 1502.831496 2301.468867 1442.476577 2264.977934 1404.474391 Z M 2264.977934 1404.474391 " stroke="#0a2f4d" stroke-width="20" stroke-opacity="1" stroke-miterlimit="10"/></g></g></g><g clip-path="url(#28c1e6514d)"><g clip-path="url(#b292f04a6c)"><g clip-path="url(#546014267c)"><path fill="#00ffff" d="M 489.722656 247.226562 C 491.488281 248.648438 494.066406 248.359375 495.488281 246.59375 C 496.902344 244.824219 496.621094 242.242188 494.855469 240.828125 C 493.089844 239.40625 490.503906 239.691406 489.085938 241.460938 C 487.667969 243.226562 487.953125 245.8125 489.722656 247.226562 " fill-opacity="1" fill-rule="nonzero"/></g></g></g><g clip-path="url(#96c58a18c3)"><g clip-path="url(#a89fb907f0)"><g clip-path="url(#2f008c46d0)"><path stroke-linecap="butt" transform="matrix(-0.10282, 0.0134125, -0.0134125, -0.10282, 666.465786, 476.07662)" fill="none" stroke-linejoin="round" d="M 1404.710038 2408.962871 C 1389.599141 2393.163006 1364.584032 2392.711226 1348.784166 2407.822122 C 1333.054139 2422.98012 1332.522775 2448.022839 1347.643417 2463.747994 C 1362.754314 2479.547859 1387.839262 2480.04674 1403.606644 2464.893616 C 1419.369154 2449.777846 1419.868035 2424.692899 1404.710038 2408.962871 Z M 1404.710038 2408.962871 " stroke="#0a2f4d" stroke-width="20" stroke-opacity="1" stroke-miterlimit="10"/></g></g></g><g clip-path="url(#ddf6f5ccec)"><g clip-path="url(#238de9a1b2)"><g clip-path="url(#53af90582b)"><path stroke-linecap="round" transform="matrix(-0.10282, 0.0134125, -0.0134125, -0.10282, 666.465786, 476.07662)" fill="none" stroke-linejoin="round" d="M 2199.317493 2566.031267 C 2199.317493 2566.031267 2459.084844 2752.830457 2558.311804 2781.996329 " stroke="#0a2f4d" stroke-width="20" stroke-opacity="1" stroke-miterlimit="10"/></g></g></g><g clip-path="url(#e3589fd823)"><g clip-path="url(#3323472b60)"><g clip-path="url(#cfc0f88146)"><path stroke-linecap="round" transform="matrix(-0.10282, 0.0134125, -0.0134125, -0.10282, 666.465786, 476.07662)" fill="none" stroke-linejoin="round" d="M 1494.718376 1826.715191 C 1494.718376 1826.715191 1667.21472 2079.669836 1869.576549 2270.264046 " stroke="#0a2f4d" stroke-width="20" stroke-opacity="1" stroke-miterlimit="10"/></g></g></g><g clip-path="url(#c068d3714f)"><g clip-path="url(#cb28e37aa0)"><g clip-path="url(#1596ca689d)"><path fill="#00ffff" d="M 370.21875 283.132812 C 370.34375 284.070312 370.492188 284.988281 370.671875 285.90625 C 370.808594 286.703125 370.972656 287.492188 371.160156 288.273438 C 374.554688 302.773438 383.984375 314.601562 396.355469 321.421875 C 397.1875 321.875 398.039062 322.316406 398.898438 322.726562 C 407.535156 326.875 417.433594 328.648438 427.648438 327.316406 C 430.828125 326.898438 433.894531 326.207031 436.839844 325.25 C 441.757812 323.65625 446.3125 321.363281 450.40625 318.488281 C 451.066406 318.023438 451.726562 317.542969 452.355469 317.050781 C 453.796875 315.933594 455.167969 314.75 456.480469 313.492188 C 467.816406 302.601562 474.015625 286.660156 471.828125 269.878906 C 471.417969 266.746094 470.730469 263.722656 469.800781 260.820312 C 469.554688 260.046875 469.285156 259.285156 469.015625 258.527344 C 465.152344 248.214844 458.136719 239.625 449.257812 233.761719 C 448.574219 233.324219 447.898438 232.890625 447.191406 232.464844 C 437.667969 226.800781 426.238281 224.167969 414.394531 225.710938 C 405.953125 226.8125 398.253906 229.917969 391.730469 234.464844 C 391.039062 234.957031 390.359375 235.449219 389.679688 235.976562 C 375.769531 246.753906 367.777344 264.421875 370.21875 283.132812 " fill-opacity="1" fill-rule="nonzero"/></g></g></g><g clip-path="url(#27d61353a5)"><g clip-path="url(#b413d05b7c)"><g clip-path="url(#d5df4df4d7)"><path stroke-linecap="round" transform="matrix(-0.10282, 0.0134125, -0.0134125, -0.10282, 666.465786, 476.07662)" fill="none" stroke-linejoin="round" d="M 2592.312891 2214.667466 C 2592.287002 2205.546255 2592.012617 2196.582584 2591.439389 2187.57993 C 2591.126012 2179.788893 2590.541402 2172.038456 2589.722914 2164.333493 C 2575.349115 2021.435999 2499.928303 1896.561013 2390.131943 1815.906315 C 2382.740506 1810.535182 2375.147675 1805.25175 2367.44115 1800.257415 C 2290.023466 1749.8122 2197.577321 1720.505101 2098.231487 1720.500791 C 2067.302852 1720.531319 2037.116423 1723.318033 2007.756656 1728.795968 C 1958.738173 1737.902037 1912.321497 1754.147885 1869.586697 1776.534674 C 1862.693778 1780.156448 1855.781367 1783.927644 1849.153181 1787.849889 C 1833.97543 1796.735436 1819.387238 1806.343734 1805.266791 1816.734877 C 1683.276135 1906.740562 1604.107159 2051.454477 1604.092422 2214.661779 C 1604.106713 2245.132404 1606.909673 2274.903052 1612.179722 2303.8178 C 1613.568285 2311.521145 1615.195599 2319.141661 1616.827786 2326.724821 C 1640.907911 2430.16214 1697.282712 2521.058139 1774.87725 2588.204461 C 1780.868675 2593.241005 1786.790263 2598.230449 1793.020438 2603.184164 C 1877.027121 2669.229382 1983.044531 2708.664809 2098.230672 2708.683905 C 2180.329688 2708.67991 2257.830958 2688.586789 2325.88635 2653.242826 C 2333.112222 2649.398547 2340.226028 2645.539649 2347.383689 2641.344553 C 2493.850198 2555.633375 2592.319067 2396.645036 2592.312891 2214.667466 Z M 2592.312891 2214.667466 " stroke="#0a2f4d" stroke-width="20" stroke-opacity="1" stroke-miterlimit="10"/></g></g></g><g clip-path="url(#55960d454e)"><g clip-path="url(#39d605bd87)"><g clip-path="url(#e4314f71f9)"><path fill="#00ffff" d="M 412.570312 226.003906 C 413.175781 225.898438 413.777344 225.792969 414.394531 225.710938 C 426.238281 224.167969 437.667969 226.800781 447.191406 232.464844 C 447.898438 232.890625 448.574219 233.324219 449.257812 233.761719 C 458.136719 239.625 465.152344 248.214844 469.015625 258.527344 C 469.285156 259.285156 469.554688 260.046875 469.800781 260.820312 C 470.730469 263.722656 471.417969 266.746094 471.828125 269.878906 C 471.90625 270.5 471.960938 271.113281 472.015625 271.726562 C 452.199219 256.484375 432.386719 241.242188 412.570312 226.003906 " fill-opacity="1" fill-rule="nonzero"/></g></g></g><g clip-path="url(#b39bf78efc)"><g clip-path="url(#d3132b294f)"><g clip-path="url(#1c9fd56059)"><path stroke-linecap="butt" transform="matrix(-0.10282, 0.0134125, -0.0134125, -0.10282, 666.465786, 476.07662)" fill="none" stroke-linejoin="round" d="M 2116.041076 2708.157872 C 2110.119433 2708.411176 2104.235145 2708.669352 2098.230672 2708.683905 C 1983.044531 2708.664809 1877.027121 2669.229382 1793.020438 2603.184164 C 1786.790263 2598.230449 1780.868675 2593.241005 1774.87725 2588.204461 C 1697.282712 2521.058139 1640.907911 2430.16214 1616.827786 2326.724821 C 1615.195599 2319.141661 1613.568285 2311.521145 1612.179722 2303.8178 C 1606.909673 2274.903052 1604.106713 2245.132404 1604.092422 2214.661779 C 1604.120097 2208.624824 1604.362158 2202.691817 1604.604219 2196.75881 C 1775.093999 2367.23924 1945.546423 2537.714797 2116.041076 2708.157872 Z M 2116.041076 2708.157872 " stroke="#0a2f4d" stroke-width="20" stroke-opacity="1" stroke-miterlimit="10"/></g></g></g><g clip-path="url(#e91a1fd2df)"><g clip-path="url(#877d2f6df9)"><g clip-path="url(#10eb1193d0)"><path fill="#00ffff" d="M 430.496094 326.855469 C 429.554688 327.03125 428.605469 327.191406 427.648438 327.316406 C 417.433594 328.648438 407.535156 326.875 398.898438 322.726562 C 398.039062 322.316406 397.1875 321.875 396.355469 321.421875 C 383.984375 314.601562 374.554688 302.773438 371.160156 288.273438 C 370.972656 287.492188 370.808594 286.703125 370.671875 285.90625 C 370.492188 284.988281 370.34375 284.070312 370.21875 283.132812 C 370.09375 282.179688 370.011719 281.226562 369.941406 280.273438 C 390.125 295.796875 410.308594 311.328125 430.496094 326.855469 " fill-opacity="1" fill-rule="nonzero"/></g></g></g><g clip-path="url(#67ac579977)"><g clip-path="url(#abcace9aa1)"><g clip-path="url(#70967db687)"><path stroke-linecap="butt" transform="matrix(-0.10282, 0.0134125, -0.0134125, -0.10282, 666.465786, 476.07662)" fill="none" stroke-linejoin="round" d="M 2070.424454 1721.356419 C 2079.646367 1720.849784 2088.9235 1720.502316 2098.231487 1720.500791 C 2197.577321 1720.505101 2290.023466 1749.8122 2367.44115 1800.257415 C 2375.147675 1805.25175 2382.740506 1810.535182 2390.131943 1815.906315 C 2499.928303 1896.561013 2575.349115 2021.435999 2589.722914 2164.333493 C 2590.541402 2172.038456 2591.126012 2179.788893 2591.439389 2187.57993 C 2592.012617 2196.582584 2592.287002 2205.546255 2592.312891 2214.667466 C 2592.319289 2223.938098 2591.914778 2233.155129 2591.3982 2242.357542 C 2417.747864 2068.72948 2244.107273 1895.026709 2070.424454 1721.356419 Z M 2070.424454 1721.356419 " stroke="#0a2f4d" stroke-width="20" stroke-opacity="1" stroke-miterlimit="10"/></g></g></g><g clip-path="url(#8f86b5a59f)"><g clip-path="url(#89b5f03214)"><g clip-path="url(#36a37bed07)"><path fill="#000000" d="M 396.355469 321.421875 C 397.1875 321.875 398.039062 322.316406 398.898438 322.726562 C 398.660156 321.390625 398.773438 320.011719 399.40625 318.5 C 401.058594 314.511719 404.585938 313.671875 408.6875 312.710938 C 412.820312 311.734375 417.507812 310.632812 419.644531 305.496094 C 421.773438 300.363281 419.226562 296.257812 416.984375 292.644531 C 414.769531 289.066406 412.863281 285.980469 414.519531 281.996094 C 416.164062 278.007812 419.703125 277.179688 423.785156 276.207031 C 427.933594 275.238281 432.621094 274.128906 434.746094 268.988281 C 436.875 263.867188 434.335938 259.765625 432.097656 256.148438 C 429.882812 252.570312 427.96875 249.492188 429.621094 245.5 C 431.269531 241.515625 434.800781 240.675781 438.898438 239.714844 C 442.664062 238.832031 446.914062 237.824219 449.257812 233.761719 C 448.574219 233.324219 447.898438 232.890625 447.191406 232.464844 C 445.410156 235.703125 442.117188 236.472656 438.34375 237.351562 C 434.207031 238.335938 429.511719 239.4375 427.382812 244.570312 C 425.261719 249.710938 427.796875 253.808594 430.039062 257.421875 C 432.25 260.992188 434.167969 264.085938 432.515625 268.070312 C 430.863281 272.0625 427.332031 272.890625 423.234375 273.847656 C 419.089844 274.832031 414.398438 275.929688 412.273438 281.066406 C 410.148438 286.199219 412.683594 290.300781 414.929688 293.914062 C 417.140625 297.496094 419.054688 300.582031 417.40625 304.566406 C 415.746094 308.554688 412.222656 309.394531 408.125 310.351562 C 403.992188 311.332031 399.285156 312.4375 397.160156 317.570312 C 396.609375 318.925781 396.371094 320.203125 396.355469 321.421875 " fill-opacity="1" fill-rule="nonzero"/></g></g></g><g clip-path="url(#b2f53fde7f)"><g clip-path="url(#f3e41bf07f)"><g clip-path="url(#33893b10ca)"><path fill="#000000" d="M 370.671875 285.90625 C 370.808594 286.703125 370.972656 287.492188 371.160156 288.273438 C 372.0625 287.984375 373.042969 287.746094 374.074219 287.511719 C 377.640625 286.671875 381.679688 285.714844 383.515625 281.265625 C 385.351562 276.824219 383.171875 273.300781 381.25 270.183594 C 379.398438 267.191406 377.789062 264.605469 379.152344 261.304688 C 380.53125 257.996094 383.492188 257.300781 386.910156 256.492188 C 390.480469 255.660156 394.515625 254.707031 396.355469 250.257812 C 398.199219 245.804688 396.007812 242.285156 394.09375 239.175781 C 393.082031 237.546875 392.140625 236.035156 391.730469 234.464844 C 391.039062 234.957031 390.359375 235.449219 389.679688 235.976562 C 390.257812 237.585938 391.167969 239.054688 392.03125 240.445312 C 393.886719 243.433594 395.484375 246.023438 394.121094 249.328125 C 392.753906 252.628906 389.796875 253.335938 386.363281 254.132812 C 382.796875 254.980469 378.769531 255.933594 376.921875 260.382812 C 375.082031 264.820312 377.265625 268.347656 379.1875 271.464844 C 381.039062 274.457031 382.648438 277.042969 381.285156 280.347656 C 379.90625 283.652344 376.949219 284.34375 373.527344 285.152344 C 372.585938 285.378906 371.617188 285.597656 370.671875 285.90625 " fill-opacity="1" fill-rule="nonzero"/></g></g></g><g clip-path="url(#8d9d25e2da)"><g clip-path="url(#a4f6cb208f)"><g clip-path="url(#716e8cff6b)"><path fill="#000000" d="M 452.355469 317.050781 C 453.796875 315.933594 455.167969 314.75 456.480469 313.492188 C 456.824219 310.203125 455.109375 307.449219 453.558594 304.953125 C 451.707031 301.949219 450.113281 299.375 451.472656 296.066406 C 452.839844 292.769531 455.800781 292.0625 459.234375 291.261719 C 462.800781 290.417969 466.824219 289.464844 468.671875 285.011719 C 470.511719 280.574219 468.332031 277.046875 466.410156 273.933594 C 464.554688 270.9375 462.949219 268.351562 464.3125 265.046875 C 465.371094 262.507812 467.378906 261.515625 469.800781 260.820312 C 469.554688 260.046875 469.285156 259.285156 469.015625 258.527344 C 466.21875 259.339844 463.496094 260.695312 462.078125 264.121094 C 460.226562 268.570312 462.421875 272.09375 464.339844 275.210938 C 466.199219 278.207031 467.804688 280.792969 466.445312 284.09375 C 465.066406 287.398438 462.105469 288.089844 458.679688 288.902344 C 455.117188 289.734375 451.078125 290.691406 449.242188 295.140625 C 447.394531 299.59375 449.585938 303.113281 451.503906 306.222656 C 453.359375 309.214844 454.96875 311.800781 453.59375 315.105469 C 453.269531 315.894531 452.847656 316.53125 452.355469 317.050781 " fill-opacity="1" fill-rule="nonzero"/></g></g></g><g clip-path="url(#f02483444f)"><g clip-path="url(#e06fdf2b2d)"><g clip-path="url(#1563945d49)"><path fill="#000000" d="M 436.839844 325.25 C 441.757812 323.65625 446.3125 321.363281 450.40625 318.488281 C 449.089844 319.15625 447.515625 319.511719 445.832031 319.914062 C 442.542969 320.695312 438.820312 321.574219 436.839844 325.25 " fill-opacity="1" fill-rule="nonzero"/></g></g></g><g clip-path="url(#c83709e2e7)"><g clip-path="url(#4a611488c5)"><g clip-path="url(#ab72318697)"><path stroke-linecap="round" transform="matrix(-0.10282, 0.0134125, -0.0134125, -0.10282, 666.465786, 476.07662)" fill="none" stroke-linejoin="round" d="M 2007.770061 1842.276755 C 2007.770061 1842.276755 2811.624476 2542.682573 2719.994635 2725.547573 C 2675.029496 2783.962794 2440.608253 2628.279285 2440.608253 2628.279285 " stroke="#0a2f4d" stroke-width="20" stroke-opacity="1" stroke-miterlimit="10"/></g></g></g><g clip-path="url(#0e103886a6)"><g clip-path="url(#d75289ef89)"><g clip-path="url(#ca3c83d396)"><path stroke-linecap="round" transform="matrix(-0.10282, 0.0134125, -0.0134125, -0.10282, 666.465786, 476.07662)" fill="none" stroke-linejoin="round" d="M 2631.590998 2391.776263 C 2789.743586 2578.19919 2901.86634 2753.147025 2859.074022 2838.591327 C 2837.768164 2866.204849 2782.933818 2855.822715 2722.657097 2832.117642 " stroke="#0a2f4d" stroke-width="20" stroke-opacity="1" stroke-miterlimit="10"/></g></g></g><g clip-path="url(#41e460ebaa)"><g clip-path="url(#3649e8e0bb)"><g clip-path="url(#a2418eaad7)"><path stroke-linecap="round" transform="matrix(-0.10282, 0.0134125, -0.0134125, -0.10282, 666.465786, 476.07662)" fill="none" stroke-linejoin="round" d="M 2098.202162 2032.934734 C 2098.202162 2032.934734 1726.699854 1706.076018 1632.762471 1702.180309 C 1538.825089 1698.284601 1682.757097 1842.278155 1682.757097 1842.278155 " stroke="#0a2f4d" stroke-width="20" stroke-opacity="1" stroke-miterlimit="10"/></g></g></g><g clip-path="url(#9acad33fdd)"><g clip-path="url(#e92ae7762d)"><g clip-path="url(#59aeb6c64d)"><path stroke-linecap="round" transform="matrix(-0.10282, 0.0134125, -0.0134125, -0.10282, 666.465786, 476.07662)" fill="none" stroke-linejoin="round" d="M 2229.809067 1973.474489 C 2229.809067 1973.474489 1661.668237 1473.598145 1518.001114 1467.660352 " stroke="#0a2f4d" stroke-width="20" stroke-opacity="1" stroke-miterlimit="10"/></g></g></g><g clip-path="url(#1f8aa0e82b)"><g clip-path="url(#2dc085126f)"><g clip-path="url(#476cba369e)"><path stroke-linecap="round" transform="matrix(-0.10282, 0.0134125, -0.0134125, -0.10282, 666.465786, 476.07662)" fill="none" stroke-linejoin="round" d="M 1600.924441 1842.278904 C 1600.924441 1842.278904 1434.903281 1616.572646 1518.003145 1581.519565 " stroke="#0a2f4d" stroke-width="20" stroke-opacity="1" stroke-miterlimit="10"/></g></g></g><g clip-path="url(#9cf3a7501f)"><g clip-path="url(#729e7d2cc8)"><g clip-path="url(#c0b67de461)"><path fill="#000000" d="M 354.804688 224.273438 C 354.933594 225.257812 355.835938 225.957031 356.820312 225.828125 C 357.804688 225.699219 358.5 224.792969 358.371094 223.808594 C 358.242188 222.824219 357.339844 222.128906 356.355469 222.257812 C 355.371094 222.386719 354.675781 223.289062 354.804688 224.273438 " fill-opacity="1" fill-rule="nonzero"/></g></g></g><g clip-path="url(#0a8be400ff)"><g clip-path="url(#d65fed9a7a)"><g clip-path="url(#64549fa902)"><path fill="#000000" d="M 404.164062 300.84375 C 404.292969 301.828125 405.195312 302.523438 406.179688 302.394531 C 407.164062 302.269531 407.859375 301.363281 407.730469 300.378906 C 407.601562 299.390625 406.699219 298.703125 405.714844 298.828125 C 404.730469 298.957031 404.035156 299.859375 404.164062 300.84375 " fill-opacity="1" fill-rule="nonzero"/></g></g></g><g clip-path="url(#a78fe36ceb)"><g clip-path="url(#8efd198fa8)"><g clip-path="url(#081b57d21d)"><path fill="#000000" d="M 472.800781 305.183594 C 472.929688 306.167969 473.832031 306.863281 474.820312 306.734375 C 475.804688 306.605469 476.5 305.703125 476.371094 304.71875 C 476.242188 303.730469 475.339844 303.039062 474.355469 303.167969 C 473.367188 303.296875 472.671875 304.195312 472.800781 305.183594 " fill-opacity="1" fill-rule="nonzero"/></g></g></g><g clip-path="url(#6b8cf9ef51)"><g clip-path="url(#270e324859)"><g clip-path="url(#4585445faf)"><path stroke-linecap="round" transform="matrix(-0.10282, 0.0134125, -0.0134125, -0.10282, 666.465786, 476.07662)" fill="none" stroke-linejoin="round" d="M 1412.762117 1538.462299 C 1412.762117 1538.462299 1336.923812 1421.738903 1430.585397 1396.877459 " stroke="#0a2f4d" stroke-width="20" stroke-opacity="1" stroke-miterlimit="10"/></g></g></g><g clip-path="url(#3828617a51)"><g clip-path="url(#cb12486ab1)"><g clip-path="url(#be8fafae57)"><path stroke-linecap="round" transform="matrix(-0.10282, 0.0134125, -0.0134125, -0.10282, 666.465786, 476.07662)" fill="none" stroke-linejoin="round" d="M 1797.720044 2514.442437 C 1797.720044 2514.442437 1937.724674 2676.311313 2177.998214 2633.647534 " stroke="#0a2f4d" stroke-width="20" stroke-opacity="1" stroke-miterlimit="10"/></g></g></g><g clip-path="url(#9251b83e46)"><g clip-path="url(#d4756b63fb)"><g clip-path="url(#0e549ee19f)"><path fill="#000000" d="M 399.59375 236.710938 C 399.734375 237.773438 400.714844 238.527344 401.785156 238.390625 C 402.851562 238.25 403.605469 237.269531 403.46875 236.203125 C 403.328125 235.132812 402.347656 234.382812 401.277344 234.523438 C 400.210938 234.660156 399.457031 235.636719 399.59375 236.710938 " fill-opacity="1" fill-rule="nonzero"/></g></g></g></svg>