<svg xmlns="http://www.w3.org/2000/svg" xmlns:xlink="http://www.w3.org/1999/xlink" width="1080" zoomAndPan="magnify" viewBox="0 0 810 809.999993" height="1080" preserveAspectRatio="xMidYMid meet" version="1.0"><defs><g/><clipPath id="73d2826839"><path d="M 485 334 L 511 334 L 511 360 L 485 360 Z M 485 334 " clip-rule="nonzero"/></clipPath><clipPath id="592d2a398e"><path d="M 287.449219 269.90625 L 498.503906 242.375 L 522.78125 428.480469 L 311.726562 456.011719 Z M 287.449219 269.90625 " clip-rule="nonzero"/></clipPath><clipPath id="9accfc7855"><path d="M 498.242188 242.410156 L 287.1875 269.941406 L 311.464844 456.046875 L 522.519531 428.515625 Z M 498.242188 242.410156 " clip-rule="nonzero"/></clipPath><clipPath id="36f53e6fb1"><path d="M 484 333 L 512 333 L 512 360 L 484 360 Z M 484 333 " clip-rule="nonzero"/></clipPath><clipPath id="f17de7b320"><path d="M 287.449219 269.90625 L 498.503906 242.375 L 522.78125 428.480469 L 311.726562 456.011719 Z M 287.449219 269.90625 " clip-rule="nonzero"/></clipPath><clipPath id="b2aaa86bef"><path d="M 498.242188 242.410156 L 287.1875 269.941406 L 311.464844 456.046875 L 522.519531 428.515625 Z M 498.242188 242.410156 " clip-rule="nonzero"/></clipPath><clipPath id="442f09bfc6"><path d="M 297 328 L 323 328 L 323 354 L 297 354 Z M 297 328 " clip-rule="nonzero"/></clipPath><clipPath id="f7092d2983"><path d="M 287.449219 269.90625 L 498.503906 242.375 L 522.78125 428.480469 L 311.726562 456.011719 Z M 287.449219 269.90625 " clip-rule="nonzero"/></clipPath><clipPath id="136ccfbfa4"><path d="M 498.242188 242.410156 L 287.1875 269.941406 L 311.464844 456.046875 L 522.519531 428.515625 Z M 498.242188 242.410156 " clip-rule="nonzero"/></clipPath><clipPath id="da4388bc3d"><path d="M 297 327 L 324 327 L 324 355 L 297 355 Z M 297 327 " clip-rule="nonzero"/></clipPath><clipPath id="f19a360ba7"><path d="M 287.449219 269.90625 L 498.503906 242.375 L 522.78125 428.480469 L 311.726562 456.011719 Z M 287.449219 269.90625 " clip-rule="nonzero"/></clipPath><clipPath id="570ec46be8"><path d="M 498.242188 242.410156 L 287.1875 269.941406 L 311.464844 456.046875 L 522.519531 428.515625 Z M 498.242188 242.410156 " clip-rule="nonzero"/></clipPath><clipPath id="462d7965c2"><path d="M 417 425 L 433 425 L 433 441 L 417 441 Z M 417 425 " clip-rule="nonzero"/></clipPath><clipPath id="d67b670222"><path d="M 287.449219 269.90625 L 498.503906 242.375 L 522.78125 428.480469 L 311.726562 456.011719 Z M 287.449219 269.90625 " clip-rule="nonzero"/></clipPath><clipPath id="e5268b2e88"><path d="M 498.242188 242.410156 L 287.1875 269.941406 L 311.464844 456.046875 L 522.519531 428.515625 Z M 498.242188 242.410156 " clip-rule="nonzero"/></clipPath><clipPath id="0d8cfd3be1"><path d="M 416 424 L 434 424 L 434 442 L 416 442 Z M 416 424 " clip-rule="nonzero"/></clipPath><clipPath id="e4b0a39dfe"><path d="M 287.449219 269.90625 L 498.503906 242.375 L 522.78125 428.480469 L 311.726562 456.011719 Z M 287.449219 269.90625 " clip-rule="nonzero"/></clipPath><clipPath id="2f90baf068"><path d="M 498.242188 242.410156 L 287.1875 269.941406 L 311.464844 456.046875 L 522.519531 428.515625 Z M 498.242188 242.410156 " clip-rule="nonzero"/></clipPath><clipPath id="f577314420"><path d="M 428 251 L 444 251 L 444 267 L 428 267 Z M 428 251 " clip-rule="nonzero"/></clipPath><clipPath id="9d408a398d"><path d="M 287.449219 269.90625 L 498.503906 242.375 L 522.78125 428.480469 L 311.726562 456.011719 Z M 287.449219 269.90625 " clip-rule="nonzero"/></clipPath><clipPath id="0db4cf90d2"><path d="M 498.242188 242.410156 L 287.1875 269.941406 L 311.464844 456.046875 L 522.519531 428.515625 Z M 498.242188 242.410156 " clip-rule="nonzero"/></clipPath><clipPath id="75cd8d2d0c"><path d="M 427 250 L 445 250 L 445 268 L 427 268 Z M 427 250 " clip-rule="nonzero"/></clipPath><clipPath id="7421926325"><path d="M 287.449219 269.90625 L 498.503906 242.375 L 522.78125 428.480469 L 311.726562 456.011719 Z M 287.449219 269.90625 " clip-rule="nonzero"/></clipPath><clipPath id="58ff983cee"><path d="M 498.242188 242.410156 L 287.1875 269.941406 L 311.464844 456.046875 L 522.519531 428.515625 Z M 498.242188 242.410156 " clip-rule="nonzero"/></clipPath><clipPath id="162b4b5277"><path d="M 375 269 L 386 269 L 386 279 L 375 279 Z M 375 269 " clip-rule="nonzero"/></clipPath><clipPath id="0ec20d33fb"><path d="M 287.449219 269.90625 L 498.503906 242.375 L 522.78125 428.480469 L 311.726562 456.011719 Z M 287.449219 269.90625 " clip-rule="nonzero"/></clipPath><clipPath id="19c9c87989"><path d="M 498.242188 242.410156 L 287.1875 269.941406 L 311.464844 456.046875 L 522.519531 428.515625 Z M 498.242188 242.410156 " clip-rule="nonzero"/></clipPath><clipPath id="18150d6913"><path d="M 374 268 L 387 268 L 387 280 L 374 280 Z M 374 268 " clip-rule="nonzero"/></clipPath><clipPath id="9489f6a49d"><path d="M 287.449219 269.90625 L 498.503906 242.375 L 522.78125 428.480469 L 311.726562 456.011719 Z M 287.449219 269.90625 " clip-rule="nonzero"/></clipPath><clipPath id="e29572f0f7"><path d="M 498.242188 242.410156 L 287.1875 269.941406 L 311.464844 456.046875 L 522.519531 428.515625 Z M 498.242188 242.410156 " clip-rule="nonzero"/></clipPath><clipPath id="4a83714403"><path d="M 469 373 L 478 373 L 478 383 L 469 383 Z M 469 373 " clip-rule="nonzero"/></clipPath><clipPath id="44907b54c2"><path d="M 287.449219 269.90625 L 498.503906 242.375 L 522.78125 428.480469 L 311.726562 456.011719 Z M 287.449219 269.90625 " clip-rule="nonzero"/></clipPath><clipPath id="95d4e29c30"><path d="M 498.242188 242.410156 L 287.1875 269.941406 L 311.464844 456.046875 L 522.519531 428.515625 Z M 498.242188 242.410156 " clip-rule="nonzero"/></clipPath><clipPath id="c828872281"><path d="M 468 372 L 479 372 L 479 384 L 468 384 Z M 468 372 " clip-rule="nonzero"/></clipPath><clipPath id="1ff15dcb3c"><path d="M 287.449219 269.90625 L 498.503906 242.375 L 522.78125 428.480469 L 311.726562 456.011719 Z M 287.449219 269.90625 " clip-rule="nonzero"/></clipPath><clipPath id="25eac883a0"><path d="M 498.242188 242.410156 L 287.1875 269.941406 L 311.464844 456.046875 L 522.519531 428.515625 Z M 498.242188 242.410156 " clip-rule="nonzero"/></clipPath><clipPath id="5a0bb9c7d9"><path d="M 341 288 L 354 288 L 354 301 L 341 301 Z M 341 288 " clip-rule="nonzero"/></clipPath><clipPath id="e175f9b364"><path d="M 287.449219 269.90625 L 498.503906 242.375 L 522.78125 428.480469 L 311.726562 456.011719 Z M 287.449219 269.90625 " clip-rule="nonzero"/></clipPath><clipPath id="28c55579ad"><path d="M 498.242188 242.410156 L 287.1875 269.941406 L 311.464844 456.046875 L 522.519531 428.515625 Z M 498.242188 242.410156 " clip-rule="nonzero"/></clipPath><clipPath id="3e91c82e6b"><path d="M 340 287 L 355 287 L 355 302 L 340 302 Z M 340 287 " clip-rule="nonzero"/></clipPath><clipPath id="6830185f3d"><path d="M 287.449219 269.90625 L 498.503906 242.375 L 522.78125 428.480469 L 311.726562 456.011719 Z M 287.449219 269.90625 " clip-rule="nonzero"/></clipPath><clipPath id="31096aa75e"><path d="M 498.242188 242.410156 L 287.1875 269.941406 L 311.464844 456.046875 L 522.519531 428.515625 Z M 498.242188 242.410156 " clip-rule="nonzero"/></clipPath><clipPath id="8837aed72a"><path d="M 324 387 L 336 387 L 336 400 L 324 400 Z M 324 387 " clip-rule="nonzero"/></clipPath><clipPath id="f22dd23f8e"><path d="M 287.449219 269.90625 L 498.503906 242.375 L 522.78125 428.480469 L 311.726562 456.011719 Z M 287.449219 269.90625 " clip-rule="nonzero"/></clipPath><clipPath id="ff3b9c8081"><path d="M 498.242188 242.410156 L 287.1875 269.941406 L 311.464844 456.046875 L 522.519531 428.515625 Z M 498.242188 242.410156 " clip-rule="nonzero"/></clipPath><clipPath id="3be671f9ba"><path d="M 323 387 L 337 387 L 337 401 L 323 401 Z M 323 387 " clip-rule="nonzero"/></clipPath><clipPath id="c8e68c8231"><path d="M 287.449219 269.90625 L 498.503906 242.375 L 522.78125 428.480469 L 311.726562 456.011719 Z M 287.449219 269.90625 " clip-rule="nonzero"/></clipPath><clipPath id="275c8d22ef"><path d="M 498.242188 242.410156 L 287.1875 269.941406 L 311.464844 456.046875 L 522.519531 428.515625 Z M 498.242188 242.410156 " clip-rule="nonzero"/></clipPath><clipPath id="93cd4afb01"><path d="M 397 402 L 416 402 L 416 421 L 397 421 Z M 397 402 " clip-rule="nonzero"/></clipPath><clipPath id="f8d8206235"><path d="M 287.449219 269.90625 L 498.503906 242.375 L 522.78125 428.480469 L 311.726562 456.011719 Z M 287.449219 269.90625 " clip-rule="nonzero"/></clipPath><clipPath id="98149b8077"><path d="M 498.242188 242.410156 L 287.1875 269.941406 L 311.464844 456.046875 L 522.519531 428.515625 Z M 498.242188 242.410156 " clip-rule="nonzero"/></clipPath><clipPath id="f63ba2a742"><path d="M 396 401 L 417 401 L 417 422 L 396 422 Z M 396 401 " clip-rule="nonzero"/></clipPath><clipPath id="4a501fb123"><path d="M 287.449219 269.90625 L 498.503906 242.375 L 522.78125 428.480469 L 311.726562 456.011719 Z M 287.449219 269.90625 " clip-rule="nonzero"/></clipPath><clipPath id="b56ee9221b"><path d="M 498.242188 242.410156 L 287.1875 269.941406 L 311.464844 456.046875 L 522.519531 428.515625 Z M 498.242188 242.410156 " clip-rule="nonzero"/></clipPath><clipPath id="ca2f68c129"><path d="M 467 307 L 475 307 L 475 315 L 467 315 Z M 467 307 " clip-rule="nonzero"/></clipPath><clipPath id="4e5469cbeb"><path d="M 287.449219 269.90625 L 498.503906 242.375 L 522.78125 428.480469 L 311.726562 456.011719 Z M 287.449219 269.90625 " clip-rule="nonzero"/></clipPath><clipPath id="1e25c849e0"><path d="M 498.242188 242.410156 L 287.1875 269.941406 L 311.464844 456.046875 L 522.519531 428.515625 Z M 498.242188 242.410156 " clip-rule="nonzero"/></clipPath><clipPath id="f878131899"><path d="M 466 306 L 476 306 L 476 316 L 466 316 Z M 466 306 " clip-rule="nonzero"/></clipPath><clipPath id="bafaef8c54"><path d="M 287.449219 269.90625 L 498.503906 242.375 L 522.78125 428.480469 L 311.726562 456.011719 Z M 287.449219 269.90625 " clip-rule="nonzero"/></clipPath><clipPath id="a268cdcfbe"><path d="M 498.242188 242.410156 L 287.1875 269.941406 L 311.464844 456.046875 L 522.519531 428.515625 Z M 498.242188 242.410156 " clip-rule="nonzero"/></clipPath><clipPath id="d85cee6fdb"><path d="M 355 292 L 394 292 L 394 311 L 355 311 Z M 355 292 " clip-rule="nonzero"/></clipPath><clipPath id="581f75014b"><path d="M 287.449219 269.90625 L 498.503906 242.375 L 522.78125 428.480469 L 311.726562 456.011719 Z M 287.449219 269.90625 " clip-rule="nonzero"/></clipPath><clipPath id="cb3d1878ab"><path d="M 498.242188 242.410156 L 287.1875 269.941406 L 311.464844 456.046875 L 522.519531 428.515625 Z M 498.242188 242.410156 " clip-rule="nonzero"/></clipPath><clipPath id="2c92398c28"><path d="M 426 331 L 469 331 L 469 371 L 426 371 Z M 426 331 " clip-rule="nonzero"/></clipPath><clipPath id="393b36a47a"><path d="M 287.449219 269.90625 L 498.503906 242.375 L 522.78125 428.480469 L 311.726562 456.011719 Z M 287.449219 269.90625 " clip-rule="nonzero"/></clipPath><clipPath id="bb2a529271"><path d="M 498.242188 242.410156 L 287.1875 269.941406 L 311.464844 456.046875 L 522.519531 428.515625 Z M 498.242188 242.410156 " clip-rule="nonzero"/></clipPath><clipPath id="df192d4812"><path d="M 360 294 L 453 294 L 453 388 L 360 388 Z M 360 294 " clip-rule="nonzero"/></clipPath><clipPath id="6ed57c5601"><path d="M 287.449219 269.90625 L 498.503906 242.375 L 522.78125 428.480469 L 311.726562 456.011719 Z M 287.449219 269.90625 " clip-rule="nonzero"/></clipPath><clipPath id="780abfac38"><path d="M 498.242188 242.410156 L 287.1875 269.941406 L 311.464844 456.046875 L 522.519531 428.515625 Z M 498.242188 242.410156 " clip-rule="nonzero"/></clipPath><clipPath id="38b49217e8"><path d="M 359 293 L 454 293 L 454 389 L 359 389 Z M 359 293 " clip-rule="nonzero"/></clipPath><clipPath id="4c92adf2ce"><path d="M 287.449219 269.90625 L 498.503906 242.375 L 522.78125 428.480469 L 311.726562 456.011719 Z M 287.449219 269.90625 " clip-rule="nonzero"/></clipPath><clipPath id="709b2ee813"><path d="M 498.242188 242.410156 L 287.1875 269.941406 L 311.464844 456.046875 L 522.519531 428.515625 Z M 498.242188 242.410156 " clip-rule="nonzero"/></clipPath><clipPath id="1dae572c0a"><path d="M 398 294 L 453 294 L 453 337 L 398 337 Z M 398 294 " clip-rule="nonzero"/></clipPath><clipPath id="9e4f0d8229"><path d="M 287.449219 269.90625 L 498.503906 242.375 L 522.78125 428.480469 L 311.726562 456.011719 Z M 287.449219 269.90625 " clip-rule="nonzero"/></clipPath><clipPath id="78a3a3b2d7"><path d="M 498.242188 242.410156 L 287.1875 269.941406 L 311.464844 456.046875 L 522.519531 428.515625 Z M 498.242188 242.410156 " clip-rule="nonzero"/></clipPath><clipPath id="f50ea9f156"><path d="M 397 293 L 454 293 L 454 338 L 397 338 Z M 397 293 " clip-rule="nonzero"/></clipPath><clipPath id="81429a2a13"><path d="M 287.449219 269.90625 L 498.503906 242.375 L 522.78125 428.480469 L 311.726562 456.011719 Z M 287.449219 269.90625 " clip-rule="nonzero"/></clipPath><clipPath id="647ac0e636"><path d="M 498.242188 242.410156 L 287.1875 269.941406 L 311.464844 456.046875 L 522.519531 428.515625 Z M 498.242188 242.410156 " clip-rule="nonzero"/></clipPath><clipPath id="34347ac928"><path d="M 360 344 L 416 344 L 416 388 L 360 388 Z M 360 344 " clip-rule="nonzero"/></clipPath><clipPath id="1fe36b5df0"><path d="M 287.449219 269.90625 L 498.503906 242.375 L 522.78125 428.480469 L 311.726562 456.011719 Z M 287.449219 269.90625 " clip-rule="nonzero"/></clipPath><clipPath id="e7aad62f63"><path d="M 498.242188 242.410156 L 287.1875 269.941406 L 311.464844 456.046875 L 522.519531 428.515625 Z M 498.242188 242.410156 " clip-rule="nonzero"/></clipPath><clipPath id="a2a5887c38"><path d="M 359 343 L 417 343 L 417 389 L 359 389 Z M 359 343 " clip-rule="nonzero"/></clipPath><clipPath id="c6df487b43"><path d="M 287.449219 269.90625 L 498.503906 242.375 L 522.78125 428.480469 L 311.726562 456.011719 Z M 287.449219 269.90625 " clip-rule="nonzero"/></clipPath><clipPath id="7c233f373a"><path d="M 498.242188 242.410156 L 287.1875 269.941406 L 311.464844 456.046875 L 522.519531 428.515625 Z M 498.242188 242.410156 " clip-rule="nonzero"/></clipPath><clipPath id="ddf174560b"><path d="M 384 300 L 433 300 L 433 383 L 384 383 Z M 384 300 " clip-rule="nonzero"/></clipPath><clipPath id="bce430cf8a"><path d="M 287.449219 269.90625 L 498.503906 242.375 L 522.78125 428.480469 L 311.726562 456.011719 Z M 287.449219 269.90625 " clip-rule="nonzero"/></clipPath><clipPath id="d17f1b02c7"><path d="M 498.242188 242.410156 L 287.1875 269.941406 L 311.464844 456.046875 L 522.519531 428.515625 Z M 498.242188 242.410156 " clip-rule="nonzero"/></clipPath><clipPath id="4cfb093310"><path d="M 360 302 L 385 302 L 385 352 L 360 352 Z M 360 302 " clip-rule="nonzero"/></clipPath><clipPath id="a28b6246ee"><path d="M 287.449219 269.90625 L 498.503906 242.375 L 522.78125 428.480469 L 311.726562 456.011719 Z M 287.449219 269.90625 " clip-rule="nonzero"/></clipPath><clipPath id="597f39970f"><path d="M 498.242188 242.410156 L 287.1875 269.941406 L 311.464844 456.046875 L 522.519531 428.515625 Z M 498.242188 242.410156 " clip-rule="nonzero"/></clipPath><clipPath id="684c625149"><path d="M 431 324 L 451 324 L 451 378 L 431 378 Z M 431 324 " clip-rule="nonzero"/></clipPath><clipPath id="dacbc52fa6"><path d="M 287.449219 269.90625 L 498.503906 242.375 L 522.78125 428.480469 L 311.726562 456.011719 Z M 287.449219 269.90625 " clip-rule="nonzero"/></clipPath><clipPath id="ec1f5f8bb6"><path d="M 498.242188 242.410156 L 287.1875 269.941406 L 311.464844 456.046875 L 522.519531 428.515625 Z M 498.242188 242.410156 " clip-rule="nonzero"/></clipPath><clipPath id="88f673ca5c"><path d="M 420 378 L 434 378 L 434 385 L 420 385 Z M 420 378 " clip-rule="nonzero"/></clipPath><clipPath id="d779f8bca9"><path d="M 287.449219 269.90625 L 498.503906 242.375 L 522.78125 428.480469 L 311.726562 456.011719 Z M 287.449219 269.90625 " clip-rule="nonzero"/></clipPath><clipPath id="599759c658"><path d="M 498.242188 242.410156 L 287.1875 269.941406 L 311.464844 456.046875 L 522.519531 428.515625 Z M 498.242188 242.410156 " clip-rule="nonzero"/></clipPath><clipPath id="1d705a1931"><path d="M 341 297 L 421 297 L 421 376 L 341 376 Z M 341 297 " clip-rule="nonzero"/></clipPath><clipPath id="04102e3585"><path d="M 287.449219 269.90625 L 498.503906 242.375 L 522.78125 428.480469 L 311.726562 456.011719 Z M 287.449219 269.90625 " clip-rule="nonzero"/></clipPath><clipPath id="33177741c5"><path d="M 498.242188 242.410156 L 287.1875 269.941406 L 311.464844 456.046875 L 522.519531 428.515625 Z M 498.242188 242.410156 " clip-rule="nonzero"/></clipPath><clipPath id="45e78c5f2d"><path d="M 326 288 L 356 288 L 356 332 L 326 332 Z M 326 288 " clip-rule="nonzero"/></clipPath><clipPath id="fb5bcb0d29"><path d="M 287.449219 269.90625 L 498.503906 242.375 L 522.78125 428.480469 L 311.726562 456.011719 Z M 287.449219 269.90625 " clip-rule="nonzero"/></clipPath><clipPath id="99dbddadd3"><path d="M 498.242188 242.410156 L 287.1875 269.941406 L 311.464844 456.046875 L 522.519531 428.515625 Z M 498.242188 242.410156 " clip-rule="nonzero"/></clipPath><clipPath id="129f15d6a1"><path d="M 407 356 L 460 356 L 460 384 L 407 384 Z M 407 356 " clip-rule="nonzero"/></clipPath><clipPath id="40f8e8ff71"><path d="M 287.449219 269.90625 L 498.503906 242.375 L 522.78125 428.480469 L 311.726562 456.011719 Z M 287.449219 269.90625 " clip-rule="nonzero"/></clipPath><clipPath id="36a6bf0730"><path d="M 498.242188 242.410156 L 287.1875 269.941406 L 311.464844 456.046875 L 522.519531 428.515625 Z M 498.242188 242.410156 " clip-rule="nonzero"/></clipPath><clipPath id="29bb9b2054"><path d="M 396 363 L 471 363 L 471 405 L 396 405 Z M 396 363 " clip-rule="nonzero"/></clipPath><clipPath id="fa82ec2968"><path d="M 287.449219 269.90625 L 498.503906 242.375 L 522.78125 428.480469 L 311.726562 456.011719 Z M 287.449219 269.90625 " clip-rule="nonzero"/></clipPath><clipPath id="a2f5b46be4"><path d="M 498.242188 242.410156 L 287.1875 269.941406 L 311.464844 456.046875 L 522.519531 428.515625 Z M 498.242188 242.410156 " clip-rule="nonzero"/></clipPath><clipPath id="0c406d3c31"><path d="M 456 368 L 471 368 L 471 394 L 456 394 Z M 456 368 " clip-rule="nonzero"/></clipPath><clipPath id="0b53d93bf2"><path d="M 287.449219 269.90625 L 498.503906 242.375 L 522.78125 428.480469 L 311.726562 456.011719 Z M 287.449219 269.90625 " clip-rule="nonzero"/></clipPath><clipPath id="1c9e765c64"><path d="M 498.242188 242.410156 L 287.1875 269.941406 L 311.464844 456.046875 L 522.519531 428.515625 Z M 498.242188 242.410156 " clip-rule="nonzero"/></clipPath><clipPath id="277e18614d"><path d="M 346 291 L 350 291 L 350 295 L 346 295 Z M 346 291 " clip-rule="nonzero"/></clipPath><clipPath id="2378091014"><path d="M 287.449219 269.90625 L 498.503906 242.375 L 522.78125 428.480469 L 311.726562 456.011719 Z M 287.449219 269.90625 " clip-rule="nonzero"/></clipPath><clipPath id="5d54a115ff"><path d="M 498.242188 242.410156 L 287.1875 269.941406 L 311.464844 456.046875 L 522.519531 428.515625 Z M 498.242188 242.410156 " clip-rule="nonzero"/></clipPath><clipPath id="e7b92cdcee"><path d="M 391 360 L 395 360 L 395 365 L 391 365 Z M 391 360 " clip-rule="nonzero"/></clipPath><clipPath id="87b75a1399"><path d="M 287.449219 269.90625 L 498.503906 242.375 L 522.78125 428.480469 L 311.726562 456.011719 Z M 287.449219 269.90625 " clip-rule="nonzero"/></clipPath><clipPath id="14c3e72de6"><path d="M 498.242188 242.410156 L 287.1875 269.941406 L 311.464844 456.046875 L 522.519531 428.515625 Z M 498.242188 242.410156 " clip-rule="nonzero"/></clipPath><clipPath id="16458b446e"><path d="M 453 364 L 457 364 L 457 369 L 453 369 Z M 453 364 " clip-rule="nonzero"/></clipPath><clipPath id="5ad951568a"><path d="M 287.449219 269.90625 L 498.503906 242.375 L 522.78125 428.480469 L 311.726562 456.011719 Z M 287.449219 269.90625 " clip-rule="nonzero"/></clipPath><clipPath id="9295bd2824"><path d="M 498.242188 242.410156 L 287.1875 269.941406 L 311.464844 456.046875 L 522.519531 428.515625 Z M 498.242188 242.410156 " clip-rule="nonzero"/></clipPath><clipPath id="3c09b9564a"><path d="M 477 394 L 484 394 L 484 410 L 477 410 Z M 477 394 " clip-rule="nonzero"/></clipPath><clipPath id="a3fe9d303f"><path d="M 287.449219 269.90625 L 498.503906 242.375 L 522.78125 428.480469 L 311.726562 456.011719 Z M 287.449219 269.90625 " clip-rule="nonzero"/></clipPath><clipPath id="c6025c885a"><path d="M 498.242188 242.410156 L 287.1875 269.941406 L 311.464844 456.046875 L 522.519531 428.515625 Z M 498.242188 242.410156 " clip-rule="nonzero"/></clipPath><clipPath id="c1eddb0b55"><path d="M 393 299 L 432 299 L 432 311 L 393 311 Z M 393 299 " clip-rule="nonzero"/></clipPath><clipPath id="6790b49ba1"><path d="M 287.449219 269.90625 L 498.503906 242.375 L 522.78125 428.480469 L 311.726562 456.011719 Z M 287.449219 269.90625 " clip-rule="nonzero"/></clipPath><clipPath id="0bfdcb9221"><path d="M 498.242188 242.410156 L 287.1875 269.941406 L 311.464844 456.046875 L 522.519531 428.515625 Z M 498.242188 242.410156 " clip-rule="nonzero"/></clipPath><clipPath id="160add6447"><path d="M 387 302 L 391 302 L 391 307 L 387 307 Z M 387 302 " clip-rule="nonzero"/></clipPath><clipPath id="118b931018"><path d="M 287.449219 269.90625 L 498.503906 242.375 L 522.78125 428.480469 L 311.726562 456.011719 Z M 287.449219 269.90625 " clip-rule="nonzero"/></clipPath><clipPath id="752e25f2ca"><path d="M 498.242188 242.410156 L 287.1875 269.941406 L 311.464844 456.046875 L 522.519531 428.515625 Z M 498.242188 242.410156 " clip-rule="nonzero"/></clipPath></defs><g fill="#b5ff00" fill-opacity="1"><g transform="translate(263.495295, 567.72044)"><g><path d="M 225.484375 -80.984375 L 237.046875 -70.0625 C 236.597656 -69.875 232.554688 -66.179688 224.921875 -58.984375 C 217.296875 -51.796875 209.1875 -44.347656 200.59375 -36.640625 C 192.007812 -28.929688 180.96875 -20.664062 167.46875 -11.84375 C 153.976562 -3.019531 140.875 4.203125 128.15625 9.828125 C 115.4375 15.453125 101.609375 18.851562 86.671875 20.03125 C 71.734375 21.21875 58.015625 19.015625 45.515625 13.421875 C 31.585938 6.867188 23.34375 -3.328125 20.78125 -17.171875 C 18.21875 -31.023438 20.085938 -46.175781 26.390625 -62.625 C 32.703125 -79.070312 40 -95.007812 48.28125 -110.4375 C 56.5625 -125.875 64.625 -140.109375 72.46875 -153.140625 C 80.3125 -166.171875 84.425781 -174.460938 84.8125 -178.015625 C 86.832031 -177.535156 89.515625 -176.875 92.859375 -176.03125 C 96.210938 -175.1875 101.8125 -172.847656 109.65625 -169.015625 C 117.507812 -165.191406 123.785156 -160.910156 128.484375 -156.171875 C 133.179688 -151.441406 136.195312 -144.90625 137.53125 -136.5625 C 138.863281 -128.226562 136.570312 -119.1875 130.65625 -109.4375 C 98.050781 -55.238281 86.503906 -23.5625 96.015625 -14.40625 C 99.960938 -10.539062 107.226562 -9.738281 117.8125 -12 C 130.800781 -14.726562 146.285156 -21.878906 164.265625 -33.453125 C 182.242188 -45.035156 197.015625 -55.816406 208.578125 -65.796875 Z M 162.59375 -190.015625 C 152.75 -185.972656 142.9375 -185.988281 133.15625 -190.0625 C 123.375 -194.144531 116.457031 -201.101562 112.40625 -210.9375 C 108.363281 -220.78125 108.382812 -230.59375 112.46875 -240.375 C 116.550781 -250.15625 123.507812 -257.066406 133.34375 -261.109375 C 143.175781 -265.160156 152.984375 -265.144531 162.765625 -261.0625 C 172.546875 -256.988281 179.460938 -250.03125 183.515625 -240.1875 C 187.578125 -230.351562 187.566406 -220.546875 183.484375 -210.765625 C 179.398438 -200.984375 172.4375 -194.066406 162.59375 -190.015625 Z M 162.59375 -190.015625 "/></g></g></g><g clip-path="url(#73d2826839)"><g clip-path="url(#592d2a398e)"><g clip-path="url(#9accfc7855)"><path fill="#b5ff00" d="M 494.230469 348.726562 C 492.351562 348.050781 489.683594 348.011719 485.582031 348.136719 C 489.578125 347.199219 492.144531 346.480469 493.789062 345.347656 C 492.9375 343.546875 491.074219 341.628906 488.089844 338.816406 C 491.578125 340.984375 493.902344 342.289062 495.863281 342.648438 C 496.535156 340.773438 496.574219 338.105469 496.453125 334.007812 C 497.386719 338 498.109375 340.570312 499.238281 342.210938 C 501.042969 341.355469 502.960938 339.5 505.769531 336.511719 C 503.601562 339.996094 502.300781 342.324219 501.941406 344.28125 C 503.816406 344.957031 506.484375 344.992188 510.585938 344.875 C 506.589844 345.804688 504.023438 346.53125 502.382812 347.660156 C 503.234375 349.460938 505.089844 351.375 508.082031 354.191406 C 504.59375 352.027344 502.265625 350.722656 500.304688 350.363281 C 499.628906 352.238281 499.59375 354.902344 499.714844 359.011719 C 498.78125 355.011719 498.058594 352.445312 496.929688 350.804688 C 495.125 351.652344 493.210938 353.511719 490.398438 356.5 C 492.558594 353.011719 493.867188 350.683594 494.230469 348.726562 " fill-opacity="1" fill-rule="nonzero"/></g></g></g><g clip-path="url(#36f53e6fb1)"><g clip-path="url(#f17de7b320)"><g clip-path="url(#b2aaa86bef)"><path stroke-linecap="butt" transform="matrix(-0.093225, 0.0121608, -0.0121608, -0.093225, 629.044844, 521.63349)" fill="none" stroke-linejoin="round" d="M 1184.029872 2009.178908 C 1202.917424 2018.891636 1231.003455 2022.97435 1274.435703 2027.299055 C 1230.997988 2031.689111 1202.940531 2035.738981 1184.03665 2045.424435 C 1190.54071 2065.589371 1207.554404 2088.382282 1235.161835 2122.152503 C 1201.352796 2094.487028 1178.633692 2077.528378 1158.445608 2071.040008 C 1148.779455 2089.891735 1144.696741 2117.977766 1140.33621 2161.363439 C 1135.981979 2117.972298 1131.896284 2089.868268 1122.246655 2071.010961 C 1102.035145 2077.550846 1079.252983 2094.48214 1045.518588 2122.136146 C 1073.178689 2088.368307 1090.101513 2065.602628 1096.584508 2045.455745 C 1077.738155 2035.748391 1049.646751 2031.706878 1006.225251 2027.299772 C 1049.652218 2022.992116 1077.720423 2018.859846 1096.57773 2009.210217 C 1090.07367 1989.045282 1073.137002 1966.30432 1045.452544 1932.48215 C 1079.266958 1960.106425 1102.027262 1977.070449 1122.215346 1983.558818 C 1131.922699 1964.712466 1135.958839 1936.662262 1140.335493 1893.152987 C 1144.678975 1936.626528 1148.770045 1964.689359 1158.419673 1983.546666 C 1178.620435 1977.089181 1201.366771 1960.111312 1235.142366 1932.462681 C 1207.559291 1966.282469 1190.554067 1989.037399 1184.029872 2009.178908 Z M 1184.029872 2009.178908 " stroke="#0a2f4d" stroke-width="20" stroke-opacity="1" stroke-miterlimit="10"/></g></g></g><g clip-path="url(#442f09bfc6)"><g clip-path="url(#f7092d2983)"><g clip-path="url(#136ccfbfa4)"><path fill="#b5ff00" d="M 306.625 343.378906 C 304.746094 342.707031 302.082031 342.667969 297.980469 342.789062 C 301.976562 341.859375 304.539062 341.136719 306.183594 340.003906 C 305.335938 338.199219 303.472656 336.285156 300.488281 333.472656 C 303.972656 335.636719 306.300781 336.941406 308.257812 337.304688 C 308.933594 335.429688 308.972656 332.761719 308.847656 328.65625 C 309.78125 332.65625 310.503906 335.226562 311.636719 336.863281 C 313.4375 336.011719 315.355469 334.152344 318.164062 331.167969 C 316 334.652344 314.699219 336.980469 314.335938 338.941406 C 316.214844 339.613281 318.878906 339.652344 322.980469 339.527344 C 318.984375 340.460938 316.421875 341.183594 314.78125 342.316406 C 315.628906 344.117188 317.488281 346.035156 320.476562 348.847656 C 316.988281 346.679688 314.660156 345.375 312.703125 345.015625 C 312.023438 346.890625 311.988281 349.5625 312.109375 353.660156 C 311.179688 349.667969 310.453125 347.097656 309.324219 345.457031 C 307.523438 346.308594 305.605469 348.167969 302.796875 351.152344 C 304.960938 347.667969 306.265625 345.339844 306.625 343.378906 " fill-opacity="1" fill-rule="nonzero"/></g></g></g><g clip-path="url(#da4388bc3d)"><g clip-path="url(#f19a360ba7)"><g clip-path="url(#570ec46be8)"><path stroke-linecap="butt" transform="matrix(-0.093225, 0.0121608, -0.0121608, -0.093225, 629.044844, 521.63349)" fill="none" stroke-linejoin="round" d="M 3155.396982 2323.698083 C 3174.289909 2333.369611 3202.334739 2337.44695 3245.761614 2341.812856 C 3202.334647 2346.120511 3174.313016 2350.216956 3155.409135 2359.90241 C 3161.86662 2380.103172 3178.885689 2402.854883 3206.49312 2436.625104 C 3172.719906 2409.006203 3149.959602 2392.042178 3129.818093 2385.517983 C 3120.110739 2404.364336 3116.028026 2432.450366 3111.697946 2475.923815 C 3107.354464 2432.450273 3103.268768 2404.346242 3093.572566 2385.524761 C 3073.40763 2392.028821 3050.620093 2409.001315 3016.891072 2436.614121 C 3044.509973 2402.840907 3061.432797 2380.075229 3067.962367 2359.892519 C 3049.06944 2350.220992 3021.02461 2346.143652 2977.592361 2341.818947 C 3021.024702 2337.470091 3049.046333 2333.373646 3067.909014 2323.682818 C 3061.446155 2303.523257 3044.473661 2280.73572 3016.825029 2246.960124 C 3050.634068 2274.6256 3073.394373 2291.589624 3093.541256 2298.072619 C 3103.28981 2279.231641 3107.336698 2251.099036 3111.697229 2207.713362 C 3116.010259 2251.099129 3120.137155 2279.208534 3129.786784 2298.065841 C 3149.951719 2291.561781 3172.739256 2274.589287 3206.468277 2246.976482 C 3178.849376 2280.749695 3161.885352 2303.509999 3155.396982 2323.698083 Z M 3155.396982 2323.698083 " stroke="#0a2f4d" stroke-width="20" stroke-opacity="1" stroke-miterlimit="10"/></g></g></g><g clip-path="url(#462d7965c2)"><g clip-path="url(#d67b670222)"><g clip-path="url(#e5268b2e88)"><path fill="#b5ff00" d="M 422.703125 434.082031 C 421.5625 433.671875 419.941406 433.648438 417.449219 433.71875 C 419.878906 433.15625 421.4375 432.714844 422.433594 432.027344 C 421.921875 430.929688 420.785156 429.765625 418.972656 428.054688 C 421.089844 429.371094 422.507812 430.167969 423.699219 430.386719 C 424.109375 429.246094 424.132812 427.621094 424.054688 425.128906 C 424.625 427.558594 425.0625 429.121094 425.75 430.117188 C 426.847656 429.601562 428.011719 428.46875 429.726562 426.652344 C 428.40625 428.773438 427.613281 430.1875 427.394531 431.378906 C 428.535156 431.789062 430.15625 431.8125 432.652344 431.738281 C 430.222656 432.304688 428.660156 432.746094 427.660156 433.4375 C 428.179688 434.53125 429.308594 435.695312 431.128906 437.40625 C 429.003906 436.085938 427.589844 435.292969 426.398438 435.074219 C 425.988281 436.21875 425.964844 437.839844 426.039062 440.332031 C 425.472656 437.902344 425.035156 436.34375 424.34375 435.34375 C 423.25 435.859375 422.085938 436.988281 420.375 438.808594 C 421.691406 436.6875 422.488281 435.273438 422.703125 434.082031 " fill-opacity="1" fill-rule="nonzero"/></g></g></g><g clip-path="url(#0d8cfd3be1)"><g clip-path="url(#e4b0a39dfe)"><g clip-path="url(#2f90baf068)"><path stroke-linecap="butt" transform="matrix(-0.093225, 0.0121608, -0.0121608, -0.093225, 629.044844, 521.63349)" fill="none" stroke-linejoin="round" d="M 2055.88363 1207.322662 C 2067.349793 1213.218012 2084.415653 1215.695587 2110.798155 1218.382846 C 2084.397683 1220.97281 2067.351475 1223.484055 2055.899517 1229.36483 C 2059.786545 1241.646147 2070.17425 1255.487772 2086.937184 1276.027203 C 2066.417816 1259.229795 2052.5585 1248.874038 2040.293388 1244.927633 C 2034.398038 1256.393797 2031.915089 1273.500856 2029.310231 1299.894107 C 2026.637866 1273.482887 2024.173196 1256.400853 2018.292421 1244.948894 C 2006.005729 1248.877123 1992.169479 1259.223628 1971.583474 1276.022387 C 1988.427456 1255.467194 1998.736639 1241.643703 2002.683043 1229.378592 C 1991.21688 1223.483242 1974.15102 1221.005667 1947.721944 1218.354234 C 1974.12779 1215.72307 1991.215198 1213.217199 2002.713731 1207.300598 C 1998.738928 1195.049733 1988.433623 1181.218857 1971.588289 1160.668677 C 1992.184683 1177.518034 2006.008173 1187.827216 2018.273285 1191.773621 C 2024.174009 1180.266257 2026.651584 1163.200398 2029.297643 1136.812522 C 2031.928807 1163.218367 2034.398852 1180.259201 2040.315452 1191.757735 C 2052.560944 1187.824131 2066.39182 1177.518827 2086.941999 1160.673493 C 2070.139217 1181.23406 2059.788834 1195.052176 2055.88363 1207.322662 Z M 2055.88363 1207.322662 " stroke="#0a2f4d" stroke-width="20" stroke-opacity="1" stroke-miterlimit="10"/></g></g></g><g clip-path="url(#f577314420)"><g clip-path="url(#9d408a398d)"><g clip-path="url(#0db4cf90d2)"><path fill="#b5ff00" d="M 433.539062 260.554688 C 432.398438 260.144531 430.773438 260.121094 428.28125 260.195312 C 430.710938 259.625 432.273438 259.1875 433.269531 258.5 C 432.753906 257.40625 431.625 256.238281 429.808594 254.53125 C 431.929688 255.84375 433.34375 256.640625 434.535156 256.859375 C 434.945312 255.71875 434.96875 254.09375 434.894531 251.601562 C 435.460938 254.027344 435.898438 255.59375 436.589844 256.59375 C 437.683594 256.074219 438.847656 254.941406 440.558594 253.128906 C 439.242188 255.242188 438.449219 256.660156 438.230469 257.851562 C 439.371094 258.261719 440.992188 258.285156 443.488281 258.210938 C 441.058594 258.78125 439.496094 259.21875 438.5 259.90625 C 439.015625 261.003906 440.144531 262.167969 441.964844 263.878906 C 439.839844 262.5625 438.425781 261.769531 437.234375 261.550781 C 436.824219 262.691406 436.804688 264.3125 436.875 266.808594 C 436.3125 264.378906 435.871094 262.816406 435.179688 261.816406 C 434.085938 262.335938 432.921875 263.464844 431.210938 265.28125 C 432.527344 263.164062 433.320312 261.746094 433.539062 260.554688 " fill-opacity="1" fill-rule="nonzero"/></g></g></g><g clip-path="url(#75cd8d2d0c)"><g clip-path="url(#7421926325)"><g clip-path="url(#58ff983cee)"><path stroke-linecap="butt" transform="matrix(-0.093225, 0.0121608, -0.0121608, -0.093225, 629.044844, 521.63349)" fill="none" stroke-linejoin="round" d="M 1702.847413 3022.653029 C 1714.313576 3028.548379 1731.420636 3031.031329 1757.808512 3033.677387 C 1731.397292 3036.349752 1714.315258 3038.814423 1702.863299 3044.695197 C 1706.796903 3056.940688 1717.096833 3070.812765 1733.906341 3091.316369 C 1713.340399 3074.554788 1699.516908 3064.245605 1687.257171 3060.258 C 1681.361821 3071.724164 1678.878872 3088.831223 1676.232813 3115.2191 C 1673.596275 3088.854454 1671.136978 3071.73122 1665.220378 3060.232686 C 1652.969512 3064.20749 1639.133262 3074.553995 1618.593831 3091.316928 C 1635.385864 3070.838761 1645.700421 3056.974071 1649.646826 3044.708959 C 1638.180663 3038.813609 1621.073603 3036.330659 1594.685727 3033.684601 C 1621.096947 3031.012237 1638.178981 3028.547566 1649.630939 3022.666791 C 1645.702711 3010.3801 1635.397406 2996.549224 1618.552072 2975.999044 C 1639.15384 2992.807201 1652.97733 3003.116383 1665.242442 3007.062788 C 1671.137792 2995.596624 1673.574167 2978.525391 1676.2668 2952.101688 C 1678.856764 2978.50216 1681.362635 2995.589568 1687.279235 3007.088102 C 1699.530101 3003.113298 1713.360977 2992.807994 1733.905782 2976.00386 C 1717.108374 2996.523227 1706.793817 3010.387918 1702.847413 3022.653029 Z M 1702.847413 3022.653029 " stroke="#0a2f4d" stroke-width="20" stroke-opacity="1" stroke-miterlimit="10"/></g></g></g><g clip-path="url(#162b4b5277)"><g clip-path="url(#0ec20d33fb)"><g clip-path="url(#19c9c87989)"><path fill="#b5ff00" d="M 379.050781 274.992188 C 378.351562 274.742188 377.351562 274.722656 375.824219 274.769531 C 377.3125 274.421875 378.273438 274.152344 378.886719 273.730469 C 378.566406 273.058594 377.875 272.34375 376.761719 271.292969 C 378.058594 272.101562 378.929688 272.589844 379.660156 272.722656 C 379.910156 272.023438 379.925781 271.023438 379.878906 269.492188 C 380.226562 270.984375 380.496094 271.945312 380.921875 272.558594 C 381.59375 272.242188 382.3125 271.546875 383.359375 270.433594 C 382.550781 271.734375 382.0625 272.601562 381.929688 273.332031 C 382.628906 273.582031 383.628906 273.597656 385.15625 273.554688 C 383.667969 273.898438 382.707031 274.171875 382.09375 274.59375 C 382.410156 275.265625 383.105469 275.980469 384.21875 277.03125 C 382.921875 276.222656 382.050781 275.738281 381.320312 275.601562 C 381.066406 276.300781 381.050781 277.296875 381.097656 278.832031 C 380.75 277.335938 380.480469 276.378906 380.058594 275.765625 C 379.386719 276.085938 378.667969 276.777344 377.621094 277.890625 C 378.429688 276.589844 378.914062 275.722656 379.050781 274.992188 " fill-opacity="1" fill-rule="nonzero"/></g></g></g><g clip-path="url(#18150d6913)"><g clip-path="url(#9489f6a49d)"><g clip-path="url(#e29572f0f7)"><path stroke-linecap="butt" transform="matrix(-0.093225, 0.0121608, -0.0121608, -0.093225, 629.044844, 521.63349)" fill="none" stroke-linejoin="round" d="M 2297.413533 2945.34431 C 2304.444418 2948.943143 2314.964811 2950.524989 2331.138604 2952.131974 C 2314.962985 2953.751152 2304.456889 2955.271869 2297.408015 2958.877717 C 2299.86204 2966.404861 2306.170971 2974.895775 2316.467332 2987.510346 C 2303.901346 2977.197595 2295.385489 2970.849073 2287.86377 2968.443252 C 2284.264938 2975.474137 2282.724292 2985.999905 2281.111932 3002.214897 C 2279.498128 2985.998079 2277.977411 2975.491983 2274.330363 2968.437734 C 2266.808594 2970.850559 2258.271105 2977.195316 2245.697734 2987.497051 C 2256.01586 2974.889865 2262.359007 2966.415208 2264.764828 2958.89349 C 2257.733943 2955.294657 2247.208175 2953.754011 2231.039757 2952.105826 C 2247.210001 2950.527847 2257.721472 2948.96593 2264.770346 2945.360083 C 2262.357521 2937.838313 2256.00739 2929.342024 2245.711029 2916.727453 C 2258.277014 2927.040205 2266.798246 2933.347526 2274.31459 2935.794547 C 2277.954624 2928.769037 2279.489895 2918.284469 2281.107629 2902.028276 C 2282.716059 2918.286295 2284.24215 2928.751191 2287.847997 2935.800065 C 2295.375142 2933.34604 2303.907256 2927.042484 2316.480627 2916.740749 C 2306.162501 2929.347934 2299.860554 2937.827966 2297.413533 2945.34431 Z M 2297.413533 2945.34431 " stroke="#0a2f4d" stroke-width="20" stroke-opacity="1" stroke-miterlimit="10"/></g></g></g><g clip-path="url(#4a83714403)"><g clip-path="url(#44907b54c2)"><g clip-path="url(#95d4e29c30)"><path fill="#b5ff00" d="M 472.199219 378.972656 C 471.550781 378.738281 470.632812 378.730469 469.214844 378.769531 C 470.59375 378.449219 471.480469 378.199219 472.046875 377.808594 C 471.75 377.1875 471.113281 376.527344 470.078125 375.554688 C 471.285156 376.304688 472.085938 376.75 472.761719 376.878906 C 472.992188 376.226562 473.011719 375.308594 472.96875 373.894531 C 473.289062 375.273438 473.535156 376.15625 473.929688 376.726562 C 474.550781 376.429688 475.210938 375.792969 476.183594 374.761719 C 475.4375 375.960938 474.984375 376.765625 474.859375 377.441406 C 475.507812 377.675781 476.433594 377.6875 477.84375 377.644531 C 476.46875 377.96875 475.578125 378.214844 475.015625 378.605469 C 475.308594 379.230469 475.949219 379.890625 476.980469 380.859375 C 475.773438 380.113281 474.972656 379.664062 474.296875 379.539062 C 474.0625 380.183594 474.046875 381.105469 474.09375 382.523438 C 473.773438 381.140625 473.519531 380.257812 473.128906 379.691406 C 472.507812 379.984375 471.847656 380.625 470.875 381.65625 C 471.625 380.453125 472.074219 379.652344 472.199219 378.972656 " fill-opacity="1" fill-rule="nonzero"/></g></g></g><g clip-path="url(#c828872281)"><g clip-path="url(#1ff15dcb3c)"><g clip-path="url(#25eac883a0)"><path stroke-linecap="butt" transform="matrix(-0.093225, 0.0121608, -0.0121608, -0.093225, 629.044844, 521.63349)" fill="none" stroke-linejoin="round" d="M 1458.013245 1720.476915 C 1464.530023 1723.84108 1474.201335 1725.186463 1489.210771 1726.725365 C 1474.226381 1728.206625 1464.529962 1729.623454 1458.018485 1732.964192 C 1460.295176 1739.923487 1466.102545 1747.762356 1475.682388 1759.445434 C 1463.983393 1749.874297 1456.150022 1744.075718 1449.194358 1741.827539 C 1445.871394 1748.349692 1444.40241 1758.00488 1442.910082 1772.978491 C 1441.428822 1757.994101 1440.047819 1748.344256 1436.671255 1741.786205 C 1429.71196 1744.062896 1421.873091 1749.870265 1410.195388 1759.408908 C 1419.714575 1747.786939 1425.60093 1739.923116 1427.849108 1732.967453 C 1421.33233 1729.603288 1411.583992 1728.205956 1396.651582 1726.719002 C 1411.600146 1725.191168 1421.332391 1723.820914 1427.802668 1720.474801 C 1425.572552 1713.47968 1419.723982 1705.635437 1410.179965 1693.998933 C 1421.884334 1703.52887 1429.712331 1709.36865 1436.667995 1711.616828 C 1440.026785 1705.14125 1441.459943 1695.439487 1442.916445 1680.419302 C 1444.392331 1695.444893 1445.855734 1705.105486 1449.196472 1711.616962 C 1456.150393 1709.381472 1463.994636 1703.532902 1475.67234 1693.994259 C 1466.106578 1705.652054 1460.266797 1713.480051 1458.013245 1720.476915 Z M 1458.013245 1720.476915 " stroke="#0a2f4d" stroke-width="20" stroke-opacity="1" stroke-miterlimit="10"/></g></g></g><g clip-path="url(#5a0bb9c7d9)"><g clip-path="url(#e175f9b364)"><g clip-path="url(#28c55579ad)"><path fill="#b5ff00" d="M 343.714844 298.855469 C 346.207031 300.851562 349.839844 300.457031 351.835938 297.960938 C 353.835938 295.476562 353.433594 291.84375 350.945312 289.84375 C 348.457031 287.847656 344.820312 288.25 342.828125 290.734375 C 340.828125 293.222656 341.230469 296.859375 343.714844 298.855469 " fill-opacity="1" fill-rule="nonzero"/></g></g></g><g clip-path="url(#3e91c82e6b)"><g clip-path="url(#6830185f3d)"><g clip-path="url(#31096aa75e)"><path stroke-linecap="butt" transform="matrix(-0.093225, 0.0121608, -0.0121608, -0.093225, 629.044844, 521.63349)" fill="none" stroke-linejoin="round" d="M 2702.943215 2742.26872 C 2679.403768 2717.786526 2640.544717 2716.949565 2616.057148 2740.530213 C 2591.544503 2763.981885 2590.789943 2802.851685 2614.282816 2827.369705 C 2637.781063 2851.846524 2676.692063 2852.606459 2701.122308 2829.144038 C 2725.640328 2805.651165 2726.400262 2766.740165 2702.943215 2742.26872 Z M 2702.943215 2742.26872 " stroke="#0a2f4d" stroke-width="20" stroke-opacity="1" stroke-miterlimit="10"/></g></g></g><g clip-path="url(#8837aed72a)"><g clip-path="url(#f22dd23f8e)"><g clip-path="url(#ff3b9c8081)"><path fill="#b5ff00" d="M 326.4375 398.230469 C 328.925781 400.226562 332.558594 399.828125 334.554688 397.339844 C 336.550781 394.847656 336.152344 391.214844 333.664062 389.21875 C 331.175781 387.21875 327.542969 387.625 325.542969 390.109375 C 323.550781 392.601562 323.949219 396.234375 326.4375 398.230469 " fill-opacity="1" fill-rule="nonzero"/></g></g></g><g clip-path="url(#3be671f9ba)"><g clip-path="url(#c8e68c8231)"><g clip-path="url(#275c8d22ef)"><path stroke-linecap="butt" transform="matrix(-0.093225, 0.0121608, -0.0121608, -0.093225, 629.044844, 521.63349)" fill="none" stroke-linejoin="round" d="M 3021.89653 1717.905173 C 2998.398283 1693.428353 2959.533857 1692.632593 2935.057038 1716.13084 C 2910.574844 1739.670288 2909.779084 1778.534713 2933.277331 1803.011533 C 2956.770203 1827.529552 2995.645378 1828.242912 3020.158023 1804.79124 C 3044.599017 1781.246418 3045.394777 1742.381992 3021.89653 1717.905173 Z M 3021.89653 1717.905173 " stroke="#0a2f4d" stroke-width="20" stroke-opacity="1" stroke-miterlimit="10"/></g></g></g><g clip-path="url(#93cd4afb01)"><g clip-path="url(#f8d8206235)"><g clip-path="url(#98149b8077)"><path fill="#b5ff00" d="M 400.816406 418.246094 C 404.675781 421.34375 410.320312 420.730469 413.417969 416.863281 C 416.515625 413 415.898438 407.355469 412.035156 404.257812 C 408.171875 401.160156 402.527344 401.777344 399.429688 405.640625 C 396.332031 409.503906 396.949219 415.148438 400.816406 418.246094 " fill-opacity="1" fill-rule="nonzero"/></g></g></g><g clip-path="url(#f63ba2a742)"><g clip-path="url(#4a501fb123)"><g clip-path="url(#b56ee9221b)"><path stroke-linecap="butt" transform="matrix(-0.093225, 0.0121608, -0.0121608, -0.093225, 629.044844, 521.63349)" fill="none" stroke-linejoin="round" d="M 2264.940866 1404.461227 C 2228.496909 1366.479523 2168.11876 1365.181964 2130.126308 1401.708322 C 2092.139229 1438.19348 2090.88287 1498.577003 2127.368028 1536.564081 C 2163.853186 1574.551159 2224.236709 1575.807518 2262.223787 1539.322361 C 2300.210865 1502.837203 2301.467224 1442.45368 2264.940866 1404.461227 Z M 2264.940866 1404.461227 " stroke="#0a2f4d" stroke-width="20" stroke-opacity="1" stroke-miterlimit="10"/></g></g></g><g clip-path="url(#ca2f68c129)"><g clip-path="url(#4e5469cbeb)"><g clip-path="url(#1e25c849e0)"><path fill="#b5ff00" d="M 468.792969 314.140625 C 470.394531 315.429688 472.734375 315.167969 474.023438 313.566406 C 475.304688 311.960938 475.050781 309.621094 473.449219 308.339844 C 471.847656 307.050781 469.503906 307.308594 468.21875 308.914062 C 466.933594 310.515625 467.191406 312.859375 468.792969 314.140625 " fill-opacity="1" fill-rule="nonzero"/></g></g></g><g clip-path="url(#f878131899)"><g clip-path="url(#bafaef8c54)"><g clip-path="url(#a268cdcfbe)"><path stroke-linecap="butt" transform="matrix(-0.093225, 0.0121608, -0.0121608, -0.093225, 629.044844, 521.63349)" fill="none" stroke-linejoin="round" d="M 1404.741048 2408.964022 C 1389.622494 2393.164436 1364.583456 2392.705591 1348.783871 2407.824146 C 1333.061311 2422.994649 1332.520065 2448.022938 1347.649369 2463.740123 C 1362.767923 2479.539709 1387.842786 2480.045129 1403.606546 2464.879999 C 1419.364932 2449.75607 1419.870352 2424.681207 1404.741048 2408.964022 Z M 1404.741048 2408.964022 " stroke="#0a2f4d" stroke-width="20" stroke-opacity="1" stroke-miterlimit="10"/></g></g></g><g clip-path="url(#d85cee6fdb)"><g clip-path="url(#581f75014b)"><g clip-path="url(#cb3d1878ab)"><path stroke-linecap="round" transform="matrix(-0.093225, 0.0121608, -0.0121608, -0.093225, 629.044844, 521.63349)" fill="none" stroke-linejoin="round" d="M 2199.31606 2566.037062 C 2199.31606 2566.037062 2459.083826 2752.820559 2558.315363 2781.980693 " stroke="#0a2f4d" stroke-width="20" stroke-opacity="1" stroke-miterlimit="10"/></g></g></g><g clip-path="url(#2c92398c28)"><g clip-path="url(#393b36a47a)"><g clip-path="url(#bb2a529271)"><path stroke-linecap="round" transform="matrix(-0.093225, 0.0121608, -0.0121608, -0.093225, 629.044844, 521.63349)" fill="none" stroke-linejoin="round" d="M 1494.730545 1826.709626 C 1494.730545 1826.709626 1667.217428 2079.667059 1869.584162 2270.276198 " stroke="#0a2f4d" stroke-width="20" stroke-opacity="1" stroke-miterlimit="10"/></g></g></g><g clip-path="url(#df192d4812)"><g clip-path="url(#6ed57c5601)"><g clip-path="url(#780abfac38)"><path fill="#b5ff00" d="M 360.445312 346.695312 C 360.554688 347.546875 360.691406 348.378906 360.855469 349.210938 C 360.980469 349.933594 361.128906 350.648438 361.296875 351.355469 C 364.375 364.5 372.925781 375.226562 384.144531 381.410156 C 384.898438 381.824219 385.667969 382.222656 386.445312 382.597656 C 394.277344 386.355469 403.253906 387.960938 412.511719 386.753906 C 415.398438 386.378906 418.179688 385.75 420.847656 384.882812 C 425.304688 383.4375 429.4375 381.359375 433.148438 378.75 C 433.746094 378.328125 434.347656 377.894531 434.917969 377.449219 C 436.222656 376.4375 437.46875 375.363281 438.65625 374.222656 C 448.933594 364.347656 454.554688 349.894531 452.570312 334.679688 C 452.199219 331.839844 451.574219 329.097656 450.730469 326.464844 C 450.511719 325.761719 450.265625 325.074219 450.019531 324.386719 C 446.519531 315.035156 440.160156 307.246094 432.105469 301.929688 C 431.488281 301.535156 430.875 301.140625 430.234375 300.757812 C 421.597656 295.621094 411.234375 293.230469 400.496094 294.632812 C 392.84375 295.632812 385.863281 298.445312 379.949219 302.570312 C 379.320312 303.015625 378.703125 303.460938 378.089844 303.941406 C 365.476562 313.710938 358.230469 329.730469 360.445312 346.695312 " fill-opacity="1" fill-rule="nonzero"/></g></g></g><g clip-path="url(#38b49217e8)"><g clip-path="url(#4c92adf2ce)"><g clip-path="url(#709b2ee813)"><path stroke-linecap="round" transform="matrix(-0.093225, 0.0121608, -0.0121608, -0.093225, 629.044844, 521.63349)" fill="none" stroke-linejoin="round" d="M 2592.302727 2214.670665 C 2592.320738 2205.538526 2592.023475 2196.574768 2591.43781 2187.573389 C 2591.113665 2179.779361 2590.531569 2172.035487 2589.732723 2164.347142 C 2575.351758 2021.473261 2499.922486 1896.572811 2390.103019 1815.917548 C 2382.721056 1810.513063 2375.152794 1805.251881 2367.469885 1800.227152 C 2290.03354 1749.816846 2197.56423 1720.533184 2098.258937 1720.526749 C 2067.296007 1720.510296 2037.096147 1723.316968 2007.763258 1728.792714 C 1958.765241 1737.904625 1912.316193 1754.137051 1869.585855 1776.553147 C 1862.701782 1780.180493 1855.760385 1783.926064 1849.132466 1787.838232 C 1833.979613 1796.71405 1819.358773 1806.329689 1805.264573 1816.726347 C 1683.280233 1906.740562 1604.107808 2051.447753 1604.104272 2214.652939 C 1604.111112 2245.116092 1606.930328 2274.898574 1612.207242 2303.828415 C 1613.547065 2311.545427 1615.196788 2319.135259 1616.84651 2326.725091 C 1640.89564 2430.173959 1697.253113 2521.076781 1774.893489 2588.232329 C 1780.860315 2593.242709 1786.785942 2598.247715 1793.016093 2603.16674 C 1877.042529 2669.227861 1983.057677 2708.700685 2098.246586 2708.684003 C 2180.333731 2708.665176 2257.82815 2688.605034 2325.880697 2653.234397 C 2333.126619 2649.402846 2340.24894 2645.555171 2347.378431 2641.331319 C 2493.855414 2555.6434 2592.322278 2396.650654 2592.302727 2214.670665 Z M 2592.302727 2214.670665 " stroke="#0a2f4d" stroke-width="20" stroke-opacity="1" stroke-miterlimit="10"/></g></g></g><g clip-path="url(#1dae572c0a)"><g clip-path="url(#9e4f0d8229)"><g clip-path="url(#78a3a3b2d7)"><path fill="#b5ff00" d="M 398.84375 294.898438 C 399.394531 294.804688 399.9375 294.707031 400.496094 294.632812 C 411.234375 293.230469 421.597656 295.621094 430.234375 300.757812 C 430.875 301.140625 431.488281 301.535156 432.105469 301.929688 C 440.160156 307.246094 446.519531 315.035156 450.019531 324.386719 C 450.265625 325.074219 450.511719 325.761719 450.730469 326.464844 C 451.574219 329.097656 452.199219 331.839844 452.570312 334.679688 C 452.644531 335.238281 452.691406 335.796875 452.742188 336.351562 C 434.777344 322.535156 416.8125 308.714844 398.84375 294.898438 " fill-opacity="1" fill-rule="nonzero"/></g></g></g><g clip-path="url(#f50ea9f156)"><g clip-path="url(#81429a2a13)"><g clip-path="url(#647ac0e636)"><path stroke-linecap="butt" transform="matrix(-0.093225, 0.0121608, -0.0121608, -0.093225, 629.044844, 521.63349)" fill="none" stroke-linejoin="round" d="M 2116.039753 2708.155754 C 2110.101531 2708.386771 2104.240336 2708.669736 2098.246586 2708.684003 C 1983.057677 2708.700685 1877.042529 2669.227861 1793.016093 2603.16674 C 1786.785942 2598.247715 1780.860315 2593.242709 1774.893489 2588.232329 C 1697.253113 2521.076781 1640.89564 2430.173959 1616.84651 2326.725091 C 1615.196788 2319.135259 1613.547065 2311.545427 1612.207242 2303.828415 C 1606.930328 2274.898574 1604.111112 2245.116092 1604.104272 2214.652939 C 1604.090006 2208.659189 1604.364141 2202.70306 1604.591702 2196.782756 C 1775.062443 2367.224897 1945.527811 2537.708239 2116.039753 2708.155754 Z M 2116.039753 2708.155754 " stroke="#0a2f4d" stroke-width="20" stroke-opacity="1" stroke-miterlimit="10"/></g></g></g><g clip-path="url(#34347ac928)"><g clip-path="url(#1fe36b5df0)"><g clip-path="url(#e7aad62f63)"><path fill="#b5ff00" d="M 415.097656 386.335938 C 414.242188 386.496094 413.382812 386.640625 412.511719 386.753906 C 403.253906 387.960938 394.277344 386.355469 386.445312 382.597656 C 385.667969 382.222656 384.898438 381.824219 384.144531 381.410156 C 372.925781 375.226562 364.375 364.5 361.296875 351.355469 C 361.128906 350.648438 360.980469 349.933594 360.855469 349.210938 C 360.691406 348.378906 360.554688 347.546875 360.445312 346.695312 C 360.332031 345.828125 360.257812 344.964844 360.191406 344.105469 C 378.496094 358.179688 396.792969 372.261719 415.097656 386.335938 " fill-opacity="1" fill-rule="nonzero"/></g></g></g><g clip-path="url(#a2a5887c38)"><g clip-path="url(#c6df487b43)"><g clip-path="url(#7c233f373a)"><path stroke-linecap="butt" transform="matrix(-0.093225, 0.0121608, -0.0121608, -0.093225, 629.044844, 521.63349)" fill="none" stroke-linejoin="round" d="M 2070.409308 1721.377327 C 2079.652514 1720.865109 2088.915423 1720.523066 2098.258937 1720.526749 C 2197.56423 1720.533184 2290.03354 1749.816846 2367.469885 1800.227152 C 2375.152794 1805.251881 2382.721056 1810.513063 2390.103019 1815.917548 C 2499.922486 1896.572811 2575.351758 2021.473261 2589.732723 2164.347142 C 2590.531569 2172.035487 2591.113665 2179.779361 2591.43781 2187.573389 C 2592.023475 2196.574768 2592.320738 2205.538526 2592.302727 2214.670665 C 2592.304419 2223.972979 2591.899483 2233.180349 2591.41752 2242.335769 C 2417.717066 2068.706839 2244.109762 1895.006257 2070.409308 1721.377327 Z M 2070.409308 1721.377327 " stroke="#0a2f4d" stroke-width="20" stroke-opacity="1" stroke-miterlimit="10"/></g></g></g><g clip-path="url(#ddf174560b)"><g clip-path="url(#bce430cf8a)"><g clip-path="url(#d17f1b02c7)"><path fill="#000000" d="M 384.144531 381.410156 C 384.898438 381.824219 385.667969 382.222656 386.445312 382.597656 C 386.230469 381.382812 386.335938 380.132812 386.910156 378.761719 C 388.40625 375.148438 391.605469 374.386719 395.324219 373.511719 C 399.070312 372.628906 403.320312 371.628906 405.257812 366.972656 C 407.1875 362.316406 404.878906 358.597656 402.847656 355.320312 C 400.839844 352.074219 399.109375 349.277344 400.609375 345.664062 C 402.101562 342.046875 405.308594 341.300781 409.011719 340.417969 C 412.773438 339.539062 417.023438 338.53125 418.949219 333.871094 C 420.878906 329.230469 418.578125 325.511719 416.546875 322.230469 C 414.539062 318.984375 412.804688 316.195312 414.304688 312.574219 C 415.796875 308.960938 419 308.199219 422.714844 307.332031 C 426.128906 306.53125 429.984375 305.617188 432.105469 301.929688 C 431.488281 301.535156 430.875 301.140625 430.234375 300.757812 C 428.617188 303.695312 425.632812 304.390625 422.214844 305.1875 C 418.460938 306.078125 414.203125 307.078125 412.273438 311.734375 C 410.347656 316.390625 412.648438 320.109375 414.683594 323.386719 C 416.6875 326.621094 418.425781 329.425781 416.929688 333.039062 C 415.429688 336.65625 412.226562 337.410156 408.511719 338.277344 C 404.753906 339.167969 400.503906 340.164062 398.574219 344.824219 C 396.648438 349.476562 398.949219 353.195312 400.980469 356.472656 C 402.988281 359.71875 404.722656 362.515625 403.226562 366.128906 C 401.722656 369.746094 398.527344 370.503906 394.8125 371.375 C 391.066406 372.265625 386.800781 373.265625 384.871094 377.921875 C 384.371094 379.148438 384.15625 380.304688 384.144531 381.410156 " fill-opacity="1" fill-rule="nonzero"/></g></g></g><g clip-path="url(#4cfb093310)"><g clip-path="url(#a28b6246ee)"><g clip-path="url(#597f39970f)"><path fill="#000000" d="M 360.855469 349.210938 C 360.980469 349.933594 361.128906 350.648438 361.296875 351.355469 C 362.113281 351.09375 363.003906 350.878906 363.941406 350.667969 C 367.175781 349.902344 370.835938 349.039062 372.5 345 C 374.164062 340.976562 372.1875 337.78125 370.445312 334.957031 C 368.765625 332.242188 367.308594 329.898438 368.542969 326.902344 C 369.792969 323.902344 372.476562 323.277344 375.578125 322.542969 C 378.8125 321.785156 382.476562 320.925781 384.140625 316.886719 C 385.8125 312.851562 383.828125 309.660156 382.089844 306.839844 C 381.175781 305.363281 380.320312 303.996094 379.949219 302.570312 C 379.320312 303.015625 378.703125 303.460938 378.089844 303.941406 C 378.613281 305.398438 379.4375 306.730469 380.222656 307.992188 C 381.90625 310.703125 383.351562 313.050781 382.117188 316.042969 C 380.878906 319.039062 378.195312 319.679688 375.082031 320.402344 C 371.847656 321.167969 368.199219 322.035156 366.519531 326.066406 C 364.851562 330.09375 366.832031 333.289062 368.574219 336.117188 C 370.253906 338.828125 371.714844 341.175781 370.476562 344.167969 C 369.226562 347.164062 366.546875 347.792969 363.441406 348.527344 C 362.59375 348.730469 361.710938 348.929688 360.855469 349.210938 " fill-opacity="1" fill-rule="nonzero"/></g></g></g><g clip-path="url(#684c625149)"><g clip-path="url(#dacbc52fa6)"><g clip-path="url(#ec1f5f8bb6)"><path fill="#000000" d="M 434.917969 377.449219 C 436.222656 376.4375 437.46875 375.363281 438.65625 374.222656 C 438.964844 371.242188 437.410156 368.746094 436.007812 366.480469 C 434.328125 363.753906 432.882812 361.421875 434.117188 358.421875 C 435.355469 355.429688 438.039062 354.792969 441.152344 354.066406 C 444.386719 353.300781 448.035156 352.4375 449.707031 348.398438 C 451.375 344.375 449.398438 341.179688 447.65625 338.351562 C 445.976562 335.640625 444.519531 333.292969 445.757812 330.296875 C 446.71875 327.996094 448.535156 327.09375 450.730469 326.464844 C 450.511719 325.761719 450.265625 325.074219 450.019531 324.386719 C 447.484375 325.125 445.019531 326.355469 443.730469 329.457031 C 442.054688 333.492188 444.042969 336.6875 445.78125 339.511719 C 447.46875 342.230469 448.925781 344.574219 447.6875 347.566406 C 446.4375 350.5625 443.753906 351.191406 440.652344 351.925781 C 437.417969 352.679688 433.757812 353.546875 432.09375 357.582031 C 430.417969 361.621094 432.40625 364.8125 434.144531 367.628906 C 435.828125 370.34375 437.285156 372.6875 436.039062 375.6875 C 435.742188 376.398438 435.363281 376.976562 434.917969 377.449219 " fill-opacity="1" fill-rule="nonzero"/></g></g></g><g clip-path="url(#88f673ca5c)"><g clip-path="url(#d779f8bca9)"><g clip-path="url(#599759c658)"><path fill="#000000" d="M 420.847656 384.882812 C 425.304688 383.4375 429.4375 381.359375 433.148438 378.75 C 431.953125 379.355469 430.527344 379.679688 429 380.046875 C 426.019531 380.753906 422.644531 381.546875 420.847656 384.882812 " fill-opacity="1" fill-rule="nonzero"/></g></g></g><g clip-path="url(#1d705a1931)"><g clip-path="url(#04102e3585)"><g clip-path="url(#33177741c5)"><path stroke-linecap="round" transform="matrix(-0.093225, 0.0121608, -0.0121608, -0.093225, 629.044844, 521.63349)" fill="none" stroke-linejoin="round" d="M 2007.794289 1842.26554 C 2007.794289 1842.26554 2811.646103 2542.709898 2719.998532 2725.554114 C 2675.044784 2783.966721 2440.636374 2628.271817 2440.636374 2628.271817 " stroke="#0a2f4d" stroke-width="20" stroke-opacity="1" stroke-miterlimit="10"/></g></g></g><g clip-path="url(#45e78c5f2d)"><g clip-path="url(#fb5bcb0d29)"><g clip-path="url(#99dbddadd3)"><path stroke-linecap="round" transform="matrix(-0.093225, 0.0121608, -0.0121608, -0.093225, 629.044844, 521.63349)" fill="none" stroke-linejoin="round" d="M 2631.593393 2391.758985 C 2789.712827 2578.188506 2901.856417 2753.131606 2859.071666 2838.602093 C 2837.788723 2866.204284 2782.911809 2855.819427 2722.648544 2832.119647 " stroke="#0a2f4d" stroke-width="20" stroke-opacity="1" stroke-miterlimit="10"/></g></g></g><g clip-path="url(#129f15d6a1)"><g clip-path="url(#40f8e8ff71)"><g clip-path="url(#36a6bf0730)"><path stroke-linecap="round" transform="matrix(-0.093225, 0.0121608, -0.0121608, -0.093225, 629.044844, 521.63349)" fill="none" stroke-linejoin="round" d="M 2098.192902 2032.934388 C 2098.192902 2032.934388 1726.723629 1706.043555 1632.778001 1702.210922 C 1538.843121 1698.295889 1682.765022 1842.271024 1682.765022 1842.271024 " stroke="#0a2f4d" stroke-width="20" stroke-opacity="1" stroke-miterlimit="10"/></g></g></g><g clip-path="url(#29bb9b2054)"><g clip-path="url(#fa82ec2968)"><g clip-path="url(#a2f5b46be4)"><path stroke-linecap="round" transform="matrix(-0.093225, 0.0121608, -0.0121608, -0.093225, 629.044844, 521.63349)" fill="none" stroke-linejoin="round" d="M 2229.810624 1973.46583 C 2229.810624 1973.46583 1661.677985 1473.59607 1518.016141 1467.677812 " stroke="#0a2f4d" stroke-width="20" stroke-opacity="1" stroke-miterlimit="10"/></g></g></g><g clip-path="url(#0c406d3c31)"><g clip-path="url(#0b53d93bf2)"><g clip-path="url(#1c9e765c64)"><path stroke-linecap="round" transform="matrix(-0.093225, 0.0121608, -0.0121608, -0.093225, 629.044844, 521.63349)" fill="none" stroke-linejoin="round" d="M 1600.930454 1842.280897 C 1600.930454 1842.280897 1434.904562 1616.564106 1517.998802 1581.521441 " stroke="#0a2f4d" stroke-width="20" stroke-opacity="1" stroke-miterlimit="10"/></g></g></g><g clip-path="url(#277e18614d)"><g clip-path="url(#2378091014)"><g clip-path="url(#5d54a115ff)"><path fill="#000000" d="M 346.46875 293.328125 C 346.585938 294.222656 347.40625 294.855469 348.296875 294.738281 C 349.191406 294.621094 349.820312 293.800781 349.703125 292.90625 C 349.585938 292.015625 348.765625 291.386719 347.875 291.5 C 346.984375 291.617188 346.351562 292.4375 346.46875 293.328125 " fill-opacity="1" fill-rule="nonzero"/></g></g></g><g clip-path="url(#e7b92cdcee)"><g clip-path="url(#87b75a1399)"><g clip-path="url(#14c3e72de6)"><path fill="#000000" d="M 391.21875 362.753906 C 391.335938 363.648438 392.15625 364.277344 393.046875 364.160156 C 393.941406 364.046875 394.570312 363.226562 394.453125 362.332031 C 394.335938 361.4375 393.519531 360.8125 392.625 360.929688 C 391.734375 361.042969 391.105469 361.859375 391.21875 362.753906 " fill-opacity="1" fill-rule="nonzero"/></g></g></g><g clip-path="url(#16458b446e)"><g clip-path="url(#5ad951568a)"><g clip-path="url(#9295bd2824)"><path fill="#000000" d="M 453.453125 366.6875 C 453.570312 367.582031 454.390625 368.210938 455.285156 368.09375 C 456.175781 367.976562 456.808594 367.160156 456.691406 366.265625 C 456.574219 365.371094 455.753906 364.746094 454.863281 364.859375 C 453.96875 364.976562 453.335938 365.792969 453.453125 366.6875 " fill-opacity="1" fill-rule="nonzero"/></g></g></g><g clip-path="url(#3c09b9564a)"><g clip-path="url(#a3fe9d303f)"><g clip-path="url(#c6025c885a)"><path stroke-linecap="round" transform="matrix(-0.093225, 0.0121608, -0.0121608, -0.093225, 629.044844, 521.63349)" fill="none" stroke-linejoin="round" d="M 1412.786203 1538.46599 C 1412.786203 1538.46599 1336.921553 1421.721406 1430.582668 1396.898323 " stroke="#0a2f4d" stroke-width="20" stroke-opacity="1" stroke-miterlimit="10"/></g></g></g><g clip-path="url(#c1eddb0b55)"><g clip-path="url(#6790b49ba1)"><g clip-path="url(#0bfdcb9221)"><path stroke-linecap="round" transform="matrix(-0.093225, 0.0121608, -0.0121608, -0.093225, 629.044844, 521.63349)" fill="none" stroke-linejoin="round" d="M 1797.717459 2514.446396 C 1797.717459 2514.446396 1937.714392 2676.304216 2178.009402 2633.651921 " stroke="#0a2f4d" stroke-width="20" stroke-opacity="1" stroke-miterlimit="10"/></g></g></g><g clip-path="url(#160add6447)"><g clip-path="url(#118b931018)"><g clip-path="url(#752e25f2ca)"><path fill="#000000" d="M 387.078125 304.605469 C 387.207031 305.570312 388.09375 306.253906 389.0625 306.128906 C 390.03125 306 390.714844 305.113281 390.589844 304.148438 C 390.464844 303.175781 389.574219 302.496094 388.605469 302.621094 C 387.636719 302.746094 386.953125 303.632812 387.078125 304.605469 " fill-opacity="1" fill-rule="nonzero"/></g></g></g></svg>