<svg xmlns="http://www.w3.org/2000/svg" xmlns:xlink="http://www.w3.org/1999/xlink" width="1080" zoomAndPan="magnify" viewBox="0 0 810 809.999993" height="1080" preserveAspectRatio="xMidYMid meet" version="1.0"><defs><g/><clipPath id="714ea4daf6"><path d="M 17.667969 17.566406 L 792.332031 17.566406 L 792.332031 792.230469 L 17.667969 792.230469 Z M 17.667969 17.566406 " clip-rule="nonzero"/></clipPath><clipPath id="451651343d"><path d="M 405 17.566406 C 191.082031 17.566406 17.667969 190.980469 17.667969 404.898438 C 17.667969 618.816406 191.082031 792.230469 405 792.230469 C 618.917969 792.230469 792.332031 618.816406 792.332031 404.898438 C 792.332031 190.980469 618.917969 17.566406 405 17.566406 Z M 405 17.566406 " clip-rule="nonzero"/></clipPath></defs><g clip-path="url(#714ea4daf6)"><g clip-path="url(#451651343d)"><path fill="#000000" d="M 17.667969 17.566406 L 792.332031 17.566406 L 792.332031 792.230469 L 17.667969 792.230469 Z M 17.667969 17.566406 " fill-opacity="1" fill-rule="nonzero"/></g></g><g fill="#00ffc9" fill-opacity="1"><g transform="translate(268.367607, 706.554589)"><g><path d="M 355.75 -324.8125 L 385.640625 -313.46875 C 384.953125 -312.78125 380.3125 -302.8125 371.71875 -283.5625 C 363.132812 -264.3125 353.859375 -244.203125 343.890625 -223.234375 C 333.921875 -202.273438 319.828125 -178.390625 301.609375 -151.578125 C 283.390625 -124.765625 264.65625 -101.21875 245.40625 -80.9375 C 226.164062 -60.664062 203.140625 -43.65625 176.328125 -29.90625 C 149.515625 -16.15625 122.359375 -9.625 94.859375 -10.3125 C 63.929688 -11.6875 40.734375 -24.226562 25.265625 -47.9375 C 9.796875 -71.65625 1.546875 -101.21875 0.515625 -136.625 C -0.515625 -172.03125 0.6875 -207.257812 4.125 -242.3125 C 7.5625 -277.375 11.515625 -310.023438 15.984375 -340.265625 C 20.453125 -370.515625 21.65625 -389.078125 19.59375 -395.953125 C 23.71875 -396.640625 29.21875 -397.5 36.09375 -398.53125 C 42.96875 -399.5625 55.164062 -399.5625 72.6875 -398.53125 C 90.21875 -397.5 105.171875 -394.40625 117.546875 -389.25 C 129.921875 -384.09375 140.578125 -374.296875 149.515625 -359.859375 C 158.453125 -345.429688 161.203125 -326.875 157.765625 -304.1875 C 139.203125 -178.382812 142.296875 -110.671875 167.046875 -101.046875 C 177.359375 -96.921875 191.453125 -101.046875 209.328125 -113.421875 C 231.316406 -128.546875 254.515625 -153.804688 278.921875 -189.203125 C 303.328125 -224.609375 322.40625 -256.0625 336.15625 -283.5625 Z M 154.671875 -478.453125 C 139.546875 -463.328125 121.328125 -455.765625 100.015625 -455.765625 C 78.710938 -455.765625 60.5 -463.328125 45.375 -478.453125 C 30.25 -493.578125 22.6875 -511.789062 22.6875 -533.09375 C 22.6875 -554.40625 30.25 -572.625 45.375 -587.75 C 60.5 -602.875 78.710938 -610.4375 100.015625 -610.4375 C 121.328125 -610.4375 139.546875 -602.875 154.671875 -587.75 C 169.796875 -572.625 177.359375 -554.40625 177.359375 -533.09375 C 177.359375 -511.789062 169.796875 -493.578125 154.671875 -478.453125 Z M 154.671875 -478.453125 "/></g></g></g></svg>