<svg xmlns="http://www.w3.org/2000/svg" xmlns:xlink="http://www.w3.org/1999/xlink" width="1080" zoomAndPan="magnify" viewBox="0 0 810 809.999993" height="1080" preserveAspectRatio="xMidYMid meet" version="1.0"><defs><g/><clipPath id="0c0e36af20"><path d="M 247.183594 244.980469 L 562.816406 244.980469 L 562.816406 560.617188 L 247.183594 560.617188 Z M 247.183594 244.980469 " clip-rule="nonzero"/></clipPath><clipPath id="0fd14b4524"><path d="M 405 244.980469 C 317.839844 244.980469 247.183594 315.636719 247.183594 402.800781 C 247.183594 489.960938 317.839844 560.617188 405 560.617188 C 492.160156 560.617188 562.816406 489.960938 562.816406 402.800781 C 562.816406 315.636719 492.160156 244.980469 405 244.980469 Z M 405 244.980469 " clip-rule="nonzero"/></clipPath></defs><g clip-path="url(#0c0e36af20)"><g clip-path="url(#0fd14b4524)"><path fill="#000000" d="M 247.183594 244.980469 L 562.816406 244.980469 L 562.816406 560.617188 L 247.183594 560.617188 Z M 247.183594 244.980469 " fill-opacity="1" fill-rule="nonzero"/></g></g><g fill="#00ffc9" fill-opacity="1"><g transform="translate(349.874986, 499.076083)"><g><path d="M 67.53125 -165.734375 C 59.269531 -165.734375 52.503906 -168.265625 47.234375 -173.328125 C 41.972656 -178.390625 39.34375 -184.742188 39.34375 -192.390625 C 39.34375 -200.648438 42.441406 -207.773438 48.640625 -213.765625 C 54.835938 -219.753906 62.375 -222.75 71.25 -222.75 C 79.507812 -222.75 86.269531 -220.164062 91.53125 -215 C 96.800781 -209.832031 99.4375 -203.429688 99.4375 -195.796875 C 99.4375 -187.535156 96.335938 -180.457031 90.140625 -174.5625 C 83.953125 -168.675781 76.414062 -165.734375 67.53125 -165.734375 Z M 45.84375 1.234375 C 37.789062 1.234375 30.5625 -1.601562 24.15625 -7.28125 C 17.757812 -12.957031 14.5625 -22.097656 14.5625 -34.703125 C 14.5625 -41.929688 15.539062 -48.691406 17.5 -54.984375 C 19.46875 -61.285156 21.738281 -67.429688 24.3125 -73.421875 C 26.894531 -79.410156 29.164062 -85.242188 31.125 -90.921875 C 33.09375 -96.597656 34.078125 -102.226562 34.078125 -107.8125 C 34.078125 -112.769531 33.25 -116.332031 31.59375 -118.5 C 29.945312 -120.664062 27.988281 -121.75 25.71875 -121.75 C 22.207031 -121.75 18.796875 -119.476562 15.484375 -114.9375 L 13.328125 -116.171875 C 14.148438 -124.429688 16.78125 -131.503906 21.21875 -137.390625 C 25.65625 -143.273438 31.128906 -147.867188 37.640625 -151.171875 C 44.148438 -154.484375 50.601562 -156.140625 57 -156.140625 C 64.851562 -156.140625 71.671875 -153.609375 77.453125 -148.546875 C 83.234375 -143.484375 86.125 -135.273438 86.125 -123.921875 C 86.125 -117.109375 85.140625 -109.929688 83.171875 -102.390625 C 81.210938 -94.847656 78.941406 -87.359375 76.359375 -79.921875 C 73.785156 -72.492188 71.515625 -65.578125 69.546875 -59.171875 C 67.585938 -52.765625 66.609375 -47.289062 66.609375 -42.75 C 66.609375 -38.820312 67.378906 -36.03125 68.921875 -34.375 C 70.472656 -32.726562 72.179688 -31.90625 74.046875 -31.90625 C 75.898438 -31.90625 77.703125 -32.472656 79.453125 -33.609375 C 81.210938 -34.742188 82.503906 -36.035156 83.328125 -37.484375 L 85.5 -36.859375 C 85.5 -29.222656 83.484375 -22.5625 79.453125 -16.875 C 75.429688 -11.195312 70.425781 -6.757812 64.4375 -3.5625 C 58.445312 -0.363281 52.25 1.234375 45.84375 1.234375 Z M 45.84375 1.234375 "/></g></g></g></svg>