<svg xmlns="http://www.w3.org/2000/svg" xmlns:xlink="http://www.w3.org/1999/xlink" width="1080" zoomAndPan="magnify" viewBox="0 0 810 809.999993" height="1080" preserveAspectRatio="xMidYMid meet" version="1.0"><defs><clipPath id="a33a3fbdc1"><path d="M 127.742188 87.007812 L 681.992188 87.007812 L 681.992188 728 L 127.742188 728 Z M 127.742188 87.007812 " clip-rule="nonzero"/></clipPath></defs><g clip-path="url(#a33a3fbdc1)"><path fill="#000000" d="M 681.367188 94.164062 C 681.265625 92.792969 681.230469 90.421875 680.851562 87.75 C 671.265625 105.910156 661.308594 112.550781 649.355469 117.917969 C 635.699219 124.058594 620.402344 125.335938 605.507812 126.84375 C 531.140625 134.320312 456.316406 138.230469 381.625 135.511719 C 352.121094 134.4375 322.503906 132.332031 293.132812 135.367188 C 263.761719 138.398438 234.222656 146.957031 210.917969 165.078125 C 178.96875 189.917969 154.628906 217.25 139.46875 254.769531 C 130.371094 277.265625 129.304688 303.695312 128.246094 327.714844 C 127.9375 334.75 127.796875 341.796875 127.917969 348.839844 C 127.957031 351.011719 128.015625 353.175781 128.101562 355.339844 C 128.890625 374.777344 129.671875 389.84375 136.699219 408.058594 C 138.964844 413.917969 144.136719 422.105469 148.4375 426.53125 C 149.082031 427.191406 156.691406 434.1875 156.53125 432.34375 C 151.839844 378.613281 168.3125 323.519531 200.792969 280.464844 C 220.082031 254.886719 245.652344 232.992188 276.246094 223.46875 C 291.320312 218.773438 306.988281 217.222656 322.816406 217.117188 C 322.65625 221.539062 322.628906 225.511719 322.351562 228.265625 C 318.625 265.382812 309.535156 301.679688 300.484375 337.789062 C 284.324219 402.253906 267.527344 468.175781 230.46875 523.34375 C 211.910156 550.96875 187.222656 586.832031 170.457031 615.582031 C 153.6875 644.324219 140.070312 672.917969 151.640625 704.121094 C 156.515625 717.253906 171.816406 725.347656 185.714844 727.097656 C 195.421875 728.316406 205.15625 723.828125 212.382812 717.230469 C 219.605469 710.636719 224.726562 702.105469 229.609375 693.628906 C 312.113281 550.558594 325.015625 389.03125 344.972656 218.789062 C 345.011719 218.46875 345.050781 218.113281 345.097656 217.742188 C 351.566406 218.097656 358.019531 218.5625 364.4375 219.023438 C 401.734375 221.6875 439.082031 223.988281 476.449219 225.265625 C 475.046875 233.75 473.523438 242.222656 472.121094 250.695312 C 462.25 310.347656 452.382812 370 442.515625 429.648438 C 436.996094 463.003906 431.476562 496.355469 425.957031 529.714844 C 421.488281 556.726562 417.003906 583.953125 417.8125 611.324219 C 418.609375 638.695312 425.0625 666.554688 440.734375 689.015625 C 456.417969 711.46875 482.261719 727.773438 509.644531 727.617188 C 531.792969 727.492188 552.992188 716.800781 569.039062 701.539062 C 585.082031 686.273438 599.113281 668.429688 608.1875 648.226562 C 617.296875 627.933594 621.621094 604.132812 625.152344 581.84375 C 628.917969 558.097656 625.890625 520.949219 619.957031 514.015625 C 619.957031 514.015625 615.804688 541.46875 613.164062 548.0625 C 599.882812 581.265625 590.890625 599.519531 563.644531 620.933594 C 554.011719 628.503906 542.894531 634.777344 530.730469 636.230469 C 518.566406 637.679688 505.242188 633.550781 497.984375 623.683594 C 485.640625 606.890625 484.902344 585.597656 483.828125 565.589844 C 482.195312 535.046875 484.855469 504.558594 487.074219 474.144531 C 490.191406 431.558594 494.363281 389.042969 499.601562 346.660156 C 502.898438 319.976562 506.617188 293.34375 510.757812 266.773438 C 512.769531 253.835938 516.089844 239.992188 517.519531 226.214844 C 532.175781 226.390625 546.839844 226.375 561.496094 226.121094 C 566.074219 226.042969 570.652344 225.9375 575.226562 225.730469 C 610.425781 224.1875 647.851562 212.835938 666.328125 180.175781 C 673.71875 167.113281 678.710938 152.988281 680.804688 138.113281 C 681.90625 130.3125 682.28125 122.421875 682.238281 114.546875 C 682.21875 110.171875 682.066406 105.800781 681.832031 101.433594 C 681.707031 99.007812 681.546875 96.582031 681.367188 94.164062 " fill-opacity="1" fill-rule="nonzero"/></g></svg>