<svg xmlns="http://www.w3.org/2000/svg" xmlns:xlink="http://www.w3.org/1999/xlink" width="1080" zoomAndPan="magnify" viewBox="0 0 810 809.999993" height="1080" preserveAspectRatio="xMidYMid meet" version="1.0"><defs><clipPath id="e3caba2558"><path d="M 34.53125 560 L 775.53125 560 L 775.53125 696.179688 L 34.53125 696.179688 Z M 34.53125 560 " clip-rule="nonzero"/></clipPath></defs><path fill="#000000" d="M 607.992188 482.984375 L 618.289062 482.984375 L 618.289062 488.132812 L 607.992188 488.132812 Z M 607.992188 482.984375 " fill-opacity="1" fill-rule="nonzero"/><path fill="#000000" d="M 628.582031 482.984375 L 638.878906 482.984375 L 638.878906 488.132812 L 628.582031 488.132812 Z M 628.582031 482.984375 " fill-opacity="1" fill-rule="nonzero"/><path fill="#000000" d="M 710.945312 482.984375 L 721.242188 482.984375 L 721.242188 488.132812 L 710.945312 488.132812 Z M 710.945312 482.984375 " fill-opacity="1" fill-rule="nonzero"/><path fill="#000000" d="M 134.402344 482.984375 L 144.699219 482.984375 L 144.699219 488.132812 L 134.402344 488.132812 Z M 134.402344 482.984375 " fill-opacity="1" fill-rule="nonzero"/><path fill="#000000" d="M 690.355469 482.984375 L 700.652344 482.984375 L 700.652344 488.132812 L 690.355469 488.132812 Z M 690.355469 482.984375 " fill-opacity="1" fill-rule="nonzero"/><path fill="#000000" d="M 124.105469 482.984375 L 115.628906 482.984375 L 122.632812 466.484375 L 77.445312 485.558594 L 122.632812 504.632812 L 115.625 488.132812 L 124.105469 488.132812 Z M 124.105469 482.984375 " fill-opacity="1" fill-rule="nonzero"/><path fill="#000000" d="M 546.21875 482.984375 L 556.515625 482.984375 L 556.515625 488.132812 L 546.21875 488.132812 Z M 546.21875 482.984375 " fill-opacity="1" fill-rule="nonzero"/><path fill="#000000" d="M 649.171875 482.984375 L 659.46875 482.984375 L 659.46875 488.132812 L 649.171875 488.132812 Z M 649.171875 482.984375 " fill-opacity="1" fill-rule="nonzero"/><path fill="#000000" d="M 257.945312 482.984375 L 268.238281 482.984375 L 268.238281 488.132812 L 257.945312 488.132812 Z M 257.945312 482.984375 " fill-opacity="1" fill-rule="nonzero"/><path fill="#000000" d="M 196.175781 482.984375 L 206.46875 482.984375 L 206.46875 488.132812 L 196.175781 488.132812 Z M 196.175781 482.984375 " fill-opacity="1" fill-rule="nonzero"/><path fill="#000000" d="M 566.808594 482.984375 L 577.105469 482.984375 L 577.105469 488.132812 L 566.808594 488.132812 Z M 566.808594 482.984375 " fill-opacity="1" fill-rule="nonzero"/><path fill="#000000" d="M 669.765625 482.984375 L 680.058594 482.984375 L 680.058594 488.132812 L 669.765625 488.132812 Z M 669.765625 482.984375 " fill-opacity="1" fill-rule="nonzero"/><path fill="#000000" d="M 175.582031 482.984375 L 185.878906 482.984375 L 185.878906 488.132812 L 175.582031 488.132812 Z M 175.582031 482.984375 " fill-opacity="1" fill-rule="nonzero"/><path fill="#000000" d="M 587.402344 482.984375 L 597.695312 482.984375 L 597.695312 488.132812 L 587.402344 488.132812 Z M 587.402344 482.984375 " fill-opacity="1" fill-rule="nonzero"/><path fill="#000000" d="M 525.628906 482.984375 L 535.921875 482.984375 L 535.921875 488.132812 L 525.628906 488.132812 Z M 525.628906 482.984375 " fill-opacity="1" fill-rule="nonzero"/><path fill="#000000" d="M 237.355469 482.984375 L 247.648438 482.984375 L 247.648438 488.132812 L 237.355469 488.132812 Z M 237.355469 482.984375 " fill-opacity="1" fill-rule="nonzero"/><path fill="#000000" d="M 216.761719 482.984375 L 227.058594 482.984375 L 227.058594 488.132812 L 216.761719 488.132812 Z M 216.761719 482.984375 " fill-opacity="1" fill-rule="nonzero"/><path fill="#000000" d="M 278.535156 482.984375 L 288.832031 482.984375 L 288.832031 488.132812 L 278.535156 488.132812 Z M 278.535156 482.984375 " fill-opacity="1" fill-rule="nonzero"/><path fill="#000000" d="M 494.742188 488.132812 L 494.742188 482.984375 L 488.433594 482.984375 L 486.832031 488.132812 Z M 494.742188 488.132812 " fill-opacity="1" fill-rule="nonzero"/><path fill="#000000" d="M 505.039062 482.984375 L 515.332031 482.984375 L 515.332031 488.132812 L 505.039062 488.132812 Z M 505.039062 482.984375 " fill-opacity="1" fill-rule="nonzero"/><path fill="#000000" d="M 154.992188 482.984375 L 165.289062 482.984375 L 165.289062 488.132812 L 154.992188 488.132812 Z M 154.992188 482.984375 " fill-opacity="1" fill-rule="nonzero"/><path fill="#000000" d="M 505.039062 422.3125 L 515.332031 422.3125 L 515.332031 427.460938 L 505.039062 427.460938 Z M 505.039062 422.3125 " fill-opacity="1" fill-rule="nonzero"/><path fill="#000000" d="M 299.128906 422.3125 L 299.128906 427.460938 L 304.558594 427.460938 L 304.523438 422.3125 Z M 299.128906 422.3125 " fill-opacity="1" fill-rule="nonzero"/><path fill="#000000" d="M 525.628906 422.3125 L 535.921875 422.3125 L 535.921875 427.460938 L 525.628906 427.460938 Z M 525.628906 422.3125 " fill-opacity="1" fill-rule="nonzero"/><path fill="#000000" d="M 710.945312 422.3125 L 721.242188 422.3125 L 721.242188 427.460938 L 710.945312 427.460938 Z M 710.945312 422.3125 " fill-opacity="1" fill-rule="nonzero"/><path fill="#000000" d="M 546.21875 422.3125 L 556.515625 422.3125 L 556.515625 427.460938 L 546.21875 427.460938 Z M 546.21875 422.3125 " fill-opacity="1" fill-rule="nonzero"/><path fill="#000000" d="M 566.808594 422.3125 L 577.105469 422.3125 L 577.105469 427.460938 L 566.808594 427.460938 Z M 566.808594 422.3125 " fill-opacity="1" fill-rule="nonzero"/><path fill="#000000" d="M 216.761719 422.3125 L 227.058594 422.3125 L 227.058594 427.460938 L 216.761719 427.460938 Z M 216.761719 422.3125 " fill-opacity="1" fill-rule="nonzero"/><path fill="#000000" d="M 690.355469 422.3125 L 700.652344 422.3125 L 700.652344 427.460938 L 690.355469 427.460938 Z M 690.355469 422.3125 " fill-opacity="1" fill-rule="nonzero"/><path fill="#000000" d="M 257.945312 422.3125 L 268.238281 422.3125 L 268.238281 427.460938 L 257.945312 427.460938 Z M 257.945312 422.3125 " fill-opacity="1" fill-rule="nonzero"/><path fill="#000000" d="M 196.175781 422.3125 L 206.46875 422.3125 L 206.46875 427.460938 L 196.175781 427.460938 Z M 196.175781 422.3125 " fill-opacity="1" fill-rule="nonzero"/><path fill="#000000" d="M 175.582031 422.3125 L 185.878906 422.3125 L 185.878906 427.460938 L 175.582031 427.460938 Z M 175.582031 422.3125 " fill-opacity="1" fill-rule="nonzero"/><path fill="#000000" d="M 154.992188 422.3125 L 165.289062 422.3125 L 165.289062 427.460938 L 154.992188 427.460938 Z M 154.992188 422.3125 " fill-opacity="1" fill-rule="nonzero"/><path fill="#000000" d="M 134.402344 422.3125 L 144.699219 422.3125 L 144.699219 427.460938 L 134.402344 427.460938 Z M 134.402344 422.3125 " fill-opacity="1" fill-rule="nonzero"/><path fill="#000000" d="M 278.535156 422.3125 L 288.832031 422.3125 L 288.832031 427.460938 L 278.535156 427.460938 Z M 278.535156 422.3125 " fill-opacity="1" fill-rule="nonzero"/><path fill="#000000" d="M 237.355469 422.3125 L 247.648438 422.3125 L 247.648438 427.460938 L 237.355469 427.460938 Z M 237.355469 422.3125 " fill-opacity="1" fill-rule="nonzero"/><path fill="#000000" d="M 628.582031 422.3125 L 638.878906 422.3125 L 638.878906 427.460938 L 628.582031 427.460938 Z M 628.582031 422.3125 " fill-opacity="1" fill-rule="nonzero"/><path fill="#000000" d="M 649.171875 422.3125 L 659.46875 422.3125 L 659.46875 427.460938 L 649.171875 427.460938 Z M 649.171875 422.3125 " fill-opacity="1" fill-rule="nonzero"/><path fill="#000000" d="M 124.105469 422.3125 L 115.628906 422.3125 L 122.632812 405.816406 L 77.445312 424.886719 L 122.632812 443.960938 L 115.625 427.460938 L 124.105469 427.460938 Z M 124.105469 422.3125 " fill-opacity="1" fill-rule="nonzero"/><path fill="#000000" d="M 587.402344 422.3125 L 597.695312 422.3125 L 597.695312 427.460938 L 587.402344 427.460938 Z M 587.402344 422.3125 " fill-opacity="1" fill-rule="nonzero"/><path fill="#000000" d="M 669.765625 422.3125 L 680.058594 422.3125 L 680.058594 427.460938 L 669.765625 427.460938 Z M 669.765625 422.3125 " fill-opacity="1" fill-rule="nonzero"/><path fill="#000000" d="M 607.992188 422.3125 L 618.289062 422.3125 L 618.289062 427.460938 L 607.992188 427.460938 Z M 607.992188 422.3125 " fill-opacity="1" fill-rule="nonzero"/><path fill="#000000" d="M 525.628906 361.640625 L 535.921875 361.640625 L 535.921875 366.792969 L 525.628906 366.792969 Z M 525.628906 361.640625 " fill-opacity="1" fill-rule="nonzero"/><path fill="#000000" d="M 505.039062 361.640625 L 515.332031 361.640625 L 515.332031 366.792969 L 505.039062 366.792969 Z M 505.039062 361.640625 " fill-opacity="1" fill-rule="nonzero"/><path fill="#000000" d="M 484.445312 361.640625 L 494.742188 361.640625 L 494.742188 366.792969 L 484.445312 366.792969 Z M 484.445312 361.640625 " fill-opacity="1" fill-rule="nonzero"/><path fill="#000000" d="M 546.21875 361.640625 L 556.515625 361.640625 L 556.515625 366.792969 L 546.21875 366.792969 Z M 546.21875 361.640625 " fill-opacity="1" fill-rule="nonzero"/><path fill="#000000" d="M 422.675781 361.640625 L 432.96875 361.640625 L 432.96875 366.792969 L 422.675781 366.792969 Z M 422.675781 361.640625 " fill-opacity="1" fill-rule="nonzero"/><path fill="#000000" d="M 566.808594 361.640625 L 577.105469 361.640625 L 577.105469 366.792969 L 566.808594 366.792969 Z M 566.808594 361.640625 " fill-opacity="1" fill-rule="nonzero"/><path fill="#000000" d="M 443.265625 361.640625 L 453.558594 361.640625 L 453.558594 366.792969 L 443.265625 366.792969 Z M 443.265625 361.640625 " fill-opacity="1" fill-rule="nonzero"/><path fill="#000000" d="M 463.855469 361.640625 L 474.152344 361.640625 L 474.152344 366.792969 L 463.855469 366.792969 Z M 463.855469 361.640625 " fill-opacity="1" fill-rule="nonzero"/><path fill="#000000" d="M 710.945312 361.640625 L 721.242188 361.640625 L 721.242188 366.792969 L 710.945312 366.792969 Z M 710.945312 361.640625 " fill-opacity="1" fill-rule="nonzero"/><path fill="#000000" d="M 154.992188 361.640625 L 165.289062 361.640625 L 165.289062 366.792969 L 154.992188 366.792969 Z M 154.992188 361.640625 " fill-opacity="1" fill-rule="nonzero"/><path fill="#000000" d="M 134.402344 361.640625 L 144.699219 361.640625 L 144.699219 366.792969 L 134.402344 366.792969 Z M 134.402344 361.640625 " fill-opacity="1" fill-rule="nonzero"/><path fill="#000000" d="M 587.402344 361.640625 L 597.695312 361.640625 L 597.695312 366.792969 L 587.402344 366.792969 Z M 587.402344 361.640625 " fill-opacity="1" fill-rule="nonzero"/><path fill="#000000" d="M 607.992188 361.640625 L 618.289062 361.640625 L 618.289062 366.792969 L 607.992188 366.792969 Z M 607.992188 361.640625 " fill-opacity="1" fill-rule="nonzero"/><path fill="#000000" d="M 124.105469 361.640625 L 115.628906 361.640625 L 122.632812 345.144531 L 77.445312 364.214844 L 122.632812 383.289062 L 115.628906 366.792969 L 124.105469 366.792969 Z M 124.105469 361.640625 " fill-opacity="1" fill-rule="nonzero"/><path fill="#000000" d="M 257.945312 361.640625 L 268.238281 361.640625 L 268.238281 366.792969 L 257.945312 366.792969 Z M 257.945312 361.640625 " fill-opacity="1" fill-rule="nonzero"/><path fill="#000000" d="M 628.582031 361.640625 L 638.878906 361.640625 L 638.878906 366.792969 L 628.582031 366.792969 Z M 628.582031 361.640625 " fill-opacity="1" fill-rule="nonzero"/><path fill="#000000" d="M 175.582031 361.640625 L 185.878906 361.640625 L 185.878906 366.792969 L 175.582031 366.792969 Z M 175.582031 361.640625 " fill-opacity="1" fill-rule="nonzero"/><path fill="#000000" d="M 196.175781 361.640625 L 206.46875 361.640625 L 206.46875 366.792969 L 196.175781 366.792969 Z M 196.175781 361.640625 " fill-opacity="1" fill-rule="nonzero"/><path fill="#000000" d="M 237.355469 361.640625 L 247.648438 361.640625 L 247.648438 366.792969 L 237.355469 366.792969 Z M 237.355469 361.640625 " fill-opacity="1" fill-rule="nonzero"/><path fill="#000000" d="M 216.761719 361.640625 L 227.058594 361.640625 L 227.058594 366.792969 L 216.761719 366.792969 Z M 216.761719 361.640625 " fill-opacity="1" fill-rule="nonzero"/><path fill="#000000" d="M 649.171875 361.640625 L 659.46875 361.640625 L 659.46875 366.792969 L 649.171875 366.792969 Z M 649.171875 361.640625 " fill-opacity="1" fill-rule="nonzero"/><path fill="#000000" d="M 690.355469 361.640625 L 700.652344 361.640625 L 700.652344 366.792969 L 690.355469 366.792969 Z M 690.355469 361.640625 " fill-opacity="1" fill-rule="nonzero"/><path fill="#000000" d="M 669.765625 361.640625 L 680.058594 361.640625 L 680.058594 366.792969 L 669.765625 366.792969 Z M 669.765625 361.640625 " fill-opacity="1" fill-rule="nonzero"/><path fill="#000000" d="M 628.582031 300.96875 L 638.878906 300.96875 L 638.878906 306.121094 L 628.582031 306.121094 Z M 628.582031 300.96875 " fill-opacity="1" fill-rule="nonzero"/><path fill="#000000" d="M 649.171875 300.96875 L 659.46875 300.96875 L 659.46875 306.121094 L 649.171875 306.121094 Z M 649.171875 300.96875 " fill-opacity="1" fill-rule="nonzero"/><path fill="#000000" d="M 124.105469 300.96875 L 115.628906 300.96875 L 122.632812 284.472656 L 77.445312 303.546875 L 122.632812 322.617188 L 115.628906 306.121094 L 124.105469 306.121094 Z M 124.105469 300.96875 " fill-opacity="1" fill-rule="nonzero"/><path fill="#000000" d="M 669.765625 300.96875 L 680.058594 300.96875 L 680.058594 306.121094 L 669.765625 306.121094 Z M 669.765625 300.96875 " fill-opacity="1" fill-rule="nonzero"/><path fill="#000000" d="M 506.390625 306.121094 L 515.332031 306.121094 L 515.332031 300.96875 L 505.035156 300.96875 L 505.035156 302.203125 C 505.320312 302.84375 505.582031 303.503906 505.816406 304.175781 C 506.042969 304.820312 506.21875 305.46875 506.390625 306.121094 Z M 506.390625 306.121094 " fill-opacity="1" fill-rule="nonzero"/><path fill="#000000" d="M 690.355469 300.96875 L 700.652344 300.96875 L 700.652344 306.121094 L 690.355469 306.121094 Z M 690.355469 300.96875 " fill-opacity="1" fill-rule="nonzero"/><path fill="#000000" d="M 546.21875 300.96875 L 556.515625 300.96875 L 556.515625 306.121094 L 546.21875 306.121094 Z M 546.21875 300.96875 " fill-opacity="1" fill-rule="nonzero"/><path fill="#000000" d="M 525.628906 300.96875 L 535.921875 300.96875 L 535.921875 306.121094 L 525.628906 306.121094 Z M 525.628906 300.96875 " fill-opacity="1" fill-rule="nonzero"/><path fill="#000000" d="M 175.582031 300.96875 L 185.878906 300.96875 L 185.878906 306.121094 L 175.582031 306.121094 Z M 175.582031 300.96875 " fill-opacity="1" fill-rule="nonzero"/><path fill="#000000" d="M 216.761719 300.96875 L 227.058594 300.96875 L 227.058594 306.121094 L 216.761719 306.121094 Z M 216.761719 300.96875 " fill-opacity="1" fill-rule="nonzero"/><path fill="#000000" d="M 134.402344 300.96875 L 144.699219 300.96875 L 144.699219 306.121094 L 134.402344 306.121094 Z M 134.402344 300.96875 " fill-opacity="1" fill-rule="nonzero"/><path fill="#000000" d="M 237.355469 300.96875 L 247.648438 300.96875 L 247.648438 306.121094 L 237.355469 306.121094 Z M 237.355469 300.96875 " fill-opacity="1" fill-rule="nonzero"/><path fill="#000000" d="M 257.945312 300.96875 L 268.238281 300.96875 L 268.238281 306.121094 L 257.945312 306.121094 Z M 257.945312 300.96875 " fill-opacity="1" fill-rule="nonzero"/><path fill="#000000" d="M 196.175781 300.96875 L 206.46875 300.96875 L 206.46875 306.121094 L 196.175781 306.121094 Z M 196.175781 300.96875 " fill-opacity="1" fill-rule="nonzero"/><path fill="#000000" d="M 278.535156 300.96875 L 288.832031 300.96875 L 288.832031 306.121094 L 278.535156 306.121094 Z M 278.535156 300.96875 " fill-opacity="1" fill-rule="nonzero"/><path fill="#000000" d="M 154.992188 300.96875 L 165.289062 300.96875 L 165.289062 306.121094 L 154.992188 306.121094 Z M 154.992188 300.96875 " fill-opacity="1" fill-rule="nonzero"/><path fill="#000000" d="M 607.992188 300.96875 L 618.289062 300.96875 L 618.289062 306.121094 L 607.992188 306.121094 Z M 607.992188 300.96875 " fill-opacity="1" fill-rule="nonzero"/><path fill="#000000" d="M 587.402344 300.96875 L 597.695312 300.96875 L 597.695312 306.121094 L 587.402344 306.121094 Z M 587.402344 300.96875 " fill-opacity="1" fill-rule="nonzero"/><path fill="#000000" d="M 566.808594 300.96875 L 577.105469 300.96875 L 577.105469 306.121094 L 566.808594 306.121094 Z M 566.808594 300.96875 " fill-opacity="1" fill-rule="nonzero"/><path fill="#000000" d="M 710.945312 300.96875 L 721.242188 300.96875 L 721.242188 306.121094 L 710.945312 306.121094 Z M 710.945312 300.96875 " fill-opacity="1" fill-rule="nonzero"/><g clip-path="url(#e3caba2558)"><path fill="#000000" d="M 569.914062 592.578125 L 454.402344 592.578125 L 452.367188 599.121094 C 446.949219 616.570312 431.050781 628.292969 412.804688 628.292969 C 408.644531 628.292969 404.503906 627.660156 400.5 626.414062 C 384.714844 621.507812 373.992188 607.957031 371.808594 592.578125 L 283.183594 592.578125 L 241.261719 621.308594 C 234.335938 626.058594 226.246094 628.570312 217.871094 628.570312 C 204.175781 628.570312 191.386719 621.828125 183.65625 610.539062 C 179.855469 604.988281 177.632812 598.832031 176.8125 592.578125 L 82.710938 592.578125 L 34.652344 644.105469 L 591.707031 644.105469 L 563.46875 696.257812 L 775.5 616.617188 L 520.742188 560.351562 Z M 569.914062 592.578125 " fill-opacity="1" fill-rule="nonzero"/></g><path fill="#000000" d="M 574.730469 170.765625 C 575.15625 172.617188 575.488281 174.484375 575.726562 176.363281 C 575.96875 178.246094 576.117188 180.136719 576.171875 182.035156 C 576.226562 183.929688 576.1875 185.824219 576.058594 187.71875 C 575.925781 189.613281 575.703125 191.492188 575.386719 193.367188 C 575.070312 195.238281 574.664062 197.085938 574.167969 198.917969 C 573.667969 200.75 573.082031 202.550781 572.410156 204.324219 C 571.734375 206.101562 570.976562 207.835938 570.128906 209.535156 C 569.285156 211.234375 568.359375 212.886719 567.351562 214.496094 C 566.34375 216.101562 565.257812 217.65625 564.097656 219.160156 C 562.9375 220.660156 561.707031 222.101562 560.40625 223.480469 C 559.105469 224.863281 557.738281 226.175781 556.308594 227.421875 C 554.878906 228.667969 553.390625 229.839844 551.84375 230.9375 C 550.296875 232.039062 548.703125 233.058594 547.058594 234.003906 C 545.410156 234.945312 543.722656 235.804688 541.992188 236.582031 C 540.261719 237.359375 538.496094 238.050781 536.699219 238.652344 C 534.902344 239.257812 533.078125 239.769531 531.226562 240.195312 C 529.378906 240.617188 527.515625 240.953125 525.632812 241.191406 C 523.753906 241.433594 521.863281 241.582031 519.96875 241.636719 C 518.070312 241.691406 516.175781 241.652344 514.285156 241.523438 C 512.394531 241.390625 510.511719 241.167969 508.640625 240.851562 C 506.773438 240.535156 504.921875 240.128906 503.089844 239.632812 C 501.261719 239.132812 499.460938 238.546875 497.6875 237.871094 C 495.914062 237.195312 494.179688 236.4375 492.480469 235.589844 C 490.78125 234.746094 489.128906 233.820312 487.523438 232.8125 C 485.917969 231.804688 484.363281 230.71875 482.863281 229.558594 C 481.363281 228.398438 479.921875 227.164062 478.542969 225.863281 C 477.164062 224.5625 475.851562 223.195312 474.605469 221.761719 C 473.359375 220.332031 472.1875 218.84375 471.085938 217.296875 C 469.988281 215.75 468.96875 214.152344 468.027344 212.507812 C 467.082031 210.859375 466.222656 209.171875 465.449219 207.4375 C 464.671875 205.707031 463.980469 203.941406 463.378906 202.144531 C 462.773438 200.34375 462.261719 198.519531 461.835938 196.667969 C 461.414062 194.820312 461.082031 192.953125 460.839844 191.070312 C 460.601562 189.1875 460.453125 187.300781 460.398438 185.402344 C 460.339844 183.507812 460.378906 181.609375 460.511719 179.71875 C 460.640625 177.824219 460.863281 175.941406 461.179688 174.070312 C 461.496094 172.199219 461.902344 170.347656 462.402344 168.519531 C 462.898438 166.6875 463.484375 164.882812 464.160156 163.109375 C 464.832031 161.335938 465.59375 159.601562 466.4375 157.902344 C 467.285156 156.203125 468.210938 154.550781 469.21875 152.941406 C 470.222656 151.332031 471.308594 149.777344 472.46875 148.277344 C 473.628906 146.777344 474.859375 145.335938 476.160156 143.957031 C 477.460938 142.574219 478.828125 141.261719 480.257812 140.015625 C 481.691406 138.769531 483.179688 137.597656 484.722656 136.496094 C 486.269531 135.398438 487.863281 134.375 489.511719 133.433594 C 491.15625 132.492188 492.84375 131.628906 494.574219 130.855469 C 496.304688 130.078125 498.070312 129.386719 499.867188 128.785156 C 501.667969 128.179688 503.492188 127.664062 505.339844 127.242188 C 507.1875 126.816406 509.054688 126.484375 510.933594 126.246094 C 512.816406 126.003906 514.703125 125.855469 516.601562 125.800781 C 518.496094 125.746094 520.390625 125.78125 522.28125 125.914062 C 524.175781 126.046875 526.054688 126.269531 527.925781 126.585938 C 529.796875 126.902344 531.644531 127.308594 533.476562 127.804688 C 535.308594 128.304688 537.109375 128.890625 538.878906 129.5625 C 540.652344 130.238281 542.390625 131 544.085938 131.84375 C 545.785156 132.691406 547.4375 133.617188 549.042969 134.625 C 550.652344 135.632812 552.207031 136.71875 553.707031 137.878906 C 555.207031 139.039062 556.644531 140.269531 558.027344 141.574219 C 559.40625 142.875 560.71875 144.242188 561.964844 145.671875 C 563.207031 147.105469 564.382812 148.59375 565.480469 150.140625 C 566.578125 151.6875 567.601562 153.285156 568.542969 154.929688 C 569.484375 156.578125 570.34375 158.265625 571.121094 159.996094 C 571.898438 161.730469 572.585938 163.496094 573.191406 165.292969 C 573.792969 167.09375 574.304688 168.917969 574.730469 170.765625 Z M 574.730469 170.765625 " fill-opacity="1" fill-rule="nonzero"/><path fill="#000000" d="M 217.871094 619.296875 C 224.136719 619.296875 230.46875 617.472656 236.027344 613.664062 L 364.671875 525.488281 C 373.492188 519.445312 378.734375 509.410156 378.660156 498.714844 L 378.289062 444.65625 L 313.730469 413.558594 L 314.199219 482.046875 L 199.660156 560.546875 C 185 570.59375 181.257812 590.632812 191.300781 605.296875 C 197.535156 614.402344 207.617188 619.296875 217.871094 619.296875 Z M 217.871094 619.296875 " fill-opacity="1" fill-rule="nonzero"/><path fill="#000000" d="M 419.175781 457.773438 L 382.070312 577.269531 C 376.796875 594.246094 386.28125 612.285156 403.25 617.5625 C 406.429688 618.550781 409.644531 619.019531 412.804688 619.019531 C 426.523438 619.019531 439.234375 610.167969 443.519531 596.371094 L 488.859375 450.363281 C 493.589844 435.132812 486.453125 418.726562 472.089844 411.808594 L 390.761719 372.636719 L 368.71875 380.367188 C 365.886719 381.359375 362.9375 381.859375 359.949219 381.859375 C 352.390625 381.859375 345.171875 378.621094 340.144531 372.972656 C 332.96875 364.90625 331.390625 353.421875 336.117188 343.714844 L 384.574219 244.207031 C 388.980469 235.148438 398.339844 229.292969 408.417969 229.292969 C 412.460938 229.292969 416.363281 230.195312 420.015625 231.980469 C 426.382812 235.082031 431.160156 240.480469 433.464844 247.175781 C 435.773438 253.875 435.335938 261.070312 432.234375 267.441406 L 412.015625 308.96875 L 420.695312 305.925781 C 428.128906 297.976562 435.265625 290.574219 441.582031 283.832031 C 461.441406 266.042969 469.539062 234.917969 453.835938 218.597656 C 438.125 202.28125 404.800781 195.46875 373.800781 220.53125 C 331.386719 255.242188 310.246094 281.898438 285.515625 333.90625 C 272.066406 368.816406 287.640625 387.472656 305.375 399.8125 C 308.214844 403.1875 311.773438 406.042969 316.003906 408.078125 Z M 419.175781 457.773438 " fill-opacity="1" fill-rule="nonzero"/><path fill="#000000" d="M 400.386719 319.320312 L 426.914062 264.847656 C 431.894531 254.617188 427.644531 242.285156 417.421875 237.304688 C 407.203125 232.316406 394.871094 236.570312 389.894531 246.800781 L 341.4375 346.3125 C 337.78125 353.820312 339.019531 362.792969 344.566406 369.03125 C 348.546875 373.503906 354.179688 375.9375 359.949219 375.9375 C 362.230469 375.9375 364.53125 375.558594 366.757812 374.777344 L 487.613281 332.394531 C 498.34375 328.628906 503.992188 316.871094 500.234375 306.136719 C 496.46875 295.394531 484.722656 289.746094 473.988281 293.507812 Z M 400.386719 319.320312 " fill-opacity="1" fill-rule="nonzero"/></svg>