<svg xmlns="http://www.w3.org/2000/svg" xmlns:xlink="http://www.w3.org/1999/xlink" width="1080" zoomAndPan="magnify" viewBox="0 0 810 809.999993" height="1080" preserveAspectRatio="xMidYMid meet" version="1.0"><defs><clipPath id="870ca0413e"><path d="M 149.175781 627 L 660.675781 627 L 660.675781 729 L 149.175781 729 Z M 149.175781 627 " clip-rule="nonzero"/></clipPath></defs><path fill="#000000" d="M 412.117188 277.476562 L 420.609375 277.476562 L 423.679688 275.019531 L 412.117188 268.328125 Z M 412.117188 277.476562 " fill-opacity="1" fill-rule="nonzero"/><path fill="#000000" d="M 397.824219 277.476562 L 397.824219 260.050781 L 397.351562 259.777344 L 375.230469 277.476562 Z M 397.824219 277.476562 " fill-opacity="1" fill-rule="nonzero"/><path fill="#000000" d="M 296.433594 476.710938 L 301.28125 434.882812 L 301.28125 338.820312 L 291.917969 344.703125 L 291.917969 318.097656 L 356.558594 277.476562 L 366.878906 277.476562 L 366.878906 231.5625 C 368.886719 232.3125 371.039062 233.179688 373.316406 234.15625 L 377.085938 228.292969 C 378.503906 226.082031 380.921875 224.761719 383.550781 224.761719 C 384.695312 224.761719 385.804688 225.011719 386.839844 225.5 L 396.964844 230.304688 C 399.421875 231.46875 401.003906 233.804688 401.300781 236.371094 L 438.714844 262.988281 L 441.335938 260.890625 C 444.921875 258.019531 446.894531 253.589844 446.632812 249.003906 C 446.367188 244.417969 443.898438 240.242188 440.003906 237.804688 C 430.027344 231.550781 379.035156 200.351562 355.175781 200.132812 C 355.132812 200.132812 355.085938 200.132812 355.042969 200.132812 C 354.746094 200.132812 354.457031 200.15625 354.164062 200.175781 C 353.839844 200.152344 353.515625 200.125 353.1875 200.125 L 337.957031 200.125 C 340.34375 213.710938 346.246094 254.019531 333.875 262.003906 C 333.121094 262.492188 332.429688 262.9375 331.75 263.375 L 326.09375 221.699219 C 323.796875 222.5625 321.382812 223.011719 318.96875 223.011719 C 318.964844 223.011719 318.957031 223.011719 318.957031 223.011719 C 316.539062 223.015625 314.121094 222.5625 311.820312 221.703125 L 306.167969 263.375 C 305.484375 262.9375 304.792969 262.492188 304.039062 262.003906 C 291.675781 254.019531 297.570312 213.710938 299.957031 200.125 L 294.191406 200.125 L 220.933594 174.621094 C 224.621094 149.851562 232.816406 118.175781 242.792969 111.175781 C 243.699219 110.542969 243.917969 110.597656 244.398438 110.71875 C 251.988281 112.625 259.691406 108.027344 261.605469 100.433594 C 263.519531 92.839844 258.914062 85.136719 251.324219 83.222656 C 242.636719 81.03125 234.058594 82.671875 226.515625 87.960938 C 200.296875 106.355469 192.609375 170.203125 191.335938 182.8125 C 190.675781 189.34375 194.582031 195.472656 200.777344 197.628906 L 271.042969 222.089844 L 271.042969 315.160156 L 250.945312 488.652344 C 259.6875 480.339844 271.496094 475.21875 284.480469 475.21875 C 288.605469 475.21875 292.609375 475.738281 296.433594 476.710938 Z M 296.433594 476.710938 " fill-opacity="1" fill-rule="nonzero"/><path fill="#000000" d="M 279.09375 150.152344 C 279.09375 172.175781 296.945312 190.027344 318.957031 190.027344 C 340.976562 190.027344 358.824219 172.175781 358.824219 150.152344 C 358.824219 128.128906 340.976562 110.277344 318.957031 110.277344 C 296.945312 110.277344 279.09375 128.128906 279.09375 150.152344 Z M 334.558594 164.226562 C 317.3125 162.703125 300.710938 163.730469 299.027344 166.421875 L 294.519531 163.605469 C 298.929688 156.542969 324.316406 157.984375 335.023438 158.929688 Z M 334.558594 164.226562 " fill-opacity="1" fill-rule="nonzero"/><path fill="#000000" d="M 309.375 214.226562 C 312.148438 216.535156 315.539062 217.691406 318.957031 217.695312 C 322.371094 217.691406 325.769531 216.53125 328.542969 214.21875 L 329.054688 213.410156 L 325.6875 200.117188 L 312.222656 200.117188 L 308.859375 213.410156 Z M 309.375 214.226562 " fill-opacity="1" fill-rule="nonzero"/><path fill="#000000" d="M 408.042969 277.476562 L 408.042969 261.257812 L 430.75 274.402344 L 436.078125 266.117188 L 397.09375 238.378906 C 397.648438 236.695312 396.90625 234.785156 395.222656 233.984375 L 385.097656 229.183594 C 383.457031 228.40625 381.492188 228.96875 380.511719 230.496094 L 375.292969 238.609375 C 374.3125 240.136719 374.617188 242.15625 376.003906 243.328125 L 384.574219 250.550781 C 386 251.753906 388.042969 251.636719 389.34375 250.433594 L 401.898438 257.699219 L 401.898438 277.476562 Z M 408.042969 277.476562 " fill-opacity="1" fill-rule="nonzero"/><path fill="#000000" d="M 333.203125 523.957031 C 333.203125 525.820312 333.089844 527.65625 332.882812 529.464844 C 336.085938 528.796875 339.402344 528.445312 342.800781 528.445312 C 345.210938 528.445312 347.578125 528.628906 349.898438 528.96875 L 349.898438 301.988281 L 358.089844 296.84375 L 358.089844 510.679688 C 363.882812 490.242188 382.695312 475.21875 404.960938 475.21875 C 431.824219 475.21875 453.683594 497.085938 453.683594 523.957031 C 453.683594 526.167969 453.519531 528.339844 453.234375 530.472656 C 457.636719 529.160156 462.292969 528.445312 467.117188 528.445312 C 470.511719 528.445312 473.832031 528.796875 477.035156 529.464844 C 476.828125 527.65625 476.714844 525.820312 476.714844 523.957031 C 476.714844 518.953125 477.472656 514.128906 478.878906 509.582031 L 478.878906 296.839844 L 488.382812 296.839844 L 488.382812 282.792969 L 358.089844 282.792969 L 297.234375 321.035156 L 297.230469 321.035156 L 297.230469 335.082031 L 306.59375 335.082031 L 306.59375 480.550781 C 322.371094 488.628906 333.203125 505.046875 333.203125 523.957031 Z M 333.203125 523.957031 " fill-opacity="1" fill-rule="nonzero"/><path fill="#000000" d="M 590.828125 522.070312 L 590.828125 511.433594 L 572.523438 511.433594 C 573.429688 514.847656 573.972656 518.410156 574.113281 522.070312 Z M 590.828125 522.070312 " fill-opacity="1" fill-rule="nonzero"/><path fill="#000000" d="M 569.558594 503.3125 L 569.558594 451.140625 L 563.992188 461.710938 L 558.925781 456.097656 L 558.925781 488.605469 C 563.324219 492.78125 566.953125 497.761719 569.558594 503.3125 Z M 569.558594 503.3125 " fill-opacity="1" fill-rule="nonzero"/><path fill="#000000" d="M 561.460938 139.742188 L 525.203125 383.261719 L 537.265625 395.828125 L 546.300781 374.917969 L 542.558594 416.382812 L 541.820312 430.097656 L 562.964844 453.519531 L 599.972656 383.261719 L 566.902344 139.945312 C 570.453125 138.898438 573.046875 135.617188 573.046875 131.726562 C 573.046875 126.996094 569.210938 123.160156 564.480469 123.160156 C 559.746094 123.160156 555.910156 126.996094 555.910156 131.726562 C 555.910156 135.398438 558.222656 138.519531 561.460938 139.742188 Z M 561.460938 139.742188 " fill-opacity="1" fill-rule="nonzero"/><path fill="#000000" d="M 244.601562 618.292969 L 252.710938 618.292969 C 253.375 618.292969 254.0625 618.328125 254.757812 618.390625 C 259.765625 618.609375 264.445312 620.394531 268.316406 623.566406 C 271.335938 626.039062 275.972656 630.996094 280.644531 640.476562 C 285.316406 630.996094 289.953125 626.039062 292.972656 623.5625 C 296.84375 620.394531 301.527344 618.609375 306.527344 618.390625 C 307.226562 618.328125 307.910156 618.292969 308.574219 618.292969 L 316.6875 618.292969 C 303.109375 609.632812 294.078125 594.449219 294.078125 577.183594 C 294.078125 576.085938 294.128906 575.003906 294.199219 573.929688 L 267.089844 573.929688 C 267.160156 575.003906 267.210938 576.089844 267.210938 577.183594 C 267.210938 594.449219 258.179688 609.636719 244.601562 618.292969 Z M 244.601562 618.292969 " fill-opacity="1" fill-rule="nonzero"/><path fill="#000000" d="M 503.390625 618.390625 C 508.390625 618.609375 513.074219 620.394531 516.941406 623.5625 C 519.960938 626.039062 524.597656 630.996094 529.273438 640.476562 C 533.945312 630.996094 538.582031 626.039062 541.601562 623.5625 C 545.472656 620.394531 550.152344 618.609375 555.15625 618.390625 C 555.855469 618.324219 556.53125 618.292969 557.203125 618.292969 L 565.316406 618.292969 C 551.738281 609.632812 542.707031 594.449219 542.707031 577.183594 C 542.707031 576.085938 542.757812 575.003906 542.828125 573.929688 L 515.71875 573.929688 C 515.789062 575.003906 515.839844 576.089844 515.839844 577.183594 C 515.839844 594.449219 506.808594 609.632812 493.230469 618.292969 L 501.339844 618.292969 C 502.015625 618.292969 502.6875 618.324219 503.390625 618.390625 Z M 503.390625 618.390625 " fill-opacity="1" fill-rule="nonzero"/><path fill="#000000" d="M 379.074219 618.390625 C 384.078125 618.609375 388.757812 620.394531 392.628906 623.5625 C 395.648438 626.039062 400.285156 630.996094 404.957031 640.476562 C 409.632812 630.996094 414.269531 626.039062 417.289062 623.5625 C 421.15625 620.394531 425.839844 618.609375 430.84375 618.390625 C 431.542969 618.324219 432.214844 618.292969 432.890625 618.292969 L 441 618.292969 C 427.425781 609.632812 418.394531 594.449219 418.394531 577.183594 C 418.394531 576.085938 418.441406 575.003906 418.515625 573.929688 L 391.40625 573.929688 C 391.476562 575.003906 391.523438 576.089844 391.523438 577.183594 C 391.523438 594.449219 382.492188 609.632812 368.917969 618.292969 L 377.027344 618.292969 C 377.703125 618.292969 378.375 618.324219 379.074219 618.390625 Z M 379.074219 618.390625 " fill-opacity="1" fill-rule="nonzero"/><path fill="#000000" d="M 263.085938 557.59375 C 269.269531 561.535156 276.605469 563.832031 284.480469 563.832031 C 288.675781 563.832031 292.722656 563.179688 296.519531 561.976562 C 300.878906 548.738281 310.757812 537.992188 323.421875 532.476562 C 324.019531 529.730469 324.34375 526.882812 324.34375 523.957031 C 324.34375 501.933594 306.5 484.082031 284.480469 484.082031 C 262.464844 484.082031 244.617188 501.933594 244.617188 523.957031 C 244.617188 528.804688 245.484375 533.449219 247.066406 537.746094 C 254.019531 542.800781 259.582031 549.644531 263.085938 557.59375 Z M 263.085938 557.59375 " fill-opacity="1" fill-rule="nonzero"/><path fill="#000000" d="M 388.496094 560.269531 C 393.515625 562.550781 399.085938 563.832031 404.957031 563.832031 C 410.832031 563.832031 416.402344 562.550781 421.421875 560.269531 C 425.472656 549.359375 433.324219 540.285156 443.359375 534.652344 C 444.304688 531.25 444.824219 527.664062 444.824219 523.957031 C 444.824219 501.933594 426.976562 484.082031 404.957031 484.082031 C 382.941406 484.082031 365.09375 501.933594 365.09375 523.957031 C 365.09375 527.664062 365.609375 531.246094 366.558594 534.652344 C 376.589844 540.285156 384.445312 549.355469 388.496094 560.269531 Z M 388.496094 560.269531 " fill-opacity="1" fill-rule="nonzero"/><path fill="#000000" d="M 513.398438 561.976562 C 517.195312 563.175781 521.238281 563.832031 525.4375 563.832031 C 533.3125 563.832031 540.648438 561.539062 546.828125 557.59375 C 550.332031 549.644531 555.898438 542.800781 562.851562 537.746094 C 564.433594 533.449219 565.300781 528.804688 565.300781 523.957031 C 565.300781 501.933594 547.453125 484.082031 525.4375 484.082031 C 503.421875 484.082031 485.574219 501.933594 485.574219 523.957031 C 485.574219 526.882812 485.894531 529.730469 486.496094 532.476562 C 499.160156 537.992188 509.039062 548.738281 513.398438 561.976562 Z M 513.398438 561.976562 " fill-opacity="1" fill-rule="nonzero"/><g clip-path="url(#870ca0413e)"><path fill="#000000" d="M 635.644531 630.421875 C 633.128906 628.363281 630.121094 627.324219 627.105469 627.234375 C 626.628906 627.183594 626.144531 627.15625 625.65625 627.15625 L 557.203125 627.15625 C 556.714844 627.15625 556.230469 627.183594 555.753906 627.234375 C 552.738281 627.324219 549.726562 628.363281 547.214844 630.421875 C 544.386719 632.734375 535.664062 641.632812 529.273438 666.890625 C 522.878906 641.632812 514.15625 632.734375 511.332031 630.421875 C 508.816406 628.363281 505.804688 627.324219 502.789062 627.234375 C 502.3125 627.183594 501.832031 627.15625 501.339844 627.15625 L 432.890625 627.15625 C 432.398438 627.15625 431.917969 627.183594 431.441406 627.234375 C 428.425781 627.324219 425.414062 628.363281 422.898438 630.421875 C 420.074219 632.734375 411.351562 641.632812 404.957031 666.890625 C 398.566406 641.632812 389.84375 632.734375 387.015625 630.421875 C 384.503906 628.363281 381.492188 627.324219 378.476562 627.234375 C 378 627.183594 377.515625 627.15625 377.027344 627.15625 L 308.574219 627.15625 C 308.085938 627.15625 307.601562 627.183594 307.125 627.234375 C 304.109375 627.324219 301.101562 628.363281 298.585938 630.421875 C 295.761719 632.734375 287.035156 641.632812 280.644531 666.890625 C 274.253906 641.632812 265.527344 632.734375 262.703125 630.421875 C 260.1875 628.363281 257.179688 627.324219 254.164062 627.234375 C 253.6875 627.183594 253.203125 627.15625 252.710938 627.15625 L 184.261719 627.15625 C 183.773438 627.15625 183.289062 627.183594 182.8125 627.234375 C 179.796875 627.324219 176.785156 628.363281 174.273438 630.421875 C 169.8125 634.074219 150.664062 654.117188 149.175781 729.007812 L 660.742188 729.007812 C 659.253906 654.117188 640.105469 634.074219 635.644531 630.421875 Z M 635.644531 630.421875 " fill-opacity="1" fill-rule="nonzero"/></g><path fill="#000000" d="M 258.351562 577.183594 C 258.351562 578.488281 258.285156 579.789062 258.160156 581.089844 C 258.03125 582.390625 257.839844 583.679688 257.585938 584.960938 C 257.332031 586.242188 257.011719 587.507812 256.632812 588.757812 C 256.253906 590.007812 255.816406 591.234375 255.316406 592.441406 C 254.816406 593.648438 254.257812 594.828125 253.644531 595.980469 C 253.027344 597.128906 252.359375 598.25 251.632812 599.335938 C 250.90625 600.421875 250.128906 601.46875 249.300781 602.476562 C 248.472656 603.488281 247.597656 604.453125 246.675781 605.378906 C 245.753906 606.300781 244.785156 607.175781 243.777344 608.003906 C 242.765625 608.835938 241.71875 609.609375 240.632812 610.335938 C 239.546875 611.0625 238.429688 611.734375 237.277344 612.347656 C 236.128906 612.964844 234.949219 613.523438 233.742188 614.023438 C 232.535156 614.519531 231.308594 614.960938 230.058594 615.339844 C 228.808594 615.71875 227.542969 616.035156 226.265625 616.289062 C 224.984375 616.546875 223.695312 616.738281 222.394531 616.863281 C 221.09375 616.992188 219.792969 617.058594 218.488281 617.058594 C 217.179688 617.058594 215.878906 616.992188 214.578125 616.863281 C 213.28125 616.738281 211.992188 616.546875 210.710938 616.289062 C 209.429688 616.035156 208.164062 615.71875 206.914062 615.339844 C 205.664062 614.960938 204.4375 614.523438 203.230469 614.023438 C 202.027344 613.523438 200.847656 612.964844 199.695312 612.347656 C 198.542969 611.734375 197.425781 611.0625 196.339844 610.335938 C 195.253906 609.609375 194.207031 608.835938 193.199219 608.003906 C 192.1875 607.175781 191.222656 606.300781 190.300781 605.378906 C 189.375 604.453125 188.5 603.488281 187.671875 602.476562 C 186.84375 601.46875 186.066406 600.421875 185.339844 599.335938 C 184.617188 598.25 183.945312 597.128906 183.332031 595.980469 C 182.714844 594.828125 182.15625 593.648438 181.65625 592.441406 C 181.15625 591.234375 180.71875 590.007812 180.339844 588.757812 C 179.960938 587.507812 179.644531 586.242188 179.390625 584.960938 C 179.132812 583.679688 178.941406 582.390625 178.816406 581.089844 C 178.6875 579.789062 178.621094 578.488281 178.621094 577.183594 C 178.621094 575.875 178.6875 574.574219 178.816406 573.273438 C 178.941406 571.972656 179.132812 570.683594 179.390625 569.402344 C 179.644531 568.121094 179.960938 566.855469 180.339844 565.605469 C 180.71875 564.355469 181.15625 563.128906 181.65625 561.921875 C 182.15625 560.714844 182.714844 559.535156 183.332031 558.386719 C 183.945312 557.234375 184.617188 556.113281 185.339844 555.027344 C 186.066406 553.941406 186.84375 552.894531 187.671875 551.886719 C 188.5 550.875 189.375 549.910156 190.300781 548.984375 C 191.222656 548.0625 192.1875 547.1875 193.199219 546.359375 C 194.207031 545.53125 195.253906 544.753906 196.339844 544.027344 C 197.425781 543.300781 198.542969 542.632812 199.695312 542.015625 C 200.847656 541.398438 202.027344 540.84375 203.230469 540.34375 C 204.4375 539.84375 205.664062 539.402344 206.914062 539.023438 C 208.164062 538.644531 209.429688 538.328125 210.710938 538.074219 C 211.992188 537.820312 213.28125 537.628906 214.578125 537.5 C 215.878906 537.371094 217.179688 537.308594 218.488281 537.308594 C 219.792969 537.308594 221.09375 537.371094 222.394531 537.5 C 223.695312 537.628906 224.984375 537.820312 226.265625 538.074219 C 227.542969 538.328125 228.808594 538.644531 230.058594 539.023438 C 231.308594 539.402344 232.535156 539.84375 233.742188 540.34375 C 234.949219 540.84375 236.128906 541.398438 237.277344 542.015625 C 238.429688 542.632812 239.546875 543.300781 240.632812 544.027344 C 241.71875 544.753906 242.765625 545.53125 243.777344 546.359375 C 244.785156 547.1875 245.753906 548.0625 246.675781 548.984375 C 247.597656 549.910156 248.472656 550.875 249.300781 551.886719 C 250.128906 552.894531 250.90625 553.941406 251.632812 555.027344 C 252.359375 556.113281 253.027344 557.234375 253.644531 558.386719 C 254.257812 559.535156 254.816406 560.714844 255.316406 561.921875 C 255.816406 563.128906 256.253906 564.355469 256.632812 565.605469 C 257.011719 566.855469 257.332031 568.121094 257.585938 569.402344 C 257.839844 570.683594 258.03125 571.972656 258.160156 573.273438 C 258.285156 574.574219 258.351562 575.875 258.351562 577.183594 Z M 258.351562 577.183594 " fill-opacity="1" fill-rule="nonzero"/><path fill="#000000" d="M 382.667969 577.183594 C 382.667969 578.488281 382.601562 579.789062 382.476562 581.089844 C 382.347656 582.390625 382.15625 583.679688 381.902344 584.960938 C 381.644531 586.242188 381.328125 587.507812 380.949219 588.757812 C 380.570312 590.007812 380.132812 591.234375 379.632812 592.441406 C 379.132812 593.648438 378.574219 594.828125 377.960938 595.980469 C 377.34375 597.128906 376.671875 598.25 375.949219 599.335938 C 375.222656 600.421875 374.445312 601.46875 373.617188 602.476562 C 372.789062 603.488281 371.914062 604.453125 370.992188 605.378906 C 370.066406 606.300781 369.101562 607.175781 368.09375 608.003906 C 367.082031 608.835938 366.035156 609.609375 364.949219 610.335938 C 363.863281 611.0625 362.746094 611.734375 361.59375 612.347656 C 360.441406 612.964844 359.265625 613.523438 358.058594 614.023438 C 356.851562 614.519531 355.625 614.960938 354.375 615.339844 C 353.125 615.71875 351.859375 616.035156 350.578125 616.289062 C 349.300781 616.546875 348.007812 616.738281 346.710938 616.863281 C 345.410156 616.992188 344.109375 617.058594 342.800781 617.058594 C 341.496094 617.058594 340.195312 616.992188 338.894531 616.863281 C 337.597656 616.738281 336.304688 616.546875 335.027344 616.289062 C 333.746094 616.035156 332.480469 615.71875 331.230469 615.339844 C 329.980469 614.960938 328.753906 614.523438 327.546875 614.023438 C 326.339844 613.523438 325.164062 612.964844 324.011719 612.347656 C 322.859375 611.734375 321.742188 611.0625 320.65625 610.335938 C 319.570312 609.609375 318.523438 608.835938 317.511719 608.003906 C 316.503906 607.175781 315.539062 606.300781 314.613281 605.378906 C 313.691406 604.453125 312.816406 603.488281 311.988281 602.476562 C 311.160156 601.46875 310.382812 600.421875 309.65625 599.335938 C 308.929688 598.25 308.261719 597.128906 307.644531 595.980469 C 307.03125 594.828125 306.472656 593.648438 305.972656 592.441406 C 305.472656 591.234375 305.035156 590.007812 304.65625 588.757812 C 304.277344 587.507812 303.960938 586.242188 303.703125 584.960938 C 303.449219 583.679688 303.257812 582.390625 303.128906 581.089844 C 303.003906 579.789062 302.9375 578.488281 302.9375 577.183594 C 302.9375 575.875 303.003906 574.574219 303.128906 573.273438 C 303.257812 571.972656 303.449219 570.683594 303.703125 569.402344 C 303.960938 568.121094 304.277344 566.855469 304.65625 565.605469 C 305.035156 564.355469 305.472656 563.128906 305.972656 561.921875 C 306.472656 560.714844 307.03125 559.535156 307.644531 558.386719 C 308.261719 557.234375 308.929688 556.113281 309.65625 555.027344 C 310.382812 553.941406 311.160156 552.894531 311.988281 551.886719 C 312.816406 550.875 313.691406 549.910156 314.613281 548.984375 C 315.539062 548.0625 316.503906 547.1875 317.511719 546.359375 C 318.523438 545.53125 319.570312 544.753906 320.65625 544.027344 C 321.742188 543.300781 322.859375 542.632812 324.011719 542.015625 C 325.164062 541.398438 326.339844 540.84375 327.546875 540.34375 C 328.753906 539.84375 329.980469 539.402344 331.230469 539.023438 C 332.480469 538.644531 333.746094 538.328125 335.027344 538.074219 C 336.304688 537.820312 337.597656 537.628906 338.894531 537.5 C 340.195312 537.371094 341.496094 537.308594 342.800781 537.308594 C 344.109375 537.308594 345.410156 537.371094 346.710938 537.5 C 348.007812 537.628906 349.300781 537.820312 350.578125 538.074219 C 351.859375 538.328125 353.125 538.644531 354.375 539.023438 C 355.625 539.402344 356.851562 539.84375 358.058594 540.34375 C 359.265625 540.84375 360.441406 541.398438 361.59375 542.015625 C 362.746094 542.632812 363.863281 543.300781 364.949219 544.027344 C 366.035156 544.753906 367.082031 545.53125 368.09375 546.359375 C 369.101562 547.1875 370.066406 548.0625 370.992188 548.984375 C 371.914062 549.910156 372.789062 550.875 373.617188 551.886719 C 374.445312 552.894531 375.222656 553.941406 375.949219 555.027344 C 376.671875 556.113281 377.34375 557.234375 377.960938 558.386719 C 378.574219 559.535156 379.132812 560.714844 379.632812 561.921875 C 380.132812 563.128906 380.570312 564.355469 380.949219 565.605469 C 381.328125 566.855469 381.644531 568.121094 381.902344 569.402344 C 382.15625 570.683594 382.347656 571.972656 382.476562 573.273438 C 382.601562 574.574219 382.667969 575.875 382.667969 577.183594 Z M 382.667969 577.183594 " fill-opacity="1" fill-rule="nonzero"/><path fill="#000000" d="M 506.980469 577.183594 C 506.980469 578.488281 506.917969 579.789062 506.789062 581.089844 C 506.660156 582.390625 506.46875 583.679688 506.214844 584.960938 C 505.960938 586.242188 505.644531 587.507812 505.265625 588.757812 C 504.886719 590.007812 504.445312 591.234375 503.945312 592.441406 C 503.445312 593.648438 502.890625 594.828125 502.273438 595.980469 C 501.65625 597.128906 500.988281 598.25 500.261719 599.335938 C 499.535156 600.421875 498.761719 601.46875 497.933594 602.476562 C 497.101562 603.488281 496.226562 604.453125 495.304688 605.378906 C 494.382812 606.300781 493.414062 607.175781 492.40625 608.003906 C 491.398438 608.835938 490.347656 609.609375 489.261719 610.335938 C 488.179688 611.0625 487.058594 611.734375 485.90625 612.347656 C 484.757812 612.964844 483.578125 613.523438 482.371094 614.023438 C 481.164062 614.519531 479.9375 614.960938 478.6875 615.339844 C 477.4375 615.71875 476.175781 616.035156 474.894531 616.289062 C 473.613281 616.546875 472.324219 616.738281 471.023438 616.863281 C 469.722656 616.992188 468.421875 617.058594 467.117188 617.058594 C 465.8125 617.058594 464.507812 616.992188 463.210938 616.863281 C 461.910156 616.738281 460.621094 616.546875 459.339844 616.289062 C 458.058594 616.035156 456.792969 615.71875 455.542969 615.339844 C 454.296875 614.960938 453.066406 614.523438 451.859375 614.023438 C 450.65625 613.523438 449.476562 612.964844 448.324219 612.347656 C 447.171875 611.734375 446.054688 611.0625 444.96875 610.335938 C 443.882812 609.609375 442.835938 608.835938 441.828125 608.003906 C 440.816406 607.175781 439.851562 606.300781 438.929688 605.378906 C 438.003906 604.453125 437.128906 603.488281 436.300781 602.476562 C 435.472656 601.46875 434.695312 600.421875 433.96875 599.335938 C 433.246094 598.25 432.574219 597.128906 431.960938 595.980469 C 431.34375 594.828125 430.785156 593.648438 430.285156 592.441406 C 429.789062 591.234375 429.347656 590.007812 428.96875 588.757812 C 428.589844 587.507812 428.273438 586.242188 428.019531 584.960938 C 427.761719 583.679688 427.574219 582.390625 427.445312 581.089844 C 427.316406 579.789062 427.253906 578.488281 427.253906 577.183594 C 427.253906 575.875 427.316406 574.574219 427.445312 573.273438 C 427.574219 571.972656 427.761719 570.683594 428.019531 569.402344 C 428.273438 568.121094 428.589844 566.855469 428.96875 565.605469 C 429.347656 564.355469 429.789062 563.128906 430.285156 561.921875 C 430.785156 560.714844 431.34375 559.535156 431.960938 558.386719 C 432.574219 557.234375 433.246094 556.113281 433.96875 555.027344 C 434.695312 553.941406 435.472656 552.894531 436.300781 551.886719 C 437.128906 550.875 438.003906 549.910156 438.929688 548.984375 C 439.851562 548.0625 440.816406 547.1875 441.828125 546.359375 C 442.835938 545.53125 443.882812 544.753906 444.96875 544.027344 C 446.054688 543.300781 447.171875 542.632812 448.324219 542.015625 C 449.476562 541.398438 450.65625 540.84375 451.859375 540.34375 C 453.066406 539.84375 454.296875 539.402344 455.542969 539.023438 C 456.792969 538.644531 458.058594 538.328125 459.339844 538.074219 C 460.621094 537.820312 461.910156 537.628906 463.210938 537.5 C 464.507812 537.371094 465.8125 537.308594 467.117188 537.308594 C 468.421875 537.308594 469.722656 537.371094 471.023438 537.5 C 472.324219 537.628906 473.613281 537.820312 474.894531 538.074219 C 476.175781 538.328125 477.4375 538.644531 478.6875 539.023438 C 479.9375 539.402344 481.164062 539.84375 482.371094 540.34375 C 483.578125 540.84375 484.757812 541.398438 485.90625 542.015625 C 487.058594 542.632812 488.179688 543.300781 489.261719 544.027344 C 490.347656 544.753906 491.398438 545.53125 492.40625 546.359375 C 493.414062 547.1875 494.382812 548.0625 495.304688 548.984375 C 496.226562 549.910156 497.101562 550.875 497.933594 551.886719 C 498.761719 552.894531 499.535156 553.941406 500.261719 555.027344 C 500.988281 556.113281 501.65625 557.234375 502.273438 558.386719 C 502.890625 559.535156 503.445312 560.714844 503.945312 561.921875 C 504.445312 563.128906 504.886719 564.355469 505.265625 565.605469 C 505.644531 566.855469 505.960938 568.121094 506.214844 569.402344 C 506.46875 570.683594 506.660156 571.972656 506.789062 573.273438 C 506.917969 574.574219 506.980469 575.875 506.980469 577.183594 Z M 506.980469 577.183594 " fill-opacity="1" fill-rule="nonzero"/><path fill="#000000" d="M 631.292969 577.183594 C 631.292969 578.488281 631.230469 579.789062 631.101562 581.089844 C 630.972656 582.390625 630.78125 583.679688 630.527344 584.960938 C 630.273438 586.242188 629.957031 587.507812 629.578125 588.757812 C 629.199219 590.007812 628.757812 591.234375 628.257812 592.441406 C 627.761719 593.648438 627.203125 594.828125 626.585938 595.980469 C 625.972656 597.128906 625.300781 598.25 624.574219 599.335938 C 623.851562 600.421875 623.074219 601.46875 622.246094 602.476562 C 621.417969 603.488281 620.542969 604.453125 619.617188 605.378906 C 618.695312 606.300781 617.730469 607.175781 616.71875 608.003906 C 615.710938 608.835938 614.664062 609.609375 613.578125 610.335938 C 612.492188 611.0625 611.375 611.734375 610.222656 612.347656 C 609.070312 612.964844 607.890625 613.523438 606.683594 614.023438 C 605.480469 614.519531 604.25 614.960938 603.003906 615.339844 C 601.753906 615.71875 600.488281 616.035156 599.207031 616.289062 C 597.925781 616.546875 596.636719 616.738281 595.335938 616.863281 C 594.039062 616.992188 592.734375 617.058594 591.429688 617.058594 C 590.125 617.058594 588.820312 616.992188 587.523438 616.863281 C 586.222656 616.738281 584.933594 616.546875 583.652344 616.289062 C 582.371094 616.035156 581.109375 615.71875 579.859375 615.339844 C 578.609375 614.960938 577.382812 614.523438 576.175781 614.023438 C 574.96875 613.523438 573.789062 612.964844 572.636719 612.347656 C 571.488281 611.734375 570.367188 611.0625 569.28125 610.335938 C 568.199219 609.609375 567.148438 608.835938 566.140625 608.003906 C 565.132812 607.175781 564.164062 606.300781 563.242188 605.378906 C 562.320312 604.453125 561.441406 603.488281 560.613281 602.476562 C 559.785156 601.46875 559.011719 600.421875 558.285156 599.335938 C 557.558594 598.25 556.890625 597.128906 556.273438 595.980469 C 555.65625 594.828125 555.101562 593.648438 554.601562 592.441406 C 554.101562 591.234375 553.660156 590.007812 553.28125 588.757812 C 552.902344 587.507812 552.585938 586.242188 552.332031 584.960938 C 552.078125 583.679688 551.886719 582.390625 551.757812 581.089844 C 551.628906 579.789062 551.566406 578.488281 551.566406 577.183594 C 551.566406 575.875 551.628906 574.574219 551.757812 573.273438 C 551.886719 571.972656 552.078125 570.683594 552.332031 569.402344 C 552.585938 568.121094 552.902344 566.855469 553.28125 565.605469 C 553.660156 564.355469 554.101562 563.128906 554.601562 561.921875 C 555.101562 560.714844 555.65625 559.535156 556.273438 558.386719 C 556.890625 557.234375 557.558594 556.113281 558.285156 555.027344 C 559.011719 553.941406 559.785156 552.894531 560.613281 551.886719 C 561.441406 550.875 562.320312 549.910156 563.242188 548.984375 C 564.164062 548.0625 565.132812 547.1875 566.140625 546.359375 C 567.148438 545.53125 568.199219 544.753906 569.28125 544.027344 C 570.367188 543.300781 571.488281 542.632812 572.636719 542.015625 C 573.789062 541.398438 574.96875 540.84375 576.175781 540.34375 C 577.382812 539.84375 578.609375 539.402344 579.859375 539.023438 C 581.109375 538.644531 582.371094 538.328125 583.652344 538.074219 C 584.933594 537.820312 586.222656 537.628906 587.523438 537.5 C 588.820312 537.371094 590.125 537.308594 591.429688 537.308594 C 592.734375 537.308594 594.039062 537.371094 595.335938 537.5 C 596.636719 537.628906 597.925781 537.820312 599.207031 538.074219 C 600.488281 538.328125 601.753906 538.644531 603.003906 539.023438 C 604.25 539.402344 605.480469 539.84375 606.683594 540.34375 C 607.890625 540.84375 609.070312 541.398438 610.222656 542.015625 C 611.375 542.632812 612.492188 543.300781 613.578125 544.027344 C 614.664062 544.753906 615.710938 545.53125 616.71875 546.359375 C 617.730469 547.1875 618.695312 548.0625 619.617188 548.984375 C 620.542969 549.910156 621.417969 550.875 622.246094 551.886719 C 623.074219 552.894531 623.851562 553.941406 624.574219 555.027344 C 625.300781 556.113281 625.972656 557.234375 626.585938 558.386719 C 627.203125 559.535156 627.761719 560.714844 628.257812 561.921875 C 628.757812 563.128906 629.199219 564.355469 629.578125 565.605469 C 629.957031 566.855469 630.273438 568.121094 630.527344 569.402344 C 630.78125 570.683594 630.972656 571.972656 631.101562 573.273438 C 631.230469 574.574219 631.292969 575.875 631.292969 577.183594 Z M 631.292969 577.183594 " fill-opacity="1" fill-rule="nonzero"/></svg>