<svg xmlns="http://www.w3.org/2000/svg" xmlns:xlink="http://www.w3.org/1999/xlink" width="1080" zoomAndPan="magnify" viewBox="0 0 810 809.999993" height="1080" preserveAspectRatio="xMidYMid meet" version="1.0"><defs><clipPath id="98ad4e252e"><path d="M 116 90.851562 L 694 90.851562 L 694 719.351562 L 116 719.351562 Z M 116 90.851562 " clip-rule="nonzero"/></clipPath></defs><g clip-path="url(#98ad4e252e)"><path fill="#100f0d" d="M 657.230469 528.09375 C 645.554688 551.988281 591.46875 557.359375 517.660156 541.214844 C 521.203125 521.695312 523.917969 501.394531 525.867188 480.722656 C 553.753906 463.785156 579.421875 445.878906 601.808594 427.492188 C 606.492188 431.867188 611.085938 436.246094 615.335938 440.632812 C 650.5625 476.957031 666.234375 509.664062 657.230469 528.09375 Z M 472.300781 587.25 C 455.277344 590.722656 442.4375 605.796875 442.4375 623.824219 C 442.4375 631.792969 445 639.152344 449.269531 645.21875 C 435.355469 670.878906 419.867188 685.652344 404.953125 685.652344 C 378.355469 685.652344 349.816406 639.425781 331.957031 566.046875 C 355.992188 559.285156 380.5625 550.757812 404.957031 541.019531 C 429.367188 550.757812 453.9375 559.285156 477.96875 566.046875 C 476.179688 573.394531 474.289062 580.472656 472.300781 587.25 Z M 152.699219 528.09375 C 143.699219 509.664062 159.367188 476.957031 194.59375 440.632812 C 198.839844 436.246094 203.4375 431.867188 208.121094 427.492188 C 230.511719 445.878906 256.171875 463.792969 284.058594 480.726562 C 286.011719 501.394531 288.71875 521.695312 292.265625 541.214844 C 218.453125 557.363281 164.375 552 152.699219 528.09375 Z M 194.59375 369.570312 C 159.367188 333.246094 143.699219 300.535156 152.699219 282.109375 C 158.910156 269.375 177.339844 262.007812 204.1875 260.238281 C 210.480469 271.964844 222.71875 280.042969 236.925781 280.042969 C 249.460938 280.042969 260.523438 273.785156 267.289062 264.265625 C 275.347656 265.570312 283.625 267.09375 292.265625 268.980469 C 288.71875 288.5 286.011719 308.800781 284.058594 329.472656 C 256.171875 346.410156 230.511719 364.324219 208.121094 382.710938 C 203.4375 378.335938 198.839844 373.957031 194.59375 369.570312 Z M 404.953125 124.550781 C 431.574219 124.550781 460.117188 170.78125 477.976562 244.183594 C 453.941406 250.945312 429.359375 259.328125 404.957031 269.070312 C 380.5625 259.328125 355.980469 250.945312 331.953125 244.179688 C 349.804688 170.78125 378.347656 124.550781 404.953125 124.550781 Z M 528.75 371.121094 C 545.636719 382.167969 561.402344 393.535156 575.808594 405.101562 C 561.402344 416.664062 545.636719 428.035156 528.75 439.082031 C 529.226562 427.746094 529.542969 416.402344 529.542969 405.101562 C 529.542969 393.796875 529.226562 382.453125 528.75 371.121094 Z M 449.550781 288.53125 C 461.621094 284.363281 473.421875 280.59375 484.867188 277.359375 C 486.679688 287.4375 488.28125 297.890625 489.679688 308.695312 C 479.824219 303.390625 469.808594 298.191406 459.558594 293.191406 C 456.257812 291.585938 452.878906 290.097656 449.550781 288.53125 Z M 320.246094 308.6875 C 321.648438 297.875 323.253906 287.40625 325.066406 277.320312 C 336.570312 280.582031 348.371094 284.261719 360.507812 288.464844 C 357.132812 290.050781 353.699219 291.5625 350.347656 293.191406 C 340.101562 298.191406 330.097656 303.382812 320.246094 308.6875 Z M 281.179688 439.085938 C 264.292969 428.039062 248.523438 416.664062 234.121094 405.101562 C 248.523438 393.535156 264.292969 382.160156 281.179688 371.109375 C 280.703125 382.453125 280.386719 393.796875 280.386719 405.101562 C 280.386719 416.402344 280.703125 427.746094 281.179688 439.085938 Z M 360.554688 521.71875 C 348.410156 525.921875 336.582031 529.613281 325.0625 532.875 C 323.253906 522.789062 321.648438 512.328125 320.246094 501.511719 C 330.097656 506.8125 340.101562 512.011719 350.347656 517.011719 C 353.707031 518.648438 357.167969 520.121094 360.554688 521.71875 Z M 489.679688 501.507812 C 488.28125 512.320312 486.675781 522.789062 484.859375 532.878906 C 473.339844 529.613281 461.507812 525.925781 449.355469 521.71875 C 452.738281 520.125 456.199219 518.648438 459.558594 517.011719 C 469.808594 512.011719 479.824219 506.8125 489.679688 501.507812 Z M 444.765625 486.695312 C 431.3125 493.253906 418.058594 499.113281 404.953125 504.628906 C 391.84375 499.113281 378.59375 493.253906 365.144531 486.695312 C 348.1875 478.425781 331.804688 469.699219 316.089844 460.640625 C 314.816406 442.78125 314.09375 424.25 314.09375 405.101562 C 314.09375 385.949219 314.816406 367.421875 316.089844 349.558594 C 331.804688 340.5 348.1875 331.777344 365.144531 323.503906 C 378.597656 316.945312 391.84375 311.085938 404.957031 305.574219 C 418.066406 311.085938 431.3125 316.945312 444.765625 323.503906 C 461.722656 331.777344 478.117188 340.507812 493.839844 349.566406 C 495.109375 367.425781 495.832031 385.949219 495.832031 405.101562 C 495.832031 424.25 495.109375 442.773438 493.839844 460.636719 C 478.117188 469.695312 461.722656 478.425781 444.765625 486.695312 Z M 592.90625 259.707031 C 626.855469 259.707031 650.058594 267.410156 657.230469 282.109375 C 662.21875 292.320312 659.378906 307.003906 650.09375 324.167969 C 649.433594 324.132812 648.8125 323.972656 648.148438 323.972656 C 627.582031 323.972656 610.835938 340.703125 610.835938 361.285156 C 610.835938 365.101562 611.582031 368.710938 612.648438 372.183594 C 609.171875 375.691406 605.5625 379.203125 601.808594 382.710938 C 579.421875 364.324219 553.753906 346.414062 525.867188 329.480469 C 523.917969 308.820312 521.207031 288.53125 517.671875 269.019531 C 546.089844 262.808594 571.648438 259.707031 592.90625 259.707031 Z M 627.140625 405.101562 C 630.191406 402.210938 633.191406 399.324219 636.066406 396.429688 C 639.875 397.75 643.894531 398.613281 648.148438 398.613281 C 668.710938 398.613281 685.457031 381.863281 685.457031 361.285156 C 685.457031 353.773438 683.179688 346.804688 679.347656 340.941406 C 694.527344 313.050781 697.527344 287.832031 687.515625 267.3125 C 665.597656 222.40625 594.296875 217.453125 510.730469 235.917969 C 490.683594 152.730469 454.957031 90.835938 404.953125 90.835938 C 354.953125 90.835938 319.226562 152.722656 299.195312 235.914062 C 289.980469 233.871094 280.953125 232.175781 272.085938 230.734375 C 267.054688 216.050781 253.273438 205.398438 236.925781 205.398438 C 222.253906 205.398438 209.648438 214 203.554688 226.371094 C 164.71875 228.734375 135.132812 241.1875 122.410156 267.3125 C 106.453125 300.011719 123.484375 344.667969 170.386719 393.046875 C 174.285156 397.074219 178.550781 401.085938 182.785156 405.101562 C 178.550781 409.117188 174.285156 413.128906 170.386719 417.148438 C 123.484375 465.535156 106.453125 510.191406 122.410156 542.886719 C 136.652344 572.074219 171.699219 584.410156 217.464844 584.410156 C 242.109375 584.410156 269.917969 580.722656 299.183594 574.257812 C 319.21875 657.460938 354.949219 719.367188 404.953125 719.367188 C 435 719.367188 459.886719 696.976562 479.328125 661.105469 C 479.480469 661.105469 479.621094 661.152344 479.769531 661.152344 C 500.332031 661.152344 517.078125 644.402344 517.078125 623.824219 C 517.078125 612.972656 512.347656 603.265625 504.925781 596.441406 C 507.007812 589.261719 508.917969 581.820312 510.738281 574.257812 C 540.003906 580.722656 567.8125 584.410156 592.472656 584.410156 C 638.203125 584.410156 673.296875 572.0625 687.515625 542.886719 C 703.476562 510.179688 686.441406 465.535156 639.539062 417.148438 C 635.644531 413.128906 631.378906 409.117188 627.140625 405.101562 " fill-opacity="1" fill-rule="nonzero"/></g><path fill="#100f0d" d="M 404.953125 350.8125 C 375.019531 350.8125 350.679688 375.167969 350.679688 405.101562 C 350.679688 435.035156 375.019531 459.386719 404.953125 459.386719 C 434.890625 459.386719 459.230469 435.035156 459.230469 405.101562 C 459.230469 375.167969 434.890625 350.8125 404.953125 350.8125 " fill-opacity="1" fill-rule="nonzero"/></svg>