<svg xmlns="http://www.w3.org/2000/svg" xmlns:xlink="http://www.w3.org/1999/xlink" width="1080" zoomAndPan="magnify" viewBox="0 0 810 809.999993" height="1080" preserveAspectRatio="xMidYMid meet" version="1.0"><defs><clipPath id="d4a0c3cc10"><path d="M 116 90.851562 L 694 90.851562 L 694 719.351562 L 116 719.351562 Z M 116 90.851562 " clip-rule="nonzero"/></clipPath></defs><g clip-path="url(#d4a0c3cc10)"><path fill="#000000" d="M 657.15625 527.945312 C 645.480469 551.832031 591.402344 557.203125 517.601562 541.066406 C 521.144531 521.550781 523.859375 501.257812 525.808594 480.589844 C 553.695312 463.660156 579.359375 445.757812 601.742188 427.378906 C 606.421875 431.75 611.015625 436.128906 615.265625 440.515625 C 650.484375 476.828125 666.15625 509.523438 657.15625 527.945312 Z M 472.25 587.082031 C 455.230469 590.554688 442.394531 605.625 442.394531 623.648438 C 442.394531 631.609375 444.953125 638.964844 449.222656 645.035156 C 435.3125 670.6875 419.824219 685.449219 404.910156 685.449219 C 378.316406 685.449219 349.78125 639.242188 331.929688 565.886719 C 355.957031 559.128906 380.523438 550.605469 404.917969 540.867188 C 429.324219 550.605469 453.890625 559.128906 477.917969 565.886719 C 476.128906 573.230469 474.238281 580.308594 472.25 587.082031 Z M 152.691406 527.945312 C 143.695312 509.523438 159.359375 476.828125 194.582031 440.515625 C 198.828125 436.128906 203.421875 431.75 208.105469 427.378906 C 230.496094 445.757812 256.152344 463.667969 284.035156 480.597656 C 285.988281 501.257812 288.695312 521.550781 292.238281 541.066406 C 218.4375 557.207031 164.367188 551.84375 152.691406 527.945312 Z M 194.582031 369.476562 C 159.359375 333.164062 143.695312 300.464844 152.691406 282.042969 C 158.902344 269.3125 177.328125 261.953125 204.175781 260.179688 C 210.46875 271.902344 222.703125 279.980469 236.90625 279.980469 C 249.441406 279.980469 260.5 273.722656 267.265625 264.207031 C 275.324219 265.511719 283.601562 267.035156 292.238281 268.917969 C 288.695312 288.433594 285.988281 308.726562 284.035156 329.394531 C 256.152344 346.324219 230.496094 364.230469 208.105469 382.613281 C 203.421875 378.238281 198.828125 373.859375 194.582031 369.476562 Z M 404.910156 124.539062 C 431.53125 124.539062 460.070312 170.753906 477.925781 244.132812 C 453.894531 250.890625 429.316406 259.273438 404.917969 269.007812 C 380.523438 259.273438 355.945312 250.890625 331.921875 244.125 C 349.769531 170.753906 378.308594 124.539062 404.910156 124.539062 Z M 528.691406 371.027344 C 545.574219 382.070312 561.339844 393.433594 575.742188 404.996094 C 561.339844 416.554688 545.574219 427.921875 528.691406 438.964844 C 529.167969 427.636719 529.484375 416.292969 529.484375 404.996094 C 529.484375 393.695312 529.167969 382.355469 528.691406 371.027344 Z M 449.503906 288.464844 C 461.574219 284.300781 473.371094 280.527344 484.816406 277.296875 C 486.628906 287.371094 488.226562 297.824219 489.628906 308.621094 C 479.773438 303.316406 469.757812 298.121094 459.507812 293.121094 C 456.210938 291.515625 452.832031 290.03125 449.503906 288.464844 Z M 320.21875 308.613281 C 321.621094 297.804688 323.222656 287.339844 325.039062 277.257812 C 336.539062 280.515625 348.339844 284.199219 360.472656 288.398438 C 357.097656 289.984375 353.667969 291.492188 350.3125 293.121094 C 340.070312 298.121094 330.066406 303.3125 320.21875 308.613281 Z M 281.15625 438.96875 C 264.273438 427.925781 248.503906 416.554688 234.105469 404.996094 C 248.503906 393.433594 264.273438 382.0625 281.15625 371.015625 C 280.675781 382.355469 280.359375 393.695312 280.359375 404.996094 C 280.359375 416.292969 280.675781 427.636719 281.15625 438.96875 Z M 360.519531 521.574219 C 348.375 525.773438 336.550781 529.46875 325.03125 532.726562 C 323.222656 522.644531 321.621094 512.183594 320.21875 501.375 C 330.066406 506.671875 340.070312 511.871094 350.3125 516.867188 C 353.671875 518.503906 357.132812 519.976562 360.519531 521.574219 Z M 489.628906 501.371094 C 488.226562 512.179688 486.621094 522.644531 484.808594 532.730469 C 473.289062 529.46875 461.460938 525.78125 449.308594 521.574219 C 452.691406 519.984375 456.148438 518.503906 459.507812 516.867188 C 469.757812 511.871094 479.773438 506.671875 489.628906 501.371094 Z M 444.71875 486.5625 C 431.265625 493.121094 418.019531 498.976562 404.910156 504.488281 C 391.804688 498.976562 378.554688 493.121094 365.109375 486.5625 C 348.15625 478.292969 331.773438 469.574219 316.058594 460.515625 C 314.789062 442.664062 314.066406 424.140625 314.066406 404.996094 C 314.066406 385.851562 314.789062 367.328125 316.058594 349.472656 C 331.773438 340.417969 348.15625 331.695312 365.109375 323.425781 C 378.5625 316.871094 391.804688 311.011719 404.917969 305.5 C 418.023438 311.011719 431.265625 316.871094 444.71875 323.425781 C 461.675781 331.695312 478.066406 340.421875 493.785156 349.480469 C 495.058594 367.335938 495.78125 385.851562 495.78125 404.996094 C 495.78125 424.140625 495.058594 442.65625 493.785156 460.511719 C 478.066406 469.566406 461.675781 478.292969 444.71875 486.5625 Z M 592.839844 259.648438 C 626.785156 259.648438 649.984375 267.351562 657.15625 282.042969 C 662.140625 292.25 659.304688 306.933594 650.019531 324.089844 C 649.359375 324.054688 648.738281 323.894531 648.074219 323.894531 C 627.511719 323.894531 610.765625 340.621094 610.765625 361.195312 C 610.765625 365.007812 611.511719 368.617188 612.582031 372.089844 C 609.101562 375.597656 605.492188 379.105469 601.742188 382.613281 C 579.359375 364.230469 553.695312 346.328125 525.808594 329.398438 C 523.859375 308.746094 521.152344 288.464844 517.613281 268.960938 C 546.027344 262.75 571.585938 259.648438 592.839844 259.648438 Z M 627.070312 404.996094 C 630.121094 402.109375 633.121094 399.21875 635.996094 396.328125 C 639.800781 397.644531 643.820312 398.511719 648.074219 398.511719 C 668.632812 398.511719 685.378906 381.765625 685.378906 361.195312 C 685.378906 353.683594 683.101562 346.71875 679.269531 340.859375 C 694.445312 312.976562 697.445312 287.765625 687.4375 267.253906 C 665.519531 222.363281 594.230469 217.414062 510.675781 235.871094 C 490.632812 152.710938 454.910156 90.835938 404.910156 90.835938 C 354.917969 90.835938 319.195312 152.703125 299.171875 235.863281 C 289.953125 233.824219 280.929688 232.128906 272.0625 230.6875 C 267.035156 216.011719 253.253906 205.363281 236.90625 205.363281 C 222.238281 205.363281 209.632812 213.957031 203.542969 226.324219 C 164.710938 228.6875 135.128906 241.136719 122.410156 267.253906 C 106.453125 299.941406 123.484375 344.582031 170.378906 392.945312 C 174.273438 396.972656 178.539062 400.980469 182.777344 404.996094 C 178.539062 409.011719 174.273438 413.019531 170.378906 417.039062 C 123.484375 465.410156 106.453125 510.050781 122.410156 542.734375 C 136.648438 571.914062 171.691406 584.242188 217.449219 584.242188 C 242.089844 584.242188 269.898438 580.558594 299.160156 574.097656 C 319.191406 657.269531 354.914062 719.15625 404.910156 719.15625 C 434.953125 719.15625 459.835938 696.773438 479.277344 660.914062 C 479.425781 660.914062 479.570312 660.960938 479.71875 660.960938 C 500.277344 660.960938 517.023438 644.214844 517.023438 623.648438 C 517.023438 612.796875 512.292969 603.09375 504.871094 596.269531 C 506.953125 589.09375 508.863281 581.65625 510.679688 574.097656 C 539.941406 580.558594 567.75 584.242188 592.40625 584.242188 C 638.132812 584.242188 673.222656 571.902344 687.4375 542.734375 C 703.394531 510.039062 686.363281 465.410156 639.46875 417.039062 C 635.570312 413.019531 631.304688 409.011719 627.070312 404.996094 " fill-opacity="1" fill-rule="nonzero"/></g><path fill="#000000" d="M 404.910156 350.726562 C 374.980469 350.726562 350.648438 375.070312 350.648438 404.996094 C 350.648438 434.917969 374.980469 459.265625 404.910156 459.265625 C 434.847656 459.265625 459.179688 434.917969 459.179688 404.996094 C 459.179688 375.070312 434.847656 350.726562 404.910156 350.726562 " fill-opacity="1" fill-rule="nonzero"/></svg>